<svg width="168" height="169" viewBox="0 0 168 169" fill="none" xmlns="http://www.w3.org/2000/svg">
<g filter="url(#filter0_d_191_888)">
<rect x="4" y="0.792969" width="160" height="160" rx="20" fill="#FFE3BA" shape-rendering="crispEdges"/>
<rect x="9" y="5.79297" width="150" height="150" rx="15" stroke="#FFCD83" stroke-width="10" shape-rendering="crispEdges"/>
<path d="M54 57.5072C54 49.9065 54 46.1062 55.4792 43.2031C56.7803 40.6495 58.8565 38.5733 61.4101 37.2722C64.3132 35.793 68.1136 35.793 75.7142 35.793H92.2858C99.8865 35.793 103.687 35.793 106.59 37.2722C109.143 38.5733 111.22 40.6495 112.521 43.2031C114 46.1062 114 49.9065 114 57.5072V74.0788C114 81.6795 114 85.4798 112.521 88.3828C111.22 90.9364 109.143 93.0126 106.59 94.3138C103.687 95.793 99.8865 95.793 92.2858 95.793H75.7142C68.1136 95.793 64.3132 95.793 61.4101 94.3138C58.8565 93.0126 56.7803 90.9364 55.4792 88.3828C54 85.4798 54 81.6795 54 74.0788V57.5072Z" fill="#330000"/>
<path d="M83.0756 73.4993H73.778L71.8863 79.5265C71.8338 79.7504 71.6276 79.909 71.4033 79.8978H66.694C66.4254 79.8978 66.3315 79.7465 66.4123 79.4438L74.4622 55.6653C74.5428 55.4176 74.6233 55.1356 74.7037 54.8191C74.8091 54.2682 74.8629 53.7085 74.8648 53.1473C74.8417 52.9814 74.9874 52.8349 75.1464 52.8581H81.5463C81.7338 52.8581 81.8409 52.927 81.8681 53.0645L91.0051 79.4851C91.0854 79.7605 91.0051 79.898 90.7636 79.8978H85.5309C85.3475 79.9188 85.1722 79.793 85.1285 79.609L83.0756 73.4993ZM75.227 68.2977H81.5866C80.5417 64.7273 79.3625 61.2038 78.4068 57.6057C77.3756 61.21 76.2506 64.7997 75.227 68.2977Z" fill="#FF9A00"/>
<path d="M96.4383 57.2339C96.0277 57.2508 95.6184 57.1786 95.2368 57.0221C94.8553 56.8657 94.5103 56.6283 94.2245 56.3257C93.9395 56.0099 93.7179 55.6396 93.5728 55.2356C93.4278 54.8319 93.362 54.4027 93.3791 53.9726C93.3646 53.5469 93.4376 53.1228 93.5936 52.728C93.7498 52.3332 93.9853 51.9766 94.2849 51.6815C94.5815 51.3894 94.9316 51.1606 95.3152 51.0083C95.6986 50.8559 96.1076 50.7831 96.5186 50.7939C97.4848 50.7939 98.2428 51.0898 98.7928 51.6815C99.0706 51.989 99.2863 52.3496 99.428 52.7427C99.5694 53.1359 99.6341 53.5539 99.6178 53.9726C99.6348 54.4042 99.5668 54.8351 99.4181 55.2393C99.2696 55.6434 99.0431 56.0129 98.7526 56.3257C98.4489 56.6328 98.0863 56.8719 97.6882 57.0284C97.2898 57.1846 96.8643 57.2546 96.4383 57.2339ZM93.6609 79.4849V59.7521C93.6609 59.5044 93.7678 59.3806 93.983 59.3806H98.9338C99.1481 59.3806 99.2555 59.5044 99.2557 59.7521V79.4849C99.2557 79.7604 99.1483 79.898 98.9338 79.8978H94.0233C93.7818 79.8978 93.6609 79.7602 93.6609 79.4849Z" fill="#FF9A00"/>
<path d="M49.019 121.793H47.093V108.869H49.019V121.793ZM53.5076 108.509V121.793H51.7436V108.509H53.5076ZM57.8143 108.509V121.793H56.0503V108.509H57.8143ZM67.9259 112.649V121.793H66.8729C66.6329 121.793 66.4769 121.676 66.4049 121.442L66.2789 120.524C66.0809 120.734 65.8739 120.926 65.6579 121.1C65.4419 121.274 65.2109 121.424 64.9649 121.55C64.7189 121.67 64.4579 121.763 64.1819 121.829C63.9059 121.901 63.6089 121.937 63.2909 121.937C62.7869 121.937 62.3429 121.853 61.9589 121.685C61.5809 121.517 61.2629 121.283 61.0049 120.983C60.7469 120.677 60.5519 120.311 60.4199 119.885C60.2879 119.459 60.2219 118.988 60.2219 118.472V112.649H61.9859V118.472C61.9859 119.126 62.1359 119.636 62.4359 120.002C62.7359 120.362 63.1949 120.542 63.8129 120.542C64.2629 120.542 64.6829 120.437 65.0729 120.227C65.4629 120.011 65.8289 119.717 66.1709 119.345V112.649H67.9259ZM75.7666 114.224C75.7186 114.302 75.6676 114.359 75.6136 114.395C75.5596 114.425 75.4906 114.44 75.4066 114.44C75.3106 114.44 75.2026 114.407 75.0826 114.341C74.9686 114.275 74.8276 114.203 74.6596 114.125C74.4976 114.047 74.3056 113.975 74.0836 113.909C73.8616 113.843 73.5976 113.81 73.2916 113.81C73.0396 113.81 72.8086 113.843 72.5986 113.909C72.3946 113.969 72.2206 114.056 72.0766 114.17C71.9326 114.278 71.8216 114.41 71.7436 114.566C71.6656 114.716 71.6266 114.878 71.6266 115.052C71.6266 115.28 71.6926 115.469 71.8246 115.619C71.9626 115.769 72.1396 115.898 72.3556 116.006C72.5776 116.114 72.8266 116.213 73.1026 116.303C73.3846 116.387 73.6696 116.477 73.9576 116.573C74.2516 116.669 74.5366 116.78 74.8126 116.906C75.0946 117.026 75.3436 117.179 75.5596 117.365C75.7816 117.545 75.9586 117.764 76.0906 118.022C76.2286 118.28 76.2976 118.595 76.2976 118.967C76.2976 119.393 76.2196 119.789 76.0636 120.155C75.9136 120.515 75.6886 120.827 75.3886 121.091C75.0946 121.355 74.7286 121.562 74.2906 121.712C73.8526 121.862 73.3516 121.937 72.7876 121.937C72.1576 121.937 71.5756 121.832 71.0416 121.622C70.5076 121.412 70.0606 121.145 69.7006 120.821L70.1146 120.146C70.1626 120.062 70.2226 119.999 70.2946 119.957C70.3666 119.909 70.4626 119.885 70.5826 119.885C70.6966 119.885 70.8136 119.927 70.9336 120.011C71.0536 120.095 71.1976 120.188 71.3656 120.29C71.5336 120.386 71.7376 120.476 71.9776 120.56C72.2176 120.638 72.5176 120.677 72.8776 120.677C73.1776 120.677 73.4386 120.641 73.6606 120.569C73.8826 120.491 74.0656 120.389 74.2096 120.263C74.3596 120.131 74.4706 119.981 74.5426 119.813C74.6146 119.645 74.6506 119.468 74.6506 119.282C74.6506 119.042 74.5816 118.844 74.4436 118.688C74.3116 118.526 74.1346 118.388 73.9126 118.274C73.6966 118.16 73.4476 118.061 73.1656 117.977C72.8836 117.893 72.5956 117.803 72.3016 117.707C72.0076 117.611 71.7196 117.5 71.4376 117.374C71.1556 117.248 70.9036 117.089 70.6816 116.897C70.4656 116.705 70.2886 116.471 70.1506 116.195C70.0186 115.919 69.9526 115.583 69.9526 115.187C69.9526 114.833 70.0246 114.494 70.1686 114.17C70.3186 113.846 70.5316 113.561 70.8076 113.315C71.0896 113.069 71.4346 112.874 71.8426 112.73C72.2566 112.58 72.7276 112.505 73.2556 112.505C73.8616 112.505 74.4076 112.601 74.8936 112.793C75.3856 112.985 75.8056 113.249 76.1536 113.585L75.7666 114.224ZM81.0598 121.937C80.3218 121.937 79.7518 121.73 79.3498 121.316C78.9538 120.902 78.7558 120.311 78.7558 119.543V114.071H77.6938C77.5918 114.071 77.5048 114.041 77.4328 113.981C77.3668 113.915 77.3338 113.819 77.3338 113.693V112.982L78.8188 112.775L79.2148 110.048C79.2388 109.946 79.2838 109.868 79.3498 109.814C79.4218 109.754 79.5118 109.724 79.6198 109.724H80.5108V112.793H83.1028V114.071H80.5108V119.426C80.5108 119.786 80.5978 120.056 80.7718 120.236C80.9518 120.41 81.1798 120.497 81.4558 120.497C81.6178 120.497 81.7558 120.476 81.8698 120.434C81.9898 120.392 82.0918 120.347 82.1758 120.299C82.2598 120.245 82.3318 120.197 82.3918 120.155C82.4518 120.113 82.5058 120.092 82.5538 120.092C82.6138 120.092 82.6588 120.107 82.6888 120.137C82.7248 120.161 82.7608 120.203 82.7968 120.263L83.3188 121.109C83.0308 121.373 82.6888 121.577 82.2928 121.721C81.8968 121.865 81.4858 121.937 81.0598 121.937ZM86.3753 114.404C86.6693 113.804 87.0233 113.333 87.4373 112.991C87.8513 112.649 88.3493 112.478 88.9313 112.478C89.1293 112.478 89.3153 112.502 89.4893 112.55C89.6693 112.592 89.8253 112.658 89.9573 112.748L89.8403 114.071C89.7983 114.233 89.6993 114.314 89.5433 114.314C89.4593 114.314 89.3333 114.299 89.1653 114.269C88.9973 114.233 88.8173 114.215 88.6253 114.215C88.3433 114.215 88.0943 114.257 87.8783 114.341C87.6623 114.419 87.4673 114.539 87.2933 114.701C87.1253 114.857 86.9753 115.052 86.8433 115.286C86.7113 115.514 86.5883 115.775 86.4743 116.069V121.793H84.7193V112.649H85.7273C85.9193 112.649 86.0483 112.685 86.1143 112.757C86.1863 112.823 86.2373 112.943 86.2673 113.117L86.3753 114.404ZM96.0845 117.734C95.3705 117.758 94.7645 117.815 94.2665 117.905C93.7685 117.989 93.3635 118.103 93.0515 118.247C92.7395 118.391 92.5145 118.562 92.3765 118.76C92.2385 118.952 92.1695 119.168 92.1695 119.408C92.1695 119.636 92.2055 119.834 92.2775 120.002C92.3555 120.164 92.4575 120.299 92.5835 120.407C92.7155 120.509 92.8685 120.584 93.0425 120.632C93.2165 120.68 93.4055 120.704 93.6095 120.704C93.8795 120.704 94.1255 120.677 94.3475 120.623C94.5755 120.569 94.7885 120.494 94.9865 120.398C95.1845 120.296 95.3735 120.173 95.5535 120.029C95.7335 119.885 95.9105 119.72 96.0845 119.534V117.734ZM90.9365 113.927C91.4465 113.441 91.9985 113.078 92.5925 112.838C93.1925 112.598 93.8495 112.478 94.5635 112.478C95.0855 112.478 95.5475 112.565 95.9495 112.739C96.3515 112.907 96.6905 113.144 96.9665 113.45C97.2425 113.756 97.4495 114.122 97.5875 114.548C97.7315 114.974 97.8035 115.445 97.8035 115.961V121.793H97.0205C96.8465 121.793 96.7145 121.766 96.6245 121.712C96.5345 121.652 96.4625 121.544 96.4085 121.388L96.2195 120.587C95.9855 120.803 95.7545 120.995 95.5265 121.163C95.2985 121.325 95.0585 121.466 94.8065 121.586C94.5605 121.7 94.2965 121.787 94.0145 121.847C93.7325 121.907 93.4205 121.937 93.0785 121.937C92.7185 121.937 92.3795 121.889 92.0615 121.793C91.7495 121.691 91.4765 121.538 91.2425 121.334C91.0085 121.13 90.8225 120.875 90.6845 120.569C90.5525 120.263 90.4865 119.906 90.4865 119.498C90.4865 119.138 90.5825 118.793 90.7745 118.463C90.9725 118.127 91.2905 117.827 91.7285 117.563C92.1725 117.299 92.7485 117.083 93.4565 116.915C94.1705 116.747 95.0465 116.651 96.0845 116.627V115.961C96.0845 115.271 95.9375 114.755 95.6435 114.413C95.3495 114.071 94.9175 113.9 94.3475 113.9C93.9635 113.9 93.6395 113.948 93.3755 114.044C93.1175 114.14 92.8925 114.248 92.7005 114.368C92.5145 114.482 92.3495 114.587 92.2055 114.683C92.0675 114.779 91.9235 114.827 91.7735 114.827C91.6535 114.827 91.5485 114.794 91.4585 114.728C91.3745 114.662 91.3055 114.584 91.2515 114.494L90.9365 113.927ZM102.892 121.937C102.154 121.937 101.584 121.73 101.182 121.316C100.786 120.902 100.588 120.311 100.588 119.543V114.071H99.5259C99.4239 114.071 99.3369 114.041 99.2649 113.981C99.1989 113.915 99.1659 113.819 99.1659 113.693V112.982L100.651 112.775L101.047 110.048C101.071 109.946 101.116 109.868 101.182 109.814C101.254 109.754 101.344 109.724 101.452 109.724H102.343V112.793H104.935V114.071H102.343V119.426C102.343 119.786 102.43 120.056 102.604 120.236C102.784 120.41 103.012 120.497 103.288 120.497C103.45 120.497 103.588 120.476 103.702 120.434C103.822 120.392 103.924 120.347 104.008 120.299C104.092 120.245 104.164 120.197 104.224 120.155C104.284 120.113 104.338 120.092 104.386 120.092C104.446 120.092 104.491 120.107 104.521 120.137C104.557 120.161 104.593 120.203 104.629 120.263L105.151 121.109C104.863 121.373 104.521 121.577 104.125 121.721C103.729 121.865 103.318 121.937 102.892 121.937ZM110.396 112.505C111.068 112.505 111.674 112.616 112.214 112.838C112.76 113.054 113.222 113.369 113.6 113.783C113.984 114.191 114.278 114.686 114.482 115.268C114.686 115.844 114.788 116.492 114.788 117.212C114.788 117.932 114.686 118.583 114.482 119.165C114.278 119.747 113.984 120.242 113.6 120.65C113.222 121.058 112.76 121.373 112.214 121.595C111.674 121.811 111.068 121.919 110.396 121.919C109.718 121.919 109.106 121.811 108.56 121.595C108.02 121.373 107.558 121.058 107.174 120.65C106.79 120.242 106.493 119.747 106.283 119.165C106.079 118.583 105.977 117.932 105.977 117.212C105.977 116.492 106.079 115.844 106.283 115.268C106.493 114.686 106.79 114.191 107.174 113.783C107.558 113.369 108.02 113.054 108.56 112.838C109.106 112.616 109.718 112.505 110.396 112.505ZM110.396 120.551C111.26 120.551 111.905 120.26 112.331 119.678C112.757 119.096 112.97 118.277 112.97 117.221C112.97 116.165 112.757 115.346 112.331 114.764C111.905 114.176 111.26 113.882 110.396 113.882C109.52 113.882 108.866 114.176 108.434 114.764C108.008 115.346 107.795 116.165 107.795 117.221C107.795 118.277 108.008 119.096 108.434 119.678C108.866 120.26 109.52 120.551 110.396 120.551ZM118.403 114.404C118.697 113.804 119.051 113.333 119.465 112.991C119.879 112.649 120.377 112.478 120.959 112.478C121.157 112.478 121.343 112.502 121.517 112.55C121.697 112.592 121.853 112.658 121.985 112.748L121.868 114.071C121.826 114.233 121.727 114.314 121.571 114.314C121.487 114.314 121.361 114.299 121.193 114.269C121.025 114.233 120.845 114.215 120.653 114.215C120.371 114.215 120.122 114.257 119.906 114.341C119.69 114.419 119.495 114.539 119.321 114.701C119.153 114.857 119.003 115.052 118.871 115.286C118.739 115.514 118.616 115.775 118.502 116.069V121.793H116.747V112.649H117.755C117.947 112.649 118.076 112.685 118.142 112.757C118.214 112.823 118.265 112.943 118.295 113.117L118.403 114.404Z" fill="#343434"/>
</g>
<defs>
<filter id="filter0_d_191_888" x="0" y="0.792969" width="168" height="168" filterUnits="userSpaceOnUse" color-interpolation-filters="sRGB">
<feFlood flood-opacity="0" result="BackgroundImageFix"/>
<feColorMatrix in="SourceAlpha" type="matrix" values="0 0 0 0 0 0 0 0 0 0 0 0 0 0 0 0 0 0 127 0" result="hardAlpha"/>
<feOffset dy="4"/>
<feGaussianBlur stdDeviation="2"/>
<feComposite in2="hardAlpha" operator="out"/>
<feColorMatrix type="matrix" values="0 0 0 0 0 0 0 0 0 0 0 0 0 0 0 0 0 0 0.25 0"/>
<feBlend mode="normal" in2="BackgroundImageFix" result="effect1_dropShadow_191_888"/>
<feBlend mode="normal" in="SourceGraphic" in2="effect1_dropShadow_191_888" result="shape"/>
</filter>
</defs>
</svg>
