<svg width="168" height="169" viewBox="0 0 168 169" fill="none" xmlns="http://www.w3.org/2000/svg">
<g filter="url(#filter0_d_191_949)">
<rect x="4" y="0.792969" width="160" height="160" rx="20" fill="#FFE3BA" shape-rendering="crispEdges"/>
<rect x="9" y="5.79297" width="150" height="150" rx="15" stroke="#FFCD83" stroke-width="10" shape-rendering="crispEdges"/>
<g clip-path="url(#clip0_191_949)">
<path d="M61.9919 35.793C57.6957 35.793 54.5166 39.5533 54.6589 43.6312C54.7957 47.5489 54.618 52.6233 53.3407 56.7612C52.0595 60.9112 49.8924 63.54 46.353 63.8777V67.6883C49.8924 68.0259 52.0595 70.6547 53.3407 74.805C54.618 78.943 54.7957 84.0168 54.6589 87.9347C54.5166 92.0121 57.6957 95.773 61.9924 95.773H106.014C110.31 95.773 113.489 92.0127 113.346 87.9347C113.21 84.0171 113.387 78.943 114.665 74.805C115.947 70.655 118.108 68.0256 121.647 67.6883V63.8777C118.108 63.54 115.947 60.9112 114.665 56.7612C113.387 52.6238 113.21 47.5491 113.346 43.6312C113.489 39.5539 110.31 35.793 106.014 35.793H61.9913H61.9919ZM97.4001 72.7144C97.4001 78.3297 93.2119 81.735 86.2613 81.735H74.4289C74.0905 81.7349 73.766 81.6005 73.5267 81.3611C73.2874 81.1218 73.153 80.7973 73.153 80.4588V51.1071C73.153 50.9395 73.186 50.7735 73.2501 50.6186C73.3142 50.4638 73.4082 50.323 73.5267 50.2045C73.6452 50.086 73.7859 49.9919 73.9408 49.9278C74.0956 49.8636 74.2616 49.8306 74.4292 49.8306H86.1936C91.9892 49.8306 95.7927 52.9703 95.7927 57.7903C95.7927 61.1736 93.2339 64.2024 89.9742 64.7327V64.9094C94.4121 65.3962 97.4001 68.4694 97.4001 72.7144ZM84.9707 53.8762H78.2245V63.4056H83.9069C88.2992 63.4056 90.7216 61.6368 90.7216 58.475C90.7216 55.5124 88.6383 53.8762 84.9707 53.8762ZM78.2248 67.1868V77.6883H85.2195C89.7924 77.6883 92.2154 75.8533 92.2154 72.4044C92.2154 68.955 89.7251 67.1862 84.9254 67.1862H78.2248V67.1868Z" fill="#7E13F8"/>
</g>
<path d="M50.71 120.272C51.196 120.272 51.61 120.215 51.952 120.101C52.3 119.987 52.582 119.831 52.798 119.633C53.02 119.435 53.182 119.201 53.284 118.931C53.386 118.655 53.437 118.355 53.437 118.031C53.437 117.389 53.215 116.885 52.771 116.519C52.327 116.147 51.64 115.961 50.71 115.961H48.01V120.272H50.71ZM48.01 110.372V114.602H50.215C51.157 114.602 51.856 114.413 52.312 114.035C52.774 113.651 53.005 113.135 53.005 112.487C53.005 111.749 52.786 111.212 52.348 110.876C51.91 110.54 51.229 110.372 50.305 110.372H48.01ZM50.305 108.869C51.115 108.869 51.808 108.947 52.384 109.103C52.966 109.259 53.443 109.484 53.815 109.778C54.187 110.072 54.46 110.429 54.634 110.849C54.814 111.263 54.904 111.734 54.904 112.262C54.904 112.574 54.856 112.874 54.76 113.162C54.664 113.45 54.517 113.72 54.319 113.972C54.121 114.218 53.872 114.44 53.572 114.638C53.272 114.836 52.918 115.001 52.51 115.133C54.388 115.505 55.327 116.486 55.327 118.076C55.327 118.628 55.225 119.132 55.021 119.588C54.817 120.038 54.52 120.428 54.13 120.758C53.74 121.088 53.26 121.343 52.69 121.523C52.12 121.703 51.472 121.793 50.746 121.793H46.093V108.869H50.305ZM61.1788 112.505C61.8508 112.505 62.4568 112.616 62.9968 112.838C63.5428 113.054 64.0048 113.369 64.3828 113.783C64.7668 114.191 65.0608 114.686 65.2648 115.268C65.4688 115.844 65.5708 116.492 65.5708 117.212C65.5708 117.932 65.4688 118.583 65.2648 119.165C65.0608 119.747 64.7668 120.242 64.3828 120.65C64.0048 121.058 63.5428 121.373 62.9968 121.595C62.4568 121.811 61.8508 121.919 61.1788 121.919C60.5008 121.919 59.8888 121.811 59.3428 121.595C58.8028 121.373 58.3408 121.058 57.9568 120.65C57.5728 120.242 57.2758 119.747 57.0658 119.165C56.8618 118.583 56.7598 117.932 56.7598 117.212C56.7598 116.492 56.8618 115.844 57.0658 115.268C57.2758 114.686 57.5728 114.191 57.9568 113.783C58.3408 113.369 58.8028 113.054 59.3428 112.838C59.8888 112.616 60.5008 112.505 61.1788 112.505ZM61.1788 120.551C62.0428 120.551 62.6878 120.26 63.1138 119.678C63.5398 119.096 63.7528 118.277 63.7528 117.221C63.7528 116.165 63.5398 115.346 63.1138 114.764C62.6878 114.176 62.0428 113.882 61.1788 113.882C60.3028 113.882 59.6488 114.176 59.2168 114.764C58.7908 115.346 58.5778 116.165 58.5778 117.221C58.5778 118.277 58.7908 119.096 59.2168 119.678C59.6488 120.26 60.3028 120.551 61.1788 120.551ZM71.4269 112.505C72.0989 112.505 72.7049 112.616 73.2449 112.838C73.7909 113.054 74.2529 113.369 74.6309 113.783C75.0149 114.191 75.3089 114.686 75.5129 115.268C75.7169 115.844 75.8189 116.492 75.8189 117.212C75.8189 117.932 75.7169 118.583 75.5129 119.165C75.3089 119.747 75.0149 120.242 74.6309 120.65C74.2529 121.058 73.7909 121.373 73.2449 121.595C72.7049 121.811 72.0989 121.919 71.4269 121.919C70.7489 121.919 70.1369 121.811 69.5909 121.595C69.0509 121.373 68.5889 121.058 68.2049 120.65C67.8209 120.242 67.5239 119.747 67.3139 119.165C67.1099 118.583 67.0079 117.932 67.0079 117.212C67.0079 116.492 67.1099 115.844 67.3139 115.268C67.5239 114.686 67.8209 114.191 68.2049 113.783C68.5889 113.369 69.0509 113.054 69.5909 112.838C70.1369 112.616 70.7489 112.505 71.4269 112.505ZM71.4269 120.551C72.2909 120.551 72.9359 120.26 73.3619 119.678C73.7879 119.096 74.0009 118.277 74.0009 117.221C74.0009 116.165 73.7879 115.346 73.3619 114.764C72.9359 114.176 72.2909 113.882 71.4269 113.882C70.5509 113.882 69.8969 114.176 69.4649 114.764C69.0389 115.346 68.8259 116.165 68.8259 117.221C68.8259 118.277 69.0389 119.096 69.4649 119.678C69.8969 120.26 70.5509 120.551 71.4269 120.551ZM80.4641 121.937C79.7261 121.937 79.1561 121.73 78.7541 121.316C78.3581 120.902 78.1601 120.311 78.1601 119.543V114.071H77.0981C76.9961 114.071 76.9091 114.041 76.8371 113.981C76.7711 113.915 76.7381 113.819 76.7381 113.693V112.982L78.2231 112.775L78.6191 110.048C78.6431 109.946 78.6881 109.868 78.7541 109.814C78.8261 109.754 78.9161 109.724 79.0241 109.724H79.9151V112.793H82.5071V114.071H79.9151V119.426C79.9151 119.786 80.0021 120.056 80.1761 120.236C80.3561 120.41 80.5841 120.497 80.8601 120.497C81.0221 120.497 81.1601 120.476 81.2741 120.434C81.3941 120.392 81.4961 120.347 81.5801 120.299C81.6641 120.245 81.7361 120.197 81.7961 120.155C81.8561 120.113 81.9101 120.092 81.9581 120.092C82.0181 120.092 82.0631 120.107 82.0931 120.137C82.1291 120.161 82.1651 120.203 82.2011 120.263L82.7231 121.109C82.4351 121.373 82.0931 121.577 81.6971 121.721C81.3011 121.865 80.8901 121.937 80.4641 121.937ZM89.5146 114.224C89.4666 114.302 89.4156 114.359 89.3616 114.395C89.3076 114.425 89.2386 114.44 89.1546 114.44C89.0586 114.44 88.9506 114.407 88.8306 114.341C88.7166 114.275 88.5756 114.203 88.4076 114.125C88.2456 114.047 88.0536 113.975 87.8316 113.909C87.6096 113.843 87.3456 113.81 87.0396 113.81C86.7876 113.81 86.5566 113.843 86.3466 113.909C86.1426 113.969 85.9686 114.056 85.8246 114.17C85.6806 114.278 85.5696 114.41 85.4916 114.566C85.4136 114.716 85.3746 114.878 85.3746 115.052C85.3746 115.28 85.4406 115.469 85.5726 115.619C85.7106 115.769 85.8876 115.898 86.1036 116.006C86.3256 116.114 86.5746 116.213 86.8506 116.303C87.1326 116.387 87.4176 116.477 87.7056 116.573C87.9996 116.669 88.2846 116.78 88.5606 116.906C88.8426 117.026 89.0916 117.179 89.3076 117.365C89.5296 117.545 89.7066 117.764 89.8386 118.022C89.9766 118.28 90.0456 118.595 90.0456 118.967C90.0456 119.393 89.9676 119.789 89.8116 120.155C89.6616 120.515 89.4366 120.827 89.1366 121.091C88.8426 121.355 88.4766 121.562 88.0386 121.712C87.6006 121.862 87.0996 121.937 86.5356 121.937C85.9056 121.937 85.3236 121.832 84.7896 121.622C84.2556 121.412 83.8086 121.145 83.4486 120.821L83.8626 120.146C83.9106 120.062 83.9706 119.999 84.0426 119.957C84.1146 119.909 84.2106 119.885 84.3306 119.885C84.4446 119.885 84.5616 119.927 84.6816 120.011C84.8016 120.095 84.9456 120.188 85.1136 120.29C85.2816 120.386 85.4856 120.476 85.7256 120.56C85.9656 120.638 86.2656 120.677 86.6256 120.677C86.9256 120.677 87.1866 120.641 87.4086 120.569C87.6306 120.491 87.8136 120.389 87.9576 120.263C88.1076 120.131 88.2186 119.981 88.2906 119.813C88.3626 119.645 88.3986 119.468 88.3986 119.282C88.3986 119.042 88.3296 118.844 88.1916 118.688C88.0596 118.526 87.8826 118.388 87.6606 118.274C87.4446 118.16 87.1956 118.061 86.9136 117.977C86.6316 117.893 86.3436 117.803 86.0496 117.707C85.7556 117.611 85.4676 117.5 85.1856 117.374C84.9036 117.248 84.6516 117.089 84.4296 116.897C84.2136 116.705 84.0366 116.471 83.8986 116.195C83.7666 115.919 83.7006 115.583 83.7006 115.187C83.7006 114.833 83.7726 114.494 83.9166 114.17C84.0666 113.846 84.2796 113.561 84.5556 113.315C84.8376 113.069 85.1826 112.874 85.5906 112.73C86.0046 112.58 86.4756 112.505 87.0036 112.505C87.6096 112.505 88.1556 112.601 88.6416 112.793C89.1336 112.985 89.5536 113.249 89.9016 113.585L89.5146 114.224ZM94.8079 121.937C94.0699 121.937 93.4999 121.73 93.0979 121.316C92.7019 120.902 92.5039 120.311 92.5039 119.543V114.071H91.4419C91.3399 114.071 91.2529 114.041 91.1809 113.981C91.1149 113.915 91.0819 113.819 91.0819 113.693V112.982L92.5669 112.775L92.9629 110.048C92.9869 109.946 93.0319 109.868 93.0979 109.814C93.1699 109.754 93.2599 109.724 93.3679 109.724H94.2589V112.793H96.8509V114.071H94.2589V119.426C94.2589 119.786 94.3459 120.056 94.5199 120.236C94.6999 120.41 94.9279 120.497 95.2039 120.497C95.3659 120.497 95.5039 120.476 95.6179 120.434C95.7379 120.392 95.8399 120.347 95.9239 120.299C96.0079 120.245 96.0799 120.197 96.1399 120.155C96.1999 120.113 96.2539 120.092 96.3019 120.092C96.3619 120.092 96.4069 120.107 96.4369 120.137C96.4729 120.161 96.5089 120.203 96.5449 120.263L97.0669 121.109C96.7789 121.373 96.4369 121.577 96.0409 121.721C95.6449 121.865 95.2339 121.937 94.8079 121.937ZM100.123 114.404C100.417 113.804 100.771 113.333 101.185 112.991C101.599 112.649 102.097 112.478 102.679 112.478C102.877 112.478 103.063 112.502 103.237 112.55C103.417 112.592 103.573 112.658 103.705 112.748L103.588 114.071C103.546 114.233 103.447 114.314 103.291 114.314C103.207 114.314 103.081 114.299 102.913 114.269C102.745 114.233 102.565 114.215 102.373 114.215C102.091 114.215 101.842 114.257 101.626 114.341C101.41 114.419 101.215 114.539 101.041 114.701C100.873 114.857 100.723 115.052 100.591 115.286C100.459 115.514 100.336 115.775 100.222 116.069V121.793H98.4674V112.649H99.4754C99.6674 112.649 99.7964 112.685 99.8624 112.757C99.9344 112.823 99.9854 112.943 100.015 113.117L100.123 114.404ZM109.833 117.734C109.119 117.758 108.513 117.815 108.015 117.905C107.517 117.989 107.112 118.103 106.8 118.247C106.488 118.391 106.263 118.562 106.125 118.76C105.987 118.952 105.918 119.168 105.918 119.408C105.918 119.636 105.954 119.834 106.026 120.002C106.104 120.164 106.206 120.299 106.332 120.407C106.464 120.509 106.617 120.584 106.791 120.632C106.965 120.68 107.154 120.704 107.358 120.704C107.628 120.704 107.874 120.677 108.096 120.623C108.324 120.569 108.537 120.494 108.735 120.398C108.933 120.296 109.122 120.173 109.302 120.029C109.482 119.885 109.659 119.72 109.833 119.534V117.734ZM104.685 113.927C105.195 113.441 105.747 113.078 106.341 112.838C106.941 112.598 107.598 112.478 108.312 112.478C108.834 112.478 109.296 112.565 109.698 112.739C110.1 112.907 110.439 113.144 110.715 113.45C110.991 113.756 111.198 114.122 111.336 114.548C111.48 114.974 111.552 115.445 111.552 115.961V121.793H110.769C110.595 121.793 110.463 121.766 110.373 121.712C110.283 121.652 110.211 121.544 110.157 121.388L109.968 120.587C109.734 120.803 109.503 120.995 109.275 121.163C109.047 121.325 108.807 121.466 108.555 121.586C108.309 121.7 108.045 121.787 107.763 121.847C107.481 121.907 107.169 121.937 106.827 121.937C106.467 121.937 106.128 121.889 105.81 121.793C105.498 121.691 105.225 121.538 104.991 121.334C104.757 121.13 104.571 120.875 104.433 120.569C104.301 120.263 104.235 119.906 104.235 119.498C104.235 119.138 104.331 118.793 104.523 118.463C104.721 118.127 105.039 117.827 105.477 117.563C105.921 117.299 106.497 117.083 107.205 116.915C107.919 116.747 108.795 116.651 109.833 116.627V115.961C109.833 115.271 109.686 114.755 109.392 114.413C109.098 114.071 108.666 113.9 108.096 113.9C107.712 113.9 107.388 113.948 107.124 114.044C106.866 114.14 106.641 114.248 106.449 114.368C106.263 114.482 106.098 114.587 105.954 114.683C105.816 114.779 105.672 114.827 105.522 114.827C105.402 114.827 105.297 114.794 105.207 114.728C105.123 114.662 105.054 114.584 105 114.494L104.685 113.927ZM115.656 119.543C115.944 119.921 116.253 120.185 116.583 120.335C116.919 120.485 117.294 120.56 117.708 120.56C118.512 120.56 119.133 120.272 119.571 119.696C120.015 119.114 120.237 118.268 120.237 117.158C120.237 116.576 120.186 116.081 120.084 115.673C119.988 115.259 119.844 114.923 119.652 114.665C119.466 114.401 119.235 114.209 118.959 114.089C118.683 113.963 118.371 113.9 118.023 113.9C117.513 113.9 117.069 114.014 116.691 114.242C116.319 114.47 115.974 114.794 115.656 115.214V119.543ZM115.566 114.017C115.758 113.789 115.962 113.582 116.178 113.396C116.4 113.204 116.637 113.042 116.889 112.91C117.141 112.772 117.408 112.667 117.69 112.595C117.978 112.517 118.284 112.478 118.608 112.478C119.13 112.478 119.601 112.58 120.021 112.784C120.447 112.988 120.81 113.288 121.11 113.684C121.41 114.08 121.641 114.569 121.803 115.151C121.971 115.733 122.055 116.402 122.055 117.158C122.055 117.836 121.962 118.466 121.776 119.048C121.596 119.624 121.335 120.125 120.993 120.551C120.657 120.977 120.243 121.313 119.751 121.559C119.265 121.799 118.716 121.919 118.104 121.919C117.558 121.919 117.09 121.829 116.7 121.649C116.31 121.469 115.962 121.217 115.656 120.893V124.862H113.901V112.649H114.954C115.2 112.649 115.353 112.766 115.413 113L115.566 114.017Z" fill="#343434"/>
</g>
<defs>
<filter id="filter0_d_191_949" x="0" y="0.792969" width="168" height="168" filterUnits="userSpaceOnUse" color-interpolation-filters="sRGB">
<feFlood flood-opacity="0" result="BackgroundImageFix"/>
<feColorMatrix in="SourceAlpha" type="matrix" values="0 0 0 0 0 0 0 0 0 0 0 0 0 0 0 0 0 0 127 0" result="hardAlpha"/>
<feOffset dy="4"/>
<feGaussianBlur stdDeviation="2"/>
<feComposite in2="hardAlpha" operator="out"/>
<feColorMatrix type="matrix" values="0 0 0 0 0 0 0 0 0 0 0 0 0 0 0 0 0 0 0.25 0"/>
<feBlend mode="normal" in2="BackgroundImageFix" result="effect1_dropShadow_191_949"/>
<feBlend mode="normal" in="SourceGraphic" in2="effect1_dropShadow_191_949" result="shape"/>
</filter>
<clipPath id="clip0_191_949">
<rect width="75.2941" height="60" fill="white" transform="translate(46.353 35.793)"/>
</clipPath>
</defs>
</svg>
