<svg width="350" height="330" viewBox="0 0 350 206" fill="none" xmlns="http://www.w3.org/2000/svg">
<path d="M314.409 139.88H230.061C228.553 139.88 227.325 138.653 227.325 137.145V14.2836C227.325 12.7753 228.553 11.548 230.061 11.548H314.409C315.917 11.548 317.145 12.7748 317.145 14.2836V137.145C317.145 138.653 315.917 139.88 314.409 139.88ZM230.061 11.6646C228.617 11.6646 227.442 12.8397 227.442 14.2836V137.145C227.442 138.589 228.617 139.764 230.061 139.764H314.409C315.854 139.764 317.028 138.589 317.028 137.145V14.2836C317.028 12.8397 315.853 11.6646 314.409 11.6646H230.061Z" fill="#E0E0E0"/>
<path d="M217.143 139.88H132.794C131.286 139.88 130.059 138.653 130.059 137.145V14.2835C130.059 12.7752 131.285 11.5479 132.794 11.5479H217.143C218.651 11.5479 219.878 12.7747 219.878 14.2835V137.145C219.878 138.653 218.651 139.88 217.143 139.88ZM132.794 11.6645C131.35 11.6645 130.175 12.8396 130.175 14.2835V137.145C130.175 138.589 131.35 139.764 132.794 139.764H217.143C218.587 139.764 219.762 138.588 219.762 137.145V14.2835C219.762 12.8396 218.587 11.6645 217.143 11.6645H132.794Z" fill="#E0E0E0"/>
<path d="M119.939 139.88H35.5908C34.0826 139.88 32.8552 138.653 32.8552 137.145V14.2833C32.8552 12.7751 34.0821 11.5477 35.5908 11.5477H119.939C121.447 11.5477 122.675 12.7746 122.675 14.2833V137.145C122.675 138.653 121.447 139.88 119.939 139.88ZM35.5908 11.6644C34.147 11.6644 32.9719 12.8395 32.9719 14.2833V137.145C32.9719 138.589 34.147 139.763 35.5908 139.763H119.939C121.383 139.763 122.558 138.588 122.558 137.145V14.2833C122.558 12.8395 121.383 11.6644 119.939 11.6644H35.5908Z" fill="#E0E0E0"/>
<path d="M350 168.379H0V168.435H350V168.379Z" fill="#E0E0E0"/>
<path d="M331.032 182.089H305.025V182.285H331.032V182.089Z" fill="#EBEBEB"/>
<path d="M237.846 184.219H231.021V184.415H237.846V184.219Z" fill="#EBEBEB"/>
<path d="M52.8825 176.116H18.9675V176.313H52.8825V176.116Z" fill="#EBEBEB"/>
<path d="M64.8454 176.116H59.873V176.313H64.8454V176.116Z" fill="#EBEBEB"/>
<path d="M154.56 179.431H81.0068V179.628H154.56V179.431Z" fill="#EBEBEB"/>
<path d="M222.36 28.2972C221.332 29.8619 220.641 31.5807 220.273 33.353L217.45 33.619V39.087L220.274 39.353C220.641 41.1254 221.332 42.8441 222.36 44.4093L220.556 46.5872L224.423 50.4536L226.601 48.6504C228.166 49.678 229.885 50.3691 231.657 50.7368L231.923 53.5606H237.391L237.657 50.7373C239.43 50.3691 241.149 49.678 242.714 48.6508L244.892 50.454L248.758 46.5877L246.955 44.4093C247.982 42.8441 248.673 41.1258 249.041 39.353L251.865 39.087V33.619L249.042 33.353C248.673 31.5807 247.982 29.8619 246.955 28.2972L248.758 26.1188L244.892 22.2525L242.714 24.0557C241.148 23.0281 239.43 22.3369 237.657 21.9687L237.391 19.1454H231.923L231.657 21.9692C229.885 22.3374 228.166 23.0281 226.602 24.0557L224.423 22.252L220.557 26.1188L222.36 28.2972H222.36ZM239.891 31.1191C242.782 34.0096 242.782 38.6968 239.891 41.5874C237 44.4784 232.313 44.4779 229.423 41.5874C226.532 38.6968 226.532 34.0101 229.423 31.1191C232.314 28.2286 237 28.2286 239.891 31.1191Z" fill="#E0E0E0"/>
<path d="M41.3364 112.039C40.1151 113.898 39.2938 115.941 38.856 118.048L35.5002 118.364V124.864L38.8565 125.18C39.2933 127.286 40.1151 129.329 41.3364 131.189L39.1925 133.778L43.7882 138.374L46.3773 136.231C48.2374 137.452 50.28 138.273 52.387 138.711L52.703 142.067H59.2022L59.5186 138.711C61.6256 138.273 63.6687 137.452 65.5288 136.231L68.1179 138.374L72.7136 133.778L70.5702 131.189C71.791 129.329 72.6128 127.287 73.0501 125.18L76.4054 124.864V118.364L73.0501 118.048C72.6128 115.941 71.791 113.898 70.5698 112.039L72.7132 109.45L68.1174 104.854L65.5284 106.997C63.6682 105.776 61.6252 104.954 59.5186 104.517L59.2027 101.161H52.7034L52.3875 104.517C50.2805 104.955 48.2379 105.776 46.3782 106.997L43.7892 104.854L39.1934 109.45L41.3373 112.039H41.3364ZM62.1744 115.393C65.61 118.829 65.61 124.4 62.1744 127.835C58.7384 131.271 53.1673 131.271 49.7317 127.835C46.2956 124.399 46.2961 118.829 49.7317 115.393C53.1678 111.957 58.7384 111.957 62.1744 115.393Z" fill="#E0E0E0"/>
<path d="M91.0475 21.8186C90.0199 23.3833 89.3292 25.102 88.961 26.8749L86.1377 27.1409V32.6088L88.9615 32.8748C89.3292 34.6472 90.0204 36.366 91.048 37.9312L89.2443 40.1091L93.1106 43.9754L95.2886 42.1722C96.8538 43.1998 98.572 43.891 100.345 44.2587L100.611 47.0825H106.079L106.345 44.2592C108.118 43.891 109.836 43.1998 111.401 42.1727L113.579 43.9759L117.445 40.1096L115.642 37.9312C116.669 36.366 117.361 34.6477 117.729 32.8748L120.552 32.6088V27.1409L117.729 26.8749C117.361 25.1025 116.67 23.3838 115.642 21.819L117.445 19.6406L113.579 15.7743L111.401 17.5775C109.836 16.5499 108.117 15.8588 106.345 15.4906L106.079 12.6672H100.611L100.345 15.491C98.5725 15.8592 96.8538 16.5499 95.289 17.5775L93.1106 15.7738L89.2443 19.6406L91.048 21.819L91.0475 21.8186ZM108.579 24.6405C111.47 27.531 111.47 32.2182 108.579 35.1088C105.688 37.9998 101.001 37.9993 98.111 35.1088C95.22 32.2182 95.2204 27.5315 98.111 24.6405C101.002 21.75 105.688 21.75 108.579 24.6405Z" fill="#E0E0E0"/>
<path d="M204.139 10.9509C203.651 11.6938 203.323 12.5105 203.148 13.3523L201.806 13.4788V16.0758L203.148 16.2023C203.322 17.0441 203.651 17.8603 204.139 18.6037L203.282 19.6383L205.118 21.4747L206.153 20.6183C206.896 21.1065 207.713 21.4345 208.554 21.6091L208.681 22.9503H211.278L211.404 21.6091C212.246 21.4341 213.063 21.106 213.806 20.6179L214.84 21.4742L216.677 19.6379L215.82 18.6033C216.308 17.8599 216.637 17.0437 216.811 16.2018L218.152 16.0753V13.4783L216.811 13.3519C216.636 12.51 216.308 11.6938 215.82 10.9504L216.676 9.91579L214.84 8.07946L213.805 8.93579C213.062 8.44766 212.246 8.11913 211.404 7.94459L211.277 6.60339H208.68L208.554 7.94459C207.712 8.11959 206.896 8.44766 206.152 8.93579L205.118 8.07899L203.282 9.91579L204.138 10.9504L204.139 10.9509ZM212.466 12.2911C213.839 13.6641 213.839 15.8905 212.466 17.2635C211.093 18.6364 208.867 18.6364 207.494 17.2635C206.121 15.8905 206.121 13.6645 207.494 12.2911C208.867 10.9182 211.093 10.9182 212.466 12.2911Z" fill="#E0E0E0"/>
<path d="M118.693 5.09319C118.205 5.83659 117.877 6.65279 117.702 7.49466L116.361 7.62113V10.2181L117.702 10.3446C117.877 11.1865 118.205 12.0027 118.693 12.7461L117.836 13.7807L119.673 15.617L120.707 14.7607C121.451 15.2488 122.267 15.5769 123.109 15.7514L123.235 17.0926H125.832L125.959 15.7514C126.801 15.5764 127.617 15.2483 128.361 14.7602L129.395 15.6165L131.232 13.7802L130.375 12.7456C130.863 12.0022 131.192 11.186 131.366 10.3441L132.707 10.2177V7.62066L131.367 7.49419C131.192 6.65233 130.863 5.83613 130.375 5.09273L131.232 4.05813L129.395 2.22179L128.361 3.07813C127.617 2.58999 126.801 2.26146 125.959 2.08693L125.833 0.745728H123.236L123.109 2.08693C122.267 2.26193 121.451 2.58999 120.708 3.07813L119.673 2.22133L117.837 4.05813L118.694 5.09273L118.693 5.09319ZM127.02 6.43346C128.393 7.80639 128.393 10.0329 127.02 11.4058C125.648 12.7787 123.421 12.7787 122.048 11.4058C120.675 10.0329 120.675 7.80686 122.048 6.43346C123.421 5.06053 125.647 5.06053 127.02 6.43346Z" fill="#E0E0E0"/>
<path d="M34.257 149.998C33.7688 150.741 33.4408 151.557 33.2658 152.399L31.9246 152.525V155.122L33.2658 155.249C33.4403 156.091 33.7688 156.907 34.257 157.65L33.4002 158.685L35.237 160.521L36.2716 159.665C37.015 160.153 37.8312 160.481 38.673 160.656L38.7995 161.997H41.3965L41.523 160.656C42.3648 160.481 43.1815 160.153 43.9244 159.665L44.959 160.521L46.7958 158.685L45.9395 157.65C46.4272 156.907 46.7557 156.091 46.9302 155.249L48.2714 155.122V152.525L46.9307 152.399C46.7557 151.557 46.4276 150.741 45.9395 149.998L46.7958 148.963L44.9595 147.127L43.9249 147.983C43.1815 147.495 42.3653 147.166 41.5234 146.992L41.397 145.651H38.7995L38.673 146.992C37.8312 147.167 37.015 147.495 36.2716 147.983L35.237 147.126L33.4002 148.963L34.257 149.998ZM42.5842 151.338C43.9571 152.711 43.9571 154.937 42.5842 156.31C41.2112 157.683 38.9848 157.683 37.6118 156.31C36.2389 154.937 36.2389 152.711 37.6118 151.338C38.9848 149.965 41.2112 149.965 42.5842 151.338Z" fill="#E0E0E0"/>
<path d="M309.044 60.6895C308.556 61.4324 308.228 62.2491 308.053 63.091L306.712 63.2174V65.8144L308.053 65.9409C308.228 66.7828 308.556 67.599 309.044 68.3424L308.188 69.377L310.024 71.2133L311.058 70.357C311.802 70.8451 312.618 71.1732 313.46 71.3477L313.586 72.6889H316.183L316.31 71.3477C317.152 71.1727 317.968 70.8446 318.711 70.3565L319.746 71.2128L321.582 69.3765L320.726 68.3419C321.214 67.5985 321.542 66.7823 321.717 65.9404L323.057 65.814V63.217L321.717 63.0905C321.542 62.2486 321.214 61.4324 320.725 60.689L321.582 59.6544L319.745 57.8181L318.711 58.6744C317.967 58.1863 317.151 57.8578 316.309 57.6832L316.183 56.342H313.585L313.459 57.6832C312.617 57.8582 311.801 58.1863 311.058 58.6744L310.023 57.8176L308.187 59.6544L309.043 60.689L309.044 60.6895ZM317.372 62.0298C318.744 63.4027 318.744 65.6292 317.372 67.0021C315.998 68.375 313.772 68.375 312.399 67.0021C311.026 65.6292 311.026 63.4032 312.399 62.0298C313.772 60.6568 315.998 60.6568 317.372 62.0298Z" fill="#E0E0E0"/>
<path d="M30.0836 54.0593C29.5955 54.8022 29.2674 55.6189 29.0924 56.4608L27.7512 56.5872V59.1842L29.0924 59.3107C29.267 60.1525 29.5955 60.9687 30.0836 61.7121L29.2268 62.7467L31.0632 64.5831L32.0978 63.7267C32.8412 64.2149 33.6574 64.5429 34.4992 64.7179L34.6257 66.0591H37.2227L37.3492 64.7179C38.191 64.5429 39.0077 64.2149 39.7506 63.7267L40.7852 64.5831L42.6216 62.7467L41.7652 61.7121C42.2534 60.9687 42.5814 60.1525 42.756 59.3107L44.0972 59.1842V56.5872L42.7564 56.4608C42.5814 55.6189 42.2534 54.8027 41.7652 54.0593L42.6216 53.0247L40.7852 51.1884L39.7506 52.0447C39.0072 51.5565 38.191 51.228 37.3492 51.0535L37.2227 49.7123H34.6252L34.4988 51.0535C33.6569 51.2285 32.8407 51.5565 32.0973 52.0447L31.0627 51.1879L29.2264 53.0247L30.0836 54.0593ZM38.4108 55.3996C39.7838 56.7725 39.7838 58.9989 38.4108 60.3719C37.0374 61.7448 34.8114 61.7448 33.4385 60.3719C32.0656 58.9989 32.0656 56.7725 33.4385 55.3996C34.8114 54.0266 37.0379 54.0266 38.4108 55.3996Z" fill="#E0E0E0"/>
<path d="M306.608 184.583C306.601 184.359 305.846 162.09 302.224 158.568C298.701 155.143 294.657 158.44 294.488 158.582L294.125 158.147C294.17 158.108 298.734 154.383 302.62 158.161C306.405 161.842 307.145 183.639 307.175 184.566L306.608 184.583Z" fill="#E0E0E0"/>
<path d="M306.919 188.961C306.893 188.695 304.444 162.226 314.11 151.133L314.537 151.505C305.032 162.415 307.458 188.642 307.483 188.905L306.919 188.961Z" fill="#E0E0E0"/>
<path d="M306.562 186.16L305.996 186.122C306.016 185.822 307.888 156.032 300.797 149.511L301.181 149.093C308.47 155.797 306.643 184.923 306.562 186.16V186.16Z" fill="#E0E0E0"/>
<path d="M307.485 186.143L306.918 186.139C306.925 185.319 307.152 166.017 312.634 162.875C313.853 162.176 315.047 162.06 316.182 162.529C319.497 163.901 321.14 169.801 321.208 170.051L320.662 170.2C320.646 170.141 319.024 164.317 315.965 163.053C315 162.655 313.975 162.76 312.916 163.367C307.714 166.348 307.487 185.945 307.485 186.143Z" fill="#E0E0E0"/>
<path d="M305.349 186.157L304.784 186.125C304.792 185.973 305.611 170.872 301.535 165.552C300.548 164.263 299.476 163.648 298.344 163.728C295.673 163.914 293.434 167.822 293.412 167.861L292.918 167.582C293.015 167.41 295.329 163.37 298.303 163.162C299.634 163.067 300.874 163.756 301.985 165.207C306.188 170.694 305.385 185.528 305.349 186.156L305.349 186.157Z" fill="#E0E0E0"/>
<path d="M306.243 188.212C306.132 186.747 303.579 152.267 308.071 146.191L308.526 146.527C304.158 152.435 306.781 187.812 306.808 188.168L306.243 188.212Z" fill="#E0E0E0"/>
<path d="M317.403 166.024C317.403 166.024 314.708 167.018 315.51 169.363C316.311 171.709 324.833 175.569 324.833 175.569C324.833 175.569 328.402 172.297 325.124 166.977C321.847 161.657 317.476 164.345 317.403 166.024Z" fill="#EBEBEB"/>
<path d="M305.688 161.559C305.688 161.559 308.557 161.439 308.721 163.912C308.884 166.385 302.504 173.228 302.504 173.228C302.504 173.228 297.951 171.582 298.929 165.41C299.907 159.238 304.975 160.038 305.688 161.559Z" fill="#EBEBEB"/>
<path d="M303.258 149.72C303.258 149.72 305.172 149.515 305.018 148.349C304.864 147.184 297.58 144.184 293.283 149.034C293.283 149.034 296.034 153.761 300.012 153.823C303.99 153.884 303.259 149.72 303.259 149.72L303.258 149.72Z" fill="#EBEBEB"/>
<path d="M306.824 146.89C306.824 146.89 305.091 147.728 304.606 146.657C304.12 145.587 308.715 139.189 314.927 141.033C314.927 141.033 315.092 146.499 311.749 148.656C308.406 150.812 306.824 146.891 306.824 146.891V146.89Z" fill="#EBEBEB"/>
<path d="M297.765 165.081C297.765 165.081 299.085 164.015 297.661 163.495C296.236 162.974 289.243 163.122 289.171 170.049C289.171 170.049 297.314 171.402 298.322 168.764C299.33 166.125 297.765 165.081 297.765 165.081Z" fill="#EBEBEB"/>
<path d="M314.371 149.546C314.371 149.546 313.051 148.48 314.476 147.96C315.901 147.439 322.893 147.587 322.966 154.514C322.966 154.514 314.822 155.867 313.814 153.228C312.806 150.59 314.371 149.546 314.371 149.546Z" fill="#EBEBEB"/>
<path d="M310.066 155.126C310.066 155.126 309.95 153.83 310.996 154.338C312.042 154.846 315.687 158.778 311.909 162.51C311.909 162.51 306.823 158.743 307.739 156.781C308.656 154.819 310.066 155.126 310.066 155.126Z" fill="#EBEBEB"/>
<path d="M296.584 156.973C296.584 156.973 297.374 155.938 296.218 155.811C295.062 155.682 289.881 157.065 291.087 162.237C291.087 162.237 297.399 161.762 297.669 159.614C297.94 157.466 296.584 156.973 296.584 156.973Z" fill="#EBEBEB"/>
<path d="M312.79 196.135H300.06L296.674 180.516H315.855L312.79 196.135Z" fill="#F0F0F0"/>
<path d="M316.96 180.29H295.519V184.781H316.96V180.29Z" fill="#E6E6E6"/>
<path d="M276.178 199.962C276.178 203.093 232.536 205.631 178.703 205.631C124.869 205.631 81.2275 203.093 81.2275 199.962C81.2275 196.831 124.868 194.292 178.703 194.292C232.537 194.292 276.178 196.831 276.178 199.962Z" fill="#F5F5F5"/>
<path d="M50.6702 46.118L44.2092 35.4439L52.0679 23.4375L64.7888 25.3214L77.1974 45.9752L74.4474 50.0282L50.6702 46.118Z" fill="#E6E6E6"/>
<path d="M39.8491 32.51L47.7087 20.4971L52.0987 23.4791L44.24 35.4855L39.8491 32.51Z" fill="#FFAC2F"/>
<path d="M55.4867 33.4723L54.9048 34.3295L75.5995 48.3793L76.1814 47.5222L55.4867 33.4723Z" fill="#646464"/>
<path d="M55.3473 36.8118C54.2656 36.0759 53.9851 34.6026 54.721 33.5209C55.457 32.4392 56.9302 32.1587 58.012 32.8946C59.0937 33.6306 59.3742 35.1038 58.6382 36.1856L58.6359 36.1893C57.899 37.2682 56.4276 37.5468 55.3473 36.8118Z" fill="#646464"/>
<path d="M95.8518 54.4912L97.4053 57.0807C97.5957 57.4107 97.9518 57.6095 98.3326 57.5987C99.1315 57.539 99.9337 57.5511 100.73 57.6351C101.518 57.8008 101.611 54.5276 101.611 54.5276L95.8518 54.4912Z" fill="#FDAA6D"/>
<path d="M94.6814 54.528C95.3072 53.6269 96.3343 53.0888 97.4315 53.0884H99.2958L101.611 54.528H94.6814Z" fill="#FDAA6D"/>
<path d="M252.739 32.0703H98.1789C93.0954 32.0703 88.9744 36.1913 88.9744 41.2748V147.867C88.9744 152.951 93.0954 157.072 98.1789 157.072H252.739C257.823 157.072 261.944 152.951 261.944 147.867V41.2748C261.944 36.1913 257.823 32.0703 252.739 32.0703Z" fill="#646464"/>
<path opacity="0.3" d="M252.739 32.0703H98.1789C93.0954 32.0703 88.9744 36.1913 88.9744 41.2748V147.867C88.9744 152.951 93.0954 157.072 98.1789 157.072H252.739C257.823 157.072 261.944 152.951 261.944 147.867V41.2748C261.944 36.1913 257.823 32.0703 252.739 32.0703Z" fill="white"/>
<path d="M249.503 38.9271H101.345C98.3371 38.9271 95.8984 41.3658 95.8984 44.3741V143.01C95.8984 146.018 98.3371 148.457 101.345 148.457H249.503C252.511 148.457 254.95 146.018 254.95 143.01V44.3741C254.95 41.3658 252.511 38.9271 249.503 38.9271Z" fill="#FFAC2F"/>
<path opacity="0.7" d="M101.416 38.9264H249.573C252.579 38.9264 255.02 41.3671 255.02 44.3738V143.009C255.02 146.016 252.58 148.456 249.573 148.456H101.416C98.4097 148.456 95.969 146.016 95.969 143.009V44.3733C95.969 41.3671 98.4097 38.9264 101.416 38.9264Z" fill="white"/>
<path d="M99.2995 38.9271H250.149C252.799 38.9271 254.95 41.0785 254.95 43.7282V47.1559H95.8984V42.3282C95.8984 40.4513 97.4226 38.9271 99.2995 38.9271Z" fill="#FFAC2F"/>
<path d="M248.825 43.0417C248.825 44.0072 248.042 44.7903 247.076 44.7903C246.11 44.7903 245.328 44.0077 245.328 43.0417C245.328 42.0757 246.11 41.2931 247.076 41.2931C248.042 41.2931 248.825 42.0757 248.825 43.0417Z" fill="white"/>
<path d="M243.856 43.0417C243.856 44.0072 243.073 44.7903 242.107 44.7903C241.142 44.7903 240.359 44.0077 240.359 43.0417C240.359 42.0757 241.141 41.2931 242.107 41.2931C243.073 41.2931 243.856 42.0757 243.856 43.0417Z" fill="white"/>
<path d="M237.138 44.7903C238.104 44.7903 238.887 44.0074 238.887 43.0417C238.887 42.076 238.104 41.2931 237.138 41.2931C236.173 41.2931 235.39 42.076 235.39 43.0417C235.39 44.0074 236.173 44.7903 237.138 44.7903Z" fill="white"/>
<path d="M137.418 35.4957H123.698C123.569 35.4957 123.464 35.3912 123.464 35.2624C123.464 35.1336 123.569 35.0291 123.698 35.0291H137.418C137.547 35.0291 137.651 35.1336 137.651 35.2624C137.651 35.3912 137.547 35.4957 137.418 35.4957Z" fill="#FFAC2F"/>
<path d="M144.055 35.4958H141.197C141.069 35.4958 140.964 35.3913 140.964 35.2625C140.964 35.1337 141.069 35.0292 141.197 35.0292H144.055C144.184 35.0292 144.288 35.1337 144.288 35.2625C144.288 35.3913 144.184 35.4958 144.055 35.4958Z" fill="#FFAC2F"/>
<path d="M158.655 156.631L154.741 190.499H145.075C142.978 190.499 141.277 192.812 141.277 195.666V196.037H218.771C218.771 192.646 216.736 189.909 214.244 189.951C210.492 190.013 205.792 190.053 205.933 189.86C206.168 189.54 200.766 156.206 201.079 156.632C201.392 157.058 158.654 156.632 158.654 156.632L158.655 156.631Z" fill="#646464"/>
<path opacity="0.3" d="M158.655 156.631L154.741 190.499H145.075C142.978 190.499 141.277 192.812 141.277 195.666V196.037H218.771C218.771 192.646 216.736 189.909 214.244 189.951C210.492 190.013 205.792 190.053 205.933 189.86C206.168 189.54 200.766 156.206 201.079 156.632C201.392 157.058 158.654 156.632 158.654 156.632L158.655 156.631Z" fill="white"/>
<path opacity="0.3" d="M158.574 157.333H201.131L201.849 162.336H157.995L158.574 157.333Z" fill="black"/>
<path d="M139.536 102.85C139.536 106.621 136.352 108.816 130.386 108.816H118.207V87.178H129.768C135.734 87.178 138.516 89.558 138.516 92.8349C138.516 94.8439 137.496 96.5132 135.518 97.5025C138.052 98.4298 139.536 100.284 139.536 102.85L139.536 102.85ZM125.378 92.2782V95.493H128.778C130.417 95.493 131.158 94.9368 131.158 93.8858C131.158 92.8349 130.417 92.2786 128.778 92.2786H125.378V92.2782ZM132.179 102.015C132.179 100.902 131.375 100.315 129.768 100.315H125.378V103.715H129.768C131.375 103.715 132.179 103.128 132.179 102.015Z" fill="#FFAC2F"/>
<path d="M151.377 103.375H149.399V108.816H142.104V87.1783H152.521C158.549 87.1783 162.382 90.3311 162.382 95.3389C162.382 98.4609 160.898 100.81 158.301 102.139L162.845 108.816H155.056L151.377 103.375H151.377ZM152.057 92.804H149.398V97.8734H152.057C154.066 97.8734 155.024 96.9149 155.024 95.3385C155.024 93.7621 154.066 92.8035 152.057 92.8035V92.804Z" fill="#FFAC2F"/>
<path d="M179.879 105.045H171.657L170.204 108.816H162.785L172.244 87.1783H179.416L188.874 108.816H181.332L179.879 105.045H179.879ZM177.869 99.7895L175.768 94.3491L173.666 99.7895H177.869Z" fill="#FFAC2F"/>
<path d="M211.38 87.1776V108.816H205.383L197.16 98.9857V108.816H190.051V87.1776H196.047L204.27 97.0075V87.1776H211.379H211.38Z" fill="#FFAC2F"/>
<path d="M214.906 87.1776H225.57C232.804 87.1776 237.78 91.2889 237.78 97.9963C237.78 104.704 232.804 108.816 225.57 108.816H214.906V87.1776ZM225.261 103.128C228.321 103.128 230.423 101.304 230.423 97.9963C230.423 94.6886 228.321 92.8649 225.261 92.8649H222.2V103.127H225.261V103.128Z" fill="#FFAC2F"/>
<path d="M167.625 104.783V104.984C167.622 105.08 167.642 105.17 167.686 105.253C167.714 105.34 167.762 105.415 167.83 105.479C167.894 105.547 167.969 105.595 168.056 105.623C168.139 105.667 168.229 105.687 168.325 105.684L168.512 105.658C168.63 105.625 168.733 105.565 168.821 105.478L168.93 105.336C168.994 105.227 169.025 105.11 169.026 104.983V104.783C169.03 104.686 169.01 104.597 168.966 104.513C168.938 104.426 168.889 104.351 168.821 104.288C168.758 104.22 168.682 104.171 168.596 104.143C168.512 104.099 168.423 104.079 168.326 104.083L168.14 104.108C168.021 104.141 167.918 104.201 167.831 104.288L167.721 104.43C167.658 104.539 167.626 104.657 167.625 104.783Z" fill="#FFAC2F"/>
<path d="M240.346 114.699H116.34V81.3097H240.346V114.699ZM116.806 114.232H239.879V81.7764H116.806V114.232Z" fill="#646464"/>
<path d="M118.047 79.5916H115.099V82.539H118.047V79.5916Z" fill="#646464"/>
<path d="M117.835 113.423H114.887V116.371H117.835V113.423Z" fill="#646464"/>
<path d="M180.591 80.0693H177.644V83.0168H180.591V80.0693Z" fill="#646464"/>
<path d="M180.176 112.992H177.229V115.939H180.176V112.992Z" fill="#646464"/>
<path d="M241.586 80.0693H238.639V83.0168H241.586V80.0693Z" fill="#646464"/>
<path d="M241.586 112.992H238.639V115.939H241.586V112.992Z" fill="#646464"/>
<path d="M338.049 110.279L315.989 88.7103L253.644 152.478L275.704 174.046L338.049 110.279Z" fill="#FFAC2F"/>
<path opacity="0.1" d="M338.049 110.279L315.989 88.7103L253.644 152.478L275.704 174.046L338.049 110.279Z" fill="white"/>
<path opacity="0.5" d="M338.049 110.279L315.989 88.7103L253.644 152.478L275.704 174.046L338.049 110.279Z" fill="white"/>
<path d="M333.882 110.248L316.114 92.8759L298.742 110.644L316.51 128.016L333.882 110.248Z" fill="#646464"/>
<path opacity="0.6" d="M333.882 110.248L316.114 92.8759L298.742 110.644L316.51 128.016L333.882 110.248Z" fill="white"/>
<path d="M314.813 129.75L297.045 112.379L279.673 130.147L297.441 147.518L314.813 129.75Z" fill="#646464"/>
<path opacity="0.4" d="M314.813 129.75L297.045 112.379L279.673 130.147L297.441 147.518L314.813 129.75Z" fill="white"/>
<path d="M295.745 149.253L277.978 131.882L260.606 149.65L278.374 167.021L295.745 149.253Z" fill="#646464"/>
<path opacity="0.2" d="M295.745 149.253L277.978 131.882L260.606 149.65L278.374 167.021L295.745 149.253Z" fill="white"/>
<path d="M312.983 81.3661L284.422 69.7001L246.834 161.722L275.396 173.388L312.983 81.3661Z" fill="#FFAC2F"/>
<path opacity="0.3" d="M312.983 81.3661L284.422 69.7001L246.834 161.722L275.396 173.388L312.983 81.3661Z" fill="white"/>
<path d="M309.115 82.8955L286.111 73.4993L276.715 96.5033L299.719 105.9L309.115 82.8955Z" fill="#FFAC2F"/>
<path opacity="0.6" d="M309.115 82.8955L286.111 73.4993L276.715 96.5033L299.719 105.9L309.115 82.8955Z" fill="white"/>
<path d="M298.802 108.145L275.798 98.7493L266.402 121.753L289.406 131.15L298.802 108.145Z" fill="#FFAC2F"/>
<path opacity="0.4" d="M298.802 108.145L275.798 98.7493L266.402 121.753L289.406 131.15L298.802 108.145Z" fill="white"/>
<path d="M288.488 133.396L265.484 124L256.088 147.004L279.092 156.4L288.488 133.396Z" fill="#FFAC2F"/>
<path d="M277.012 67.6403H246.16V174.037H277.012V67.6403Z" fill="#FFAC2F"/>
<path opacity="0.5" d="M277.012 67.6403H246.16V174.037H277.012V67.6403Z" fill="white"/>
<path d="M274.01 71.3359H249.161V96.185H274.01V71.3359Z" fill="#FFAC2F"/>
<path opacity="0.6" d="M274.01 71.3359H249.161V96.185H274.01V71.3359Z" fill="black"/>
<path d="M274.01 98.6121H249.161V123.461H274.01V98.6121Z" fill="#FFAC2F"/>
<path opacity="0.4" d="M274.01 98.6121H249.161V123.461H274.01V98.6121Z" fill="black"/>
<path d="M274.01 125.887H249.161V150.736H274.01V125.887Z" fill="#FFAC2F"/>
<path opacity="0.2" d="M274.01 125.887H249.161V150.736H274.01V125.887Z" fill="black"/>
<path d="M265.637 163.489C266.142 161.251 264.737 159.028 262.499 158.523C260.262 158.018 258.038 159.423 257.533 161.661C257.028 163.899 258.433 166.122 260.671 166.627C262.909 167.132 265.132 165.727 265.637 163.489Z" fill="#646464"/>
<path d="M270.046 19.0365H299.804C300.867 19.0365 301.731 19.8998 301.731 20.9633V50.7208C301.731 51.7843 300.867 52.6477 299.804 52.6477H270.046C268.983 52.6477 268.119 51.7843 268.119 50.7203V20.9629C268.119 19.8993 268.982 19.036 270.046 19.036L270.046 19.0365Z" fill="#FFAC2F"/>
<path opacity="0.4" d="M270.046 19.0365H299.804C300.867 19.0365 301.731 19.8998 301.731 20.9633V50.7208C301.731 51.7843 300.867 52.6477 299.804 52.6477H270.046C268.983 52.6477 268.119 51.7843 268.119 50.7203V20.9629C268.119 19.8993 268.982 19.036 270.046 19.036L270.046 19.0365Z" fill="white"/>
<path d="M296.832 29.8743H272.708C271.714 29.8743 270.909 29.0689 270.909 28.0749C270.909 27.0809 271.714 26.2754 272.708 26.2754H296.832C297.826 26.2754 298.631 27.0809 298.631 28.0749C298.631 29.0689 297.826 29.8743 296.832 29.8743Z" fill="#646464"/>
<path d="M275.75 27.8607C275.75 29.2729 274.606 30.4171 273.194 30.4171C271.782 30.4171 270.638 29.2724 270.638 27.8607C270.638 26.4491 271.782 25.3043 273.194 25.3043C274.606 25.3043 275.75 26.4491 275.75 27.8607Z" fill="#FFAC2F"/>
<path d="M296.832 37.6434H272.708C271.714 37.6434 270.909 36.8379 270.909 35.8439C270.909 34.8499 271.714 34.0444 272.708 34.0444H296.832C297.826 34.0444 298.631 34.8499 298.631 35.8439C298.631 36.8379 297.826 37.6434 296.832 37.6434Z" fill="#646464"/>
<path d="M294.66 35.6301C294.66 37.0423 293.516 38.1865 292.104 38.1865C290.692 38.1865 289.548 37.0418 289.548 35.6301C289.548 34.2185 290.692 33.0737 292.104 33.0737C293.516 33.0737 294.66 34.2185 294.66 35.6301Z" fill="#FFAC2F"/>
<path d="M296.832 45.8135H272.708C271.714 45.8135 270.909 45.0076 270.909 44.0141C270.909 43.0201 271.714 42.2146 272.708 42.2146H296.832C297.826 42.2146 298.631 43.0201 298.631 44.0141C298.631 45.0081 297.826 45.8135 296.832 45.8135Z" fill="#646464"/>
<path d="M284.32 43.7994C284.32 45.2116 283.175 46.3558 281.764 46.3558C280.352 46.3558 279.207 45.2111 279.207 43.7994C279.207 42.3878 280.352 41.243 281.764 41.243C283.175 41.243 284.32 42.3878 284.32 43.7994Z" fill="#FFAC2F"/>
<path opacity="0.2" d="M208.616 31.905H169.01C167.738 31.905 166.707 32.9363 166.707 34.2085V70.9884C166.707 72.2605 167.738 73.2918 169.01 73.2918H208.616C209.888 73.2918 210.919 72.2605 210.919 70.9884V34.2085C210.919 32.9363 209.888 31.905 208.616 31.905Z" fill="black"/>
<path d="M205.389 26.0227H165.783C164.511 26.0227 163.48 27.054 163.48 28.3262V67.858C163.48 69.1301 164.511 70.1614 165.783 70.1614H205.389C206.661 70.1614 207.692 69.1301 207.692 67.858V28.3262C207.692 27.054 206.661 26.0227 205.389 26.0227Z" fill="#FFAC2F"/>
<path opacity="0.5" d="M205.389 26.0227H165.783C164.511 26.0227 163.48 27.054 163.48 28.3262V67.858C163.48 69.1301 164.511 70.1614 165.783 70.1614H205.389C206.661 70.1614 207.692 69.1301 207.692 67.858V28.3262C207.692 27.054 206.661 26.0227 205.389 26.0227Z" fill="white"/>
<path d="M165.64 26.0227H205.572C206.743 26.0227 207.693 26.9733 207.693 28.1442V31.5051H163.481V28.1824C163.481 26.9906 164.448 26.0232 165.64 26.0232L165.64 26.0227Z" fill="#FFAC2F"/>
<path d="M203.123 28.8417C203.123 29.4829 202.604 30.0028 201.962 30.0028C201.321 30.0028 200.801 29.4829 200.801 28.8417C200.801 28.2005 201.321 27.6807 201.962 27.6807C202.604 27.6807 203.123 28.2005 203.123 28.8417Z" fill="white"/>
<path d="M199.823 28.7966C199.823 29.4378 199.303 29.9576 198.662 29.9576C198.021 29.9576 197.501 29.4378 197.501 28.7966C197.501 28.1554 198.021 27.6355 198.662 27.6355C199.303 27.6355 199.823 28.1554 199.823 28.7966Z" fill="white"/>
<path d="M196.523 28.7968C196.523 29.438 196.003 29.9579 195.362 29.9579C194.721 29.9579 194.201 29.438 194.201 28.7968C194.201 28.1556 194.721 27.6357 195.362 27.6357C196.003 27.6357 196.523 28.1556 196.523 28.7968Z" fill="white"/>
<path d="M196.961 38.2676V44.7253H196.327C195.952 43.2357 195.536 42.1652 195.078 41.5142C194.621 40.8632 193.993 40.3442 193.196 39.9569C192.75 39.746 191.97 39.64 190.855 39.64H189.078V58.0449C189.078 59.2652 189.145 60.0273 189.28 60.3325C189.415 60.6377 189.679 60.9042 190.072 61.1328C190.465 61.3615 191.001 61.4758 191.682 61.4758H192.474V62.1268H179.981V61.4758H180.773C181.465 61.4758 182.022 61.3526 182.445 61.1062C182.749 60.9424 182.99 60.6606 183.166 60.262C183.295 59.9802 183.359 59.2414 183.359 58.0449V39.64H181.635C180.028 39.64 178.861 39.9807 178.134 40.6606C177.113 41.6108 176.468 42.966 176.198 44.7253H175.53V38.2676H196.961Z" fill="#646464"/>
<path d="M152.352 19.2598H124.163C122.891 19.2598 121.86 20.2911 121.86 21.5632V49.6976C121.86 50.9698 122.891 52.0011 124.163 52.0011H152.352C153.624 52.0011 154.656 50.9698 154.656 49.6976V21.5632C154.656 20.2911 153.624 19.2598 152.352 19.2598Z" fill="#FFAC2F"/>
<path opacity="0.5" d="M152.352 19.2598H124.163C122.891 19.2598 121.86 20.2911 121.86 21.5632V49.6976C121.86 50.9698 122.891 52.0011 124.163 52.0011H152.352C153.624 52.0011 154.656 50.9698 154.656 49.6976V21.5632C154.656 20.2911 153.624 19.2598 152.352 19.2598Z" fill="white"/>
<path d="M124.019 19.2598H152.534C153.705 19.2598 154.656 20.2104 154.656 21.3812V23.3263H121.86V21.419C121.86 20.2272 122.827 19.2598 124.019 19.2598Z" fill="#FFAC2F"/>
<path d="M151.267 21.3506C151.267 21.8261 150.881 22.2121 150.405 22.2121C149.929 22.2121 149.544 21.8266 149.544 21.3506C149.544 20.8746 149.929 20.4891 150.405 20.4891C150.881 20.4891 151.267 20.8746 151.267 21.3506Z" fill="white"/>
<path d="M148.819 21.3173C148.819 21.7928 148.433 22.1787 147.957 22.1787C147.481 22.1787 147.096 21.7933 147.096 21.3173C147.096 20.8413 147.481 20.4558 147.957 20.4558C148.433 20.4558 148.819 20.8413 148.819 21.3173Z" fill="white"/>
<path d="M146.37 21.3174C146.37 21.7929 145.985 22.1789 145.509 22.1789C145.033 22.1789 144.647 21.7934 144.647 21.3174C144.647 20.8414 145.033 20.4559 145.509 20.4559C145.985 20.4559 146.37 20.8414 146.37 21.3174Z" fill="white"/>
<path d="M147.03 28.3241H129.486V45.8684H147.03V28.3241Z" fill="white"/>
<path d="M146.37 28.796H129.931V45.2358H146.37V28.796Z" fill="#FFAC2F"/>
<path d="M138.258 45.4743C138.258 45.4743 146.66 38.4304 146.66 38.5536V45.4743H138.258Z" fill="white"/>
<path d="M201.051 137.807C201.051 137.807 200.185 139.073 200.117 141.089C200.086 142.025 199.445 153.595 199.445 153.595L190.368 144.048L186.37 145.958C186.37 145.958 194.853 158.1 198.46 159.512C202.067 160.924 204.666 160.271 205.484 159.185C206.303 158.1 207.2 143.375 207.2 143.375L201.05 137.807L201.051 137.807Z" fill="#646464"/>
<path d="M183.467 145.246L181.663 137.556L178.085 138.635C177.296 138.873 176.522 138.223 176.621 137.405L178.955 117.976C179.07 117.012 180.26 116.623 180.923 117.332L194.577 131.938C195.155 132.557 194.883 133.567 194.072 133.812L189.96 135.052L192.871 142.84C193.158 143.606 192.708 144.451 191.912 144.64L185.107 146.258C184.374 146.432 183.64 145.978 183.468 145.245L183.467 145.246Z" fill="#646464"/>
<path d="M209.165 202.221L204.807 203.142L200.149 195.485L204.508 194.564L209.165 202.221Z" fill="#AF6F5B"/>
<path d="M203.929 201.296H208.809C208.972 201.298 209.113 201.411 209.151 201.57L209.951 205.148C210.017 205.468 209.812 205.78 209.493 205.847H209.363C207.786 205.823 206.634 205.727 204.652 205.727C203.432 205.727 199.748 205.853 198.065 205.853C196.383 205.853 196.137 204.189 196.85 204.035C199.941 203.36 202.275 202.424 203.263 201.537C203.447 201.375 203.684 201.289 203.929 201.296L203.929 201.296Z" fill="#646464"/>
<path d="M202.599 201.999C202.328 202.024 202.056 201.952 201.832 201.797C201.68 201.673 201.604 201.48 201.629 201.286C201.628 201.173 201.691 201.069 201.793 201.021C202.232 200.789 203.534 201.585 203.679 201.676C203.713 201.696 203.732 201.734 203.727 201.773C203.72 201.812 203.692 201.843 203.654 201.855C203.308 201.942 202.955 201.99 202.598 202L202.599 201.999ZM201.986 201.194C201.945 201.183 201.902 201.183 201.861 201.194C201.837 201.194 201.798 201.228 201.798 201.305C201.784 201.434 201.832 201.561 201.929 201.648C202.383 201.859 202.902 201.885 203.375 201.72C202.951 201.456 202.48 201.277 201.986 201.194Z" fill="#FFAC2F"/>
<path d="M203.63 201.86H203.587C203.172 201.633 202.372 200.751 202.454 200.326C202.48 200.179 202.608 200.073 202.758 200.076C202.904 200.056 203.051 200.099 203.163 200.196C203.626 200.577 203.732 201.729 203.732 201.787C203.731 201.822 203.713 201.855 203.684 201.874C203.665 201.874 203.647 201.869 203.63 201.86ZM203.037 200.312C202.981 200.263 202.909 200.234 202.835 200.23H202.787C202.652 200.23 202.652 200.297 202.652 200.326C202.599 200.601 203.11 201.257 203.524 201.565C203.494 201.108 203.326 200.671 203.042 200.312H203.038H203.037Z" fill="#FFAC2F"/>
<path d="M221.158 182.558C220.922 182.558 220.676 182.529 220.439 182.51C215.506 182.1 210.338 180.817 206.36 179.617C202.252 178.378 199.411 177.206 199.411 177.206C201.445 180.948 207.309 197.27 207.309 197.27L198.981 199.256C198.981 199.256 179.902 174.222 188.505 164.93C194.932 158.059 212.362 165.567 212.362 165.567L236.201 165.74C236.201 165.74 237.946 183.45 221.157 182.558L221.158 182.558Z" fill="#FFAC2F"/>
<path d="M253.207 194.058L253.583 198.055L244.355 199.256L243.979 195.254L253.207 194.058Z" fill="#AF6F5B"/>
<path d="M253.174 198.653L252.692 193.792C252.679 193.63 252.778 193.478 252.933 193.426L256.443 192.293C256.756 192.195 257.088 192.37 257.186 192.683C257.201 192.725 257.208 192.769 257.21 192.814C257.335 194.386 257.345 195.538 257.533 197.515C257.644 198.73 258.116 202.385 258.275 204.063C258.434 205.741 256.795 206.112 256.578 205.442C255.614 202.423 254.471 200.191 253.492 199.289C253.309 199.125 253.195 198.898 253.174 198.653Z" fill="#646464"/>
<path d="M253.988 199.897C254.036 200.166 253.99 200.443 253.858 200.683C253.75 200.843 253.569 200.937 253.376 200.933C253.264 200.943 253.156 200.889 253.097 200.793C252.826 200.384 253.502 199.014 253.579 198.865C253.592 198.829 253.628 198.807 253.666 198.812C253.705 198.812 253.74 198.837 253.752 198.874C253.869 199.205 253.948 199.548 253.988 199.897V199.897ZM253.227 200.596C253.228 200.639 253.241 200.681 253.266 200.716C253.266 200.741 253.304 200.765 253.381 200.765C253.511 200.771 253.634 200.711 253.709 200.605C253.877 200.134 253.855 199.615 253.647 199.159C253.417 199.607 253.275 200.094 253.227 200.596L253.227 200.596Z" fill="#FFAC2F"/>
<path d="M253.791 198.899V198.947C253.579 199.376 252.774 200.258 252.344 200.215C252.197 200.201 252.081 200.083 252.069 199.935C252.035 199.792 252.065 199.64 252.152 199.52C252.484 199.024 253.627 198.807 253.68 198.807C253.714 198.807 253.747 198.821 253.771 198.846C253.783 198.861 253.79 198.88 253.791 198.899H253.791ZM252.219 199.834V199.883C252.229 200.008 252.301 200.008 252.33 200.008C252.591 200.056 253.213 199.483 253.483 199.044C253.03 199.113 252.609 199.318 252.277 199.632C252.237 199.692 252.217 199.763 252.219 199.834Z" fill="#FFAC2F"/>
<path d="M218.8 168.334C217.353 170.509 212.105 199.873 218.928 203.574C225.413 208.169 247.614 200.302 247.614 200.302L247.161 193.653C247.161 193.653 228.236 194.432 228.014 194.502C227.599 194.632 235.247 176.546 235.729 172.196C236.211 167.847 218.8 168.334 218.8 168.334H218.8Z" fill="#FFAC2F"/>
<path d="M191.595 138.226C191.595 138.226 185.944 134.326 185.052 134.2C184.16 134.075 183.822 138.337 184.483 140.247C184.864 141.356 187.135 141.312 189.493 141.732L191.595 138.226Z" fill="#AF6F5B"/>
<path d="M236.192 165.74C228.144 169 220.227 170.032 212.522 167.442C212.522 167.442 208.848 144.967 201.052 137.817C202.236 136.532 203.591 135.417 205.077 134.499C208.304 132.442 211.969 131.174 215.777 130.796C218.68 130.519 221.608 130.698 224.456 131.327C224.456 131.327 235.17 143.776 236.192 165.74Z" fill="#646464"/>
<path opacity="0.2" d="M201.051 137.807C204.474 140.951 207.107 147.055 208.983 152.909C209.793 155.45 210.463 157.948 210.988 160.141C212.02 164.375 212.522 167.442 212.522 167.442C220.155 169.793 228.048 169.19 236.192 165.74C235.866 158.068 234.215 150.509 231.312 143.4C230.801 142.156 230.276 140.989 229.76 139.948C228.839 138.063 227.942 136.476 227.156 135.193C226.804 134.629 226.476 134.123 226.192 133.68C225.655 132.865 225.076 132.08 224.456 131.327C221.608 130.699 218.68 130.519 215.777 130.796C217.224 132.527 215.488 136.057 209.615 136.794C206.239 137.218 204.899 135.883 205.077 134.499C203.591 135.413 202.236 136.526 201.051 137.807L201.051 137.807Z" fill="white"/>
<path opacity="0.2" d="M222.696 144.466C222.696 144.466 226.876 142.764 229.76 139.948C228.839 138.063 227.942 136.477 227.156 135.194C226.804 134.63 226.476 134.124 226.192 133.68L222.696 144.466H222.696Z" fill="black"/>
<path opacity="0.2" d="M208.988 152.918C209.798 155.459 210.468 157.957 210.993 160.15C214.986 158.54 218.631 151.356 218.631 151.356L208.988 152.918Z" fill="black"/>
<path d="M223.809 131.202C220.135 130.58 213.346 149.346 210.193 149.727C207.039 150.108 191.595 138.227 191.595 138.227L189.493 141.733C189.493 141.733 202.993 156.198 209.532 157.645C216.07 159.092 228.337 140.287 228.052 136.69C227.767 133.093 226.437 131.641 223.809 131.203V131.202Z" fill="#646464"/>
<path opacity="0.15" d="M223.809 131.202C220.135 130.58 213.346 149.346 210.193 149.727C207.039 150.108 191.595 138.227 191.595 138.227L189.493 141.733C189.493 141.733 202.993 156.198 209.532 157.645C216.07 159.092 228.337 140.287 228.052 136.69C227.767 133.093 226.437 131.641 223.809 131.203V131.202Z" fill="white"/>
<path d="M214.935 131.225C215.663 133.843 208.127 137.517 205.485 134.903C206.931 133.824 207.283 132.7 207.105 131.606C206.975 130.937 206.711 130.303 206.329 129.739C206.128 129.419 205.909 129.11 205.673 128.813L208.88 122.174C209.516 125.096 211.02 131.692 214.935 131.225Z" fill="#AF6F5B"/>
<path d="M197.898 116.495C197.898 116.495 196.934 120.998 199.721 123.313C202.508 125.627 203.178 115.347 203.178 115.347L197.898 116.495Z" fill="#646464"/>
<path d="M209.945 119.79C209.961 123.821 210.053 126.094 208.102 128.285C205.167 131.582 200.065 130.149 198.809 126.202C197.678 122.65 197.842 116.655 201.784 114.803C205.668 112.979 209.929 115.758 209.945 119.789V119.79Z" fill="#AF6F5B"/>
<path d="M210.144 114.927C209.43 112.756 203.729 113.143 202.213 114.388C201.987 114.574 205.473 115.98 205.263 115.922L206.888 116.342C207.129 116.271 207.629 116.515 207.927 117.236C207.927 117.236 208.159 123.402 210.071 125.054C211.466 124.267 211.386 121.822 211.743 120.337C212.275 118.125 212.878 114.898 210.144 114.927L210.144 114.927Z" fill="#646464"/>
<path d="M204.583 120.918C204.61 121.329 204.408 121.676 204.132 121.693C203.856 121.71 203.609 121.391 203.581 120.981C203.554 120.57 203.755 120.223 204.032 120.206C204.309 120.189 204.555 120.508 204.583 120.918Z" fill="#646464"/>
<path d="M200.45 121.729C200.478 122.14 200.276 122.487 199.999 122.505C199.722 122.522 199.476 122.203 199.449 121.792C199.421 121.382 199.623 121.035 199.899 121.018C200.176 121 200.422 121.319 200.45 121.73V121.729Z" fill="#646464"/>
<path d="M201.313 121.428C201.313 121.428 200.113 123.565 199.741 124.427C200.363 124.901 201.36 124.59 201.36 124.59L201.313 121.428Z" fill="#A24E3F"/>
<path d="M205.019 119.364C204.957 119.394 204.88 119.392 204.819 119.352C204.086 118.872 203.407 119.14 203.4 119.143C203.299 119.184 203.182 119.138 203.14 119.04C203.098 118.943 203.146 118.83 203.247 118.789C203.282 118.774 204.132 118.439 205.042 119.034C205.133 119.093 205.156 119.213 205.095 119.3C205.074 119.329 205.048 119.35 205.019 119.365L205.019 119.364Z" fill="#646464"/>
<path opacity="0.2" d="M208.979 123.431H208.974C208.909 123.427 208.859 123.373 208.862 123.308C208.881 122.938 208.998 122.577 209.203 122.264C209.342 122.052 209.581 121.775 209.936 121.663C210.285 121.552 210.671 121.651 210.873 121.903C210.913 121.953 210.905 122.027 210.855 122.067C210.805 122.108 210.732 122.1 210.691 122.049C210.55 121.873 210.262 121.806 210.006 121.886C209.717 121.977 209.516 122.211 209.398 122.392C209.215 122.671 209.111 122.991 209.095 123.319C209.092 123.382 209.041 123.431 208.979 123.431H208.979Z" fill="black"/>
<path d="M198.038 120.151C198 120.146 197.964 120.131 197.934 120.105C197.852 120.034 197.845 119.912 197.917 119.832C198.644 119.032 199.543 119.16 199.585 119.16C199.692 119.176 199.767 119.275 199.751 119.38C199.734 119.485 199.635 119.557 199.528 119.543C199.49 119.536 198.796 119.446 198.213 120.088C198.167 120.139 198.101 120.16 198.037 120.151H198.038Z" fill="#646464"/>
<path opacity="0.3" d="M198.46 124.903C198.57 125.409 198.708 125.908 198.875 126.398C198.948 126.586 199.02 126.764 199.107 126.938C199.717 128.224 200.797 129.227 202.125 129.739C204.146 130.569 206.696 129.956 208.102 128.285C208.632 126.679 208.803 123.307 207.699 121.311C207.699 121.311 206.649 124.268 206.268 124.378C205.887 124.489 205.584 123.032 203.612 123.977C201.639 124.922 200.915 126.205 198.461 124.904L198.46 124.903Z" fill="black"/>
<path d="M211.008 123.481C211.703 119.942 211.081 116.157 210.165 115.115C209.249 114.073 204.649 116.759 204.649 116.759C205.724 116.474 206.804 117.376 206.457 118.456C205.975 119.961 206.939 122.198 208.125 123.042C208.125 123.042 208.125 122.405 208.67 122.526C209.215 122.646 209.642 125.923 208.683 127.567C208.678 127.567 210.31 127.015 211.009 123.48L211.008 123.481Z" fill="#646464"/>
<path d="M211.307 122.782C210.962 123.722 210.258 124.487 209.349 124.908C208.144 125.463 207.334 124.426 207.493 123.182C207.648 122.073 208.457 120.42 209.745 120.405C211.032 120.391 211.717 121.62 211.307 122.782Z" fill="#AF6F5B"/>
<path d="M197.963 116.495C197.963 116.495 199.188 117.942 202.751 117.585C201.929 117.515 201.119 117.342 200.34 117.069C200.34 117.069 205.118 117.729 207.399 116.871C209.68 116.013 210.234 115.116 210.234 115.116C210.234 115.116 209.843 112.705 204.564 113.009C199.284 113.313 197.606 115.598 197.963 116.495H197.963Z" fill="#646464"/>
<path d="M210.435 125.304C210.435 125.304 210.497 118.761 206.037 115.66C202.575 113.249 199.031 114.089 198.038 115.602C198.038 115.602 197.175 114.32 198.829 112.965C199.331 112.609 199.884 112.33 200.468 112.136C200.468 112.136 206.032 108.495 211.534 111.619C217.036 114.744 212.947 117.319 212.947 117.319C212.947 117.319 213.395 121.249 211.982 122.247C211.992 122.228 211.443 125.241 210.435 125.304Z" fill="#646464"/>
<path d="M202.171 126.178C202.592 126.541 202.986 126.934 203.35 127.354C203.433 127.303 203.519 127.253 203.599 127.198C204.724 126.487 205.013 125.787 204.985 125.225C204.967 124.95 204.885 124.684 204.744 124.447C204.668 124.312 204.574 124.188 204.464 124.078C204.093 124.812 203.099 125.554 202.549 125.928C202.304 126.078 202.17 126.178 202.17 126.178H202.171Z" fill="#646464"/>
<path d="M202.533 125.924L202.891 126.261C203.946 125.591 204.6 124.981 204.729 124.443C204.653 124.307 204.558 124.183 204.449 124.074C204.076 124.814 203.083 125.549 202.533 125.924L202.533 125.924Z" fill="white"/>
<path d="M203.583 127.193C204.707 126.482 204.997 125.782 204.969 125.22C204.546 125.498 204.177 125.848 203.876 126.255C203.683 126.53 203.58 126.858 203.583 127.193Z" fill="#F54948"/>
<path opacity="0.3" d="M210.435 125.304C210.435 125.304 210.497 118.761 206.037 115.66C202.575 113.249 199.031 114.089 198.038 115.602C198.038 115.602 197.175 114.32 198.829 112.965C199.331 112.609 199.884 112.33 200.468 112.136C200.468 112.136 206.032 108.495 211.534 111.619C217.036 114.744 212.947 117.319 212.947 117.319C212.947 117.319 213.395 121.249 211.982 122.247C211.992 122.228 211.443 125.241 210.435 125.304Z" fill="white"/>
<path opacity="0.2" d="M94.3716 62.6227H112.28V140.408C112.28 141.948 111.031 143.197 109.491 143.197H94.3716V62.6227Z" fill="black"/>
<path d="M40.3899 95.9469C40.3899 95.9469 42.2239 96.3188 42.447 96.6161C42.67 96.9133 45.7729 98.7977 45.7729 98.7977L43.686 102.91L42.1282 101.716C42.1282 101.716 40.7824 102.047 39.8551 101.698C38.9283 101.349 39.3548 96.1405 39.3548 96.1405L40.3904 95.9464L40.3899 95.9469Z" fill="#FDAA6D"/>
<path opacity="0.2" d="M39.2705 96.7201C39.2705 96.7201 42.3365 97.3375 42.6823 98.0529C43.0281 98.7683 41.8946 98.7296 41.8946 98.7296C41.8946 98.7296 43.1387 98.849 43.1597 99.3843C43.1845 100.026 41.9977 99.9807 41.9977 99.9807C41.9977 99.9807 43.0095 100.12 42.9964 100.597C42.9824 101.092 41.6389 101.136 41.6389 101.136C41.6389 101.136 42.3328 101.369 42.1359 101.695C41.9389 102.021 39.089 102.168 38.242 101.647C37.3945 101.125 37.577 97.5503 37.8005 96.7654C38.0637 95.8409 38.725 95.5063 39.5137 95.6337L39.271 96.721L39.2705 96.7201Z" fill="black"/>
<path d="M39.7262 102.472L38.9319 102.231C38.4886 102.089 38.2109 101.65 38.2721 101.189L39.1405 94.8311L41.3068 95.4989L40.9549 101.617C40.9302 102.138 40.4878 102.54 39.967 102.515C39.8853 102.511 39.8041 102.497 39.7262 102.472Z" fill="#646464"/>
<path d="M44.9329 94.1911C45.0491 93.8197 45.1606 93.4538 45.2605 93.0884C44.7425 92.3399 44.0677 91.7131 43.2832 91.2516C43.0373 91.9563 42.7928 92.6945 42.5552 93.4547C42.3177 94.2154 42.1077 94.963 41.9187 95.6873C42.8273 95.7465 43.7382 95.6089 44.5885 95.2831C44.7056 94.9229 44.8218 94.5621 44.9329 94.1911Z" fill="#646464"/>
<path d="M43.4983 93.7512C43.7862 92.8603 43.9799 91.9414 44.0756 91.0095L36.9701 88.8162L35.334 94.1264L42.4451 96.3248C42.8842 95.5058 43.237 94.643 43.4978 93.7507L43.4983 93.7512Z" fill="#FFAC2F"/>
<path opacity="0.6" d="M43.4983 93.7512C43.7862 92.8603 43.9799 91.9414 44.0756 91.0095L36.9701 88.8162L35.334 94.1264L42.4451 96.3248C42.8842 95.5058 43.237 94.643 43.4978 93.7507L43.4983 93.7512Z" fill="white"/>
<path d="M38.7925 88.8994C38.4724 88.7972 30.5395 81.4346 29.6808 81.1453C28.8222 80.8564 26.9387 84.0349 25.6414 88.2419C24.344 92.4489 24.0538 96.088 24.9857 96.3787C25.9176 96.6694 36.5548 95.0053 36.8806 95.1014C37.2063 95.1976 37.9978 93.9198 38.5251 92.2053C39.0524 90.4908 39.198 89.0142 38.7925 88.8994Z" fill="#FFAC2F"/>
<path opacity="0.4" d="M38.7925 88.8994C38.4724 88.7972 30.5395 81.4346 29.6808 81.1453C28.8222 80.8564 26.9387 84.0349 25.6414 88.2419C24.344 92.4489 24.0538 96.088 24.9857 96.3787C25.9176 96.6694 36.5548 95.0053 36.8806 95.1014C37.2063 95.1976 37.9978 93.9198 38.5251 92.2053C39.0524 90.4908 39.198 89.0142 38.7925 88.8994Z" fill="white"/>
<path d="M29.0251 89.2823C27.7277 93.4893 25.9171 96.664 24.9856 96.3789C24.0541 96.0937 24.3453 92.4715 25.6413 88.2421C26.9372 84.0127 28.7493 80.8603 29.6807 81.1455C30.6122 81.4306 30.3229 85.0809 29.0251 89.2823Z" fill="#FFAC2F"/>
<path d="M26.795 88.5842C26.7078 88.8642 26.6266 89.1554 26.5496 89.4125C27.1002 90.036 27.7615 90.5526 28.4998 90.9357C28.6874 90.4084 28.8731 89.8535 29.0528 89.2814C29.2324 88.7097 29.3836 88.1394 29.5316 87.6028C28.706 87.5048 27.8693 87.5599 27.0634 87.7661C26.9364 88.0373 26.8487 88.3117 26.795 88.5842Z" fill="#646464"/>
<path opacity="0.7" d="M26.795 88.5842C26.7078 88.8642 26.6266 89.1554 26.5496 89.4125C27.1002 90.036 27.7615 90.5526 28.4998 90.9357C28.6874 90.4084 28.8731 89.8535 29.0528 89.2814C29.2324 88.7097 29.3836 88.1394 29.5316 87.6028C28.706 87.5048 27.8693 87.5599 27.0634 87.7661C26.9364 88.0373 26.8487 88.3117 26.795 88.5842Z" fill="white"/>
<path d="M38.8879 96.6799C38.8879 96.6799 42.0477 97.337 42.3935 98.0524C42.7393 98.7678 41.6058 98.7291 41.6058 98.7291C41.6058 98.7291 42.8499 98.8485 42.8709 99.3838C42.8956 100.026 41.7089 99.9802 41.7089 99.9802C41.7089 99.9802 42.7206 100.119 42.7076 100.597C42.6936 101.092 41.35 101.135 41.35 101.135C41.35 101.135 42.044 101.368 41.847 101.694C41.6496 102.02 38.8002 102.167 37.9532 101.646C37.1057 101.124 37.2882 97.5498 37.5117 96.7649C37.7749 95.8404 38.2584 95.3915 39.0475 95.5193L38.8888 96.6813L38.8879 96.6799Z" fill="#FDAA6D"/>
<path opacity="0.2" d="M41.604 98.7892H41.5989L39.4396 98.477C39.4107 98.4728 39.3901 98.4425 39.3943 98.4098C39.3985 98.3767 39.4261 98.3533 39.4541 98.3575L41.6133 98.6693C41.6423 98.6735 41.6628 98.7038 41.6586 98.7365C41.6549 98.7677 41.6311 98.7901 41.604 98.7892Z" fill="black"/>
<path opacity="0.2" d="M41.6447 100.038H41.6433L39.5457 99.9035C39.5167 99.9016 39.4943 99.8731 39.4962 99.84C39.4981 99.8069 39.5186 99.7868 39.5527 99.7831L41.6503 99.9179C41.6797 99.9198 41.7017 99.9483 41.6998 99.9814C41.6979 100.014 41.6732 100.039 41.6447 100.038Z" fill="black"/>
<path d="M70.2805 189.118C70.2805 189.118 71.5545 197.032 72.15 200.802C72.3469 202.035 67.6182 201.362 67.1678 201.237L64.3608 188.532L70.2805 189.118V189.118Z" fill="#FDAA6D"/>
<path d="M63.6612 198.658C62.9622 198.756 62.2785 198.746 62.0298 198.461C61.8893 198.308 61.8641 198.081 61.9677 197.901C62.0363 197.736 62.1716 197.608 62.3406 197.549C63.2053 197.202 65.2409 198.031 65.3291 198.067C65.3618 198.08 65.3879 198.107 65.4014 198.139C65.4299 198.208 65.3977 198.287 65.3291 198.315C64.785 198.481 64.2268 198.595 63.6612 198.657V198.658ZM62.677 197.73C62.593 197.746 62.51 197.767 62.4283 197.793C62.3294 197.832 62.2496 197.908 62.2057 198.005C62.1282 198.181 62.1693 198.254 62.2057 198.295C62.5062 198.616 63.8838 198.44 64.8676 198.171C64.1704 197.887 63.4246 197.741 62.6714 197.741L62.677 197.73Z" fill="#FFAC2F"/>
<path d="M65.2721 198.311H65.2151C64.5212 198.104 63.0918 197.104 63.0918 196.482C63.1123 196.332 63.1749 196.135 63.5267 196.053C63.7755 195.98 64.0429 196.012 64.2673 196.141C65.0341 196.622 65.3859 198.057 65.3859 198.119C65.4116 198.158 65.4116 198.209 65.3859 198.248L65.2721 198.31V198.311ZM64.1483 196.379C64.0111 196.283 63.8436 196.241 63.677 196.26H63.5939C63.3662 196.317 63.3662 196.41 63.3662 196.441C63.3247 196.809 64.3607 197.617 65.0803 197.933C64.9361 197.332 64.6108 196.789 64.1483 196.379Z" fill="#FFAC2F"/>
<path d="M65.189 197.72C64.0602 199.134 62.698 200.646 58.6893 202.242C57.7984 202.594 58.4667 204.79 60.73 204.417C62.9934 204.044 69.8244 202.635 72.932 201.734C72.9786 201.729 73.7192 201.072 73.5638 200.646L71.7462 196.529C71.6692 196.317 71.4498 196.192 71.2282 196.234L66.023 197.202C65.6888 197.261 65.3897 197.446 65.189 197.72V197.72Z" fill="#646464"/>
<g opacity="0.2">
<path d="M65.5728 193.717L64.3608 188.532L70.2805 189.123L70.9072 193.033L65.5728 193.717Z" fill="black"/>
</g>
<path d="M113.407 174.669C113.407 174.669 118.788 180.584 121.377 183.411C122.216 184.349 117.892 186.379 117.452 186.519L108.13 177.44L113.407 174.669L113.407 174.669Z" fill="#FDAA6D"/>
<g opacity="0.2">
<path d="M111.987 181.112L108.129 177.44L113.401 174.685L116.069 177.611L111.987 181.112Z" fill="black"/>
</g>
<path d="M113.101 186.317C112.572 186.783 111.998 187.151 111.635 187.047C111.434 186.997 111.288 186.824 111.272 186.617C111.236 186.436 111.279 186.247 111.391 186.099C111.914 185.317 114.069 184.877 114.162 184.877C114.216 184.868 114.27 184.891 114.302 184.934C114.331 184.98 114.331 185.039 114.302 185.084C113.943 185.533 113.541 185.946 113.101 186.317ZM111.77 186.048C111.706 186.105 111.647 186.167 111.594 186.234C111.531 186.32 111.507 186.429 111.527 186.534C111.563 186.721 111.635 186.773 111.692 186.773C112.117 186.882 113.168 185.986 113.842 185.219C113.103 185.363 112.399 185.65 111.77 186.064V186.048L111.77 186.048Z" fill="#FFAC2F"/>
<path d="M114.272 185.105L114.22 185.131C113.516 185.339 111.765 185.282 111.444 184.764C111.338 184.562 111.39 184.314 111.568 184.173C111.737 183.976 111.978 183.854 112.237 183.837C113.143 183.811 114.21 184.831 114.256 184.873C114.297 184.896 114.319 184.94 114.313 184.987L114.272 185.106V185.105ZM112.257 184.116C112.089 184.115 111.926 184.178 111.801 184.292L111.724 184.328C111.573 184.494 111.636 184.572 111.636 184.603C111.811 184.934 113.106 185.043 113.883 184.908C113.431 184.478 112.858 184.198 112.241 184.106L112.257 184.116Z" fill="#FFAC2F"/>
<path d="M114.273 184.78C113.753 186.513 113.054 188.424 109.931 191.401C109.236 192.06 110.676 193.848 112.636 192.656C114.597 191.466 120.407 187.608 122.954 185.612C122.995 185.59 123.437 184.703 123.134 184.367L119.91 181.226C119.76 181.059 119.51 181.025 119.32 181.146L114.853 183.988C114.564 184.167 114.357 184.451 114.273 184.78Z" fill="#646464"/>
<path d="M75.6769 115.659L84.4288 110.946C85.6043 112.676 86.5367 114.11 87.0234 116.145C87.6502 118.745 86.2842 123.249 86.6356 123.058C76.8473 128.403 74.8584 126.638 74.8584 126.638L72.036 128.467C67.6698 131.289 60.1602 129.943 61.8748 125.033C63.3765 120.667 63.3765 115.068 63.3765 115.068C69.0992 116.684 75.6769 115.659 75.6769 115.659Z" fill="#646464"/>
<path d="M71.1139 119.077C67.3745 118.854 64.3967 117.932 63.3919 120.667C57.4051 136.965 54.7586 153.777 56.1773 163.409C57.0369 169.08 60.6624 192.278 65.3235 192.06C66.7841 191.993 71.4037 191.19 71.4037 191.19C71.8722 190.593 72.0402 189.814 71.8596 189.077C70.083 181.106 66.7272 166.905 67.913 159.411C69.4614 149.71 77.0541 134.07 77.2664 128.476C77.4736 123.043 71.7919 119.118 71.1134 119.076L71.1139 119.077Z" fill="#646464"/>
<path opacity="0.2" d="M72.5125 144.071L75.8221 133.858C75.8221 133.858 73.7608 121.382 73.0566 122.537C67.655 131.398 72.513 144.072 72.513 144.072L72.5125 144.071Z" fill="black"/>
<path d="M75.6821 115.664C72.4504 117.523 71.2954 120.621 72.0566 123.433C75.656 136.738 83.2071 149.043 89.4478 160.246C92.2446 165.259 108.735 182.573 110.889 179.859C111.801 178.714 115.499 175.793 115.499 175.793C116.705 171.935 106.782 170.086 85.9777 120.144C83.8852 115.126 76.2673 115.323 75.6821 115.664Z" fill="#646464"/>
<path d="M75.8221 79.7313C76.2729 79.3999 87.8014 79.1512 94.4668 79.1512V79.084C94.7888 74.6474 95.9228 70.3079 97.8123 66.2815L100.635 60.2531C101.381 58.6295 103.1 57.6841 104.871 57.9225C105.426 58 105.968 58.1587 106.476 58.3939L105.192 58.8447C105.202 59.3239 105.163 59.8032 105.073 60.2741L101.168 80.6795C101.292 81.4304 101.142 82.57 100.474 84.3051C99.6869 86.3663 88.2153 88.821 82.0782 89.2564C80.2759 89.3805 78.945 89.339 78.4527 89.0646C77.3649 88.4589 76.0601 86.5787 75.3451 84.6261C74.6512 82.6736 74.5322 80.6487 75.8216 79.7317L75.8221 79.7313Z" fill="#FFAC2F"/>
<path d="M76.3811 79.7052C76.5603 79.693 76.74 79.6898 76.9192 79.6954C79.9068 79.791 82.2513 82.29 82.1557 85.2776L87.2227 113.328C85.0009 116.383 62.096 125.205 61.6247 122.46C63.8222 109.359 54.5817 87.2474 57.7602 85.0443C67.4039 78.1768 75.1281 79.7878 76.3816 79.7047L76.3811 79.7052Z" fill="#FFAC2F"/>
<path d="M44.7565 97.6928L56.8245 100.637C56.8245 100.637 54.0516 87.68 57.4858 85.1819C60.92 82.6839 65.7766 107.391 65.7766 107.391L62.6728 111.894C62.6728 111.894 42.5627 103.598 42.5627 103.994C42.5627 104.389 44.7565 97.6933 44.7565 97.6933V97.6928Z" fill="#FFAC2F"/>
<path opacity="0.2" d="M61.625 111.463L58.8101 93.0234L59.504 110.593L61.625 111.463Z" fill="black"/>
<path opacity="0.1" d="M76.3425 85.0785C77.0519 87.031 78.3571 88.9112 79.4501 89.517C79.9681 89.7914 81.3919 90.3794 82.8628 89.1917C83.4634 93.6507 85.0841 101.488 85.0841 101.488C85.0841 101.488 78.0309 93.9657 76.3425 85.0785Z" fill="black"/>
<path d="M90.0684 59.7949H109.091C109.841 59.7949 110.45 60.4039 110.45 61.1539V138.2C110.45 139.327 109.534 140.242 108.407 140.242H90.4287C89.5411 140.242 88.8206 139.522 88.8206 138.634V61.0428C88.8206 60.354 89.3796 59.7949 90.0684 59.7949Z" fill="#FFAC2F"/>
<path opacity="0.5" d="M90.1074 59.7947H108.453C109.555 59.7947 110.45 60.6897 110.45 61.792V138.268C110.45 139.358 109.566 140.242 108.476 140.242H90.4677C89.5591 140.242 88.8213 139.504 88.8213 138.596V61.0813C88.8213 60.3715 89.3976 59.7951 90.1074 59.7951V59.7947Z" fill="white"/>
<path d="M90.0684 59.7945H109.178C109.88 59.7945 110.449 60.3643 110.449 61.0657V64.5695H88.8206V61.0419C88.8206 60.3531 89.3796 59.7945 90.0684 59.7945Z" fill="#FFAC2F"/>
<path opacity="0.5" d="M98.6719 69.401H92.2632V75.8097H98.6719V69.401Z" fill="white"/>
<path opacity="0.5" d="M107.642 69.401H101.234V75.8097H107.642V69.401Z" fill="white"/>
<path opacity="0.5" d="M98.6719 78.5961H92.2632V85.0048H98.6719V78.5961Z" fill="white"/>
<path opacity="0.5" d="M107.642 78.5961H101.234V85.0048H107.642V78.5961Z" fill="white"/>
<path opacity="0.5" d="M98.6719 87.7391H92.2632V94.1479H98.6719V87.7391Z" fill="white"/>
<path opacity="0.5" d="M107.642 87.7391H101.234V94.1479H107.642V87.7391Z" fill="white"/>
<path opacity="0.5" d="M98.6719 96.8826H92.2632V103.291H98.6719V96.8826Z" fill="white"/>
<path opacity="0.5" d="M107.642 96.8826H101.234V103.291H107.642V96.8826Z" fill="white"/>
<path opacity="0.5" d="M98.6719 130.838H92.2632V137.247H98.6719V130.838Z" fill="white"/>
<path opacity="0.5" d="M107.642 130.838H101.234V137.247H107.642V130.838Z" fill="white"/>
<path d="M107.642 115.146H97.4775V125.311H107.642V115.146Z" fill="white"/>
<path d="M102.56 109.438H92.395V119.603H102.56V109.438Z" fill="#FFAC2F"/>
<path d="M99.0391 59.8985C99.0391 59.8985 99.8707 62.5571 100.567 62.881C101.263 63.2053 101.21 62.1105 101.21 62.1105C101.21 62.1105 101.343 63.3113 101.86 63.3239C102.481 63.3393 102.42 62.1922 102.42 62.1922C102.42 62.1922 102.569 63.1685 103.03 63.1484C103.508 63.1279 103.531 61.8292 103.531 61.8292C103.531 61.8292 103.766 62.4965 104.078 62.3014C104.391 62.1063 104.494 59.3502 103.977 58.5387C103.462 57.7271 99.9155 57.7038 99.1469 57.8821C98.901 57.939 97.3502 58.9536 96.8789 59.7945L99.013 59.8192L99.0386 59.8981L99.0391 59.8985Z" fill="#FDAA6D"/>
<path opacity="0.2" d="M101.268 62.1075V62.1023L100.936 60.0201C100.931 59.9921 100.902 59.9729 100.87 59.9771C100.838 59.9813 100.816 60.0089 100.82 60.0355L101.152 62.1177C101.157 62.1457 101.186 62.1649 101.218 62.1607C101.247 62.1565 101.269 62.1331 101.268 62.1075Z" fill="black"/>
<path opacity="0.2" d="M102.475 62.13V62.1286L102.315 60.1032C102.313 60.0748 102.286 60.0542 102.254 60.0566C102.222 60.0589 102.203 60.079 102.2 60.1116L102.359 62.137C102.361 62.1654 102.389 62.186 102.421 62.1841C102.453 62.1818 102.476 62.158 102.475 62.13Z" fill="black"/>
<path opacity="0.2" d="M103.585 61.7571L103.51 60.2489C103.508 60.2204 103.481 60.1989 103.449 60.2008C103.417 60.2022 103.392 60.2265 103.394 60.2549L103.469 61.7637C103.471 61.7921 103.498 61.8136 103.53 61.8117C103.562 61.8103 103.587 61.7861 103.585 61.7576V61.7571Z" fill="black"/>
<path opacity="0.3" d="M67.8046 77.913L67.6819 77.4664L63.4338 78.4002C64.8945 79.6794 67.2404 79.3634 68.1313 78.7628L67.8051 77.9135L67.8046 77.913Z" fill="black"/>
<path d="M61.543 79.1457C61.543 79.1457 67.4781 78.9385 70.3476 77.8302C73.5275 76.6029 71.456 71.9054 71.456 71.9054C72.3006 71.6025 73.0128 71.0145 73.4706 70.2431C74.1178 69.1035 73.6106 67.5915 72.6161 66.7161C71.6216 65.8406 69.7727 65.5923 68.5141 65.2297C69.3788 65.0174 69.7727 63.8885 69.4358 63.0597C69.0242 62.2608 68.2747 61.6901 67.395 61.5062C66.521 61.3293 65.6371 61.2052 64.7486 61.1333C63.5161 60.9467 62.3401 60.5327 61.123 60.3153C59.9032 60.0269 58.6208 60.1734 57.4975 60.7297C56.6533 61.2645 56.0004 62.0531 55.6332 62.9827C55.3112 63.6337 55.2024 64.3692 55.3224 65.0855C55.4647 65.8131 56.0578 66.3665 56.7933 66.458C56.7933 66.458 58.9376 77.5152 61.5426 79.1467L61.543 79.1457Z" fill="#646464"/>
<path d="M55.3127 65.5556C57.1201 64.8048 59.3265 67.6375 60.2276 68.8027C61.8861 70.8281 63.2787 73.0578 64.3707 75.4373C64.7799 76.4108 65.0543 77.654 64.3292 78.4202C63.8149 78.8505 63.1662 79.0866 62.4956 79.0885C61.3103 79.2117 60.1189 79.2654 58.927 79.249C57.7981 79.2336 56.6016 79.1352 55.6902 78.4669C54.7788 77.7986 54.3439 76.3744 55.0737 75.5148C54.1777 75.7168 53.2971 74.9865 53.0022 74.132C52.7847 73.2491 52.7847 72.327 53.0022 71.444C53.2458 69.8592 53.5053 66.3065 55.3127 65.5556Z" fill="#646464"/>
<path d="M68.1412 78.7675C68.3983 79.3569 68.7619 79.8945 69.2131 80.3523C69.7605 80.8507 69.9509 81.6309 69.6947 82.3253C69.3373 83.2213 68.5397 84.5317 66.779 86.2253C66.4803 86.5188 66.1145 86.7353 65.7136 86.8567C64.3444 87.2706 62.8991 86.4964 62.4857 85.1272C62.4203 84.9195 62.3872 84.703 62.3872 84.4851C62.3979 83.7412 62.7535 83.0445 63.3504 82.5997C64.9352 81.3981 64.1013 79.5076 63.2053 77.9853L66.9652 73.5781C67.0809 75.0463 67.3609 76.4967 67.7991 77.9027L68.1412 78.7675Z" fill="#FDAA6D"/>
<path d="M58.617 72.682C58.0216 70.7915 57.519 68.8497 56.6024 67.0782C56.4708 67.5337 56.3924 68.0032 56.3696 68.4769C56.329 69.3789 56.4932 70.2787 56.8512 71.1079C57.1153 71.7347 57.3482 72.3044 57.5764 72.822C58.4411 74.8468 59.1042 76.1264 60.3059 77.1153L60.6839 77.3071C59.7711 75.8754 59.0744 74.3172 58.617 72.682Z" fill="#646464"/>
<path d="M67.5509 66.3692C67.4371 66.1984 67.3232 66.022 67.1986 65.8512C65.9502 64.1474 64.3295 62.8991 62.3252 62.8109C59.9303 62.6793 57.7159 64.0812 56.8097 66.3016C56.7243 66.4934 56.6515 66.6908 56.5922 66.8919C56.4615 67.3474 56.3831 67.8168 56.3593 68.2905C56.3187 69.1926 56.483 70.0923 56.8409 70.9216C57.1051 71.5483 57.3379 72.1181 57.5661 72.6356C58.4309 74.6605 59.094 75.9401 60.2957 76.929C60.6452 77.2141 61.0195 77.467 61.4143 77.685C61.5384 77.7522 61.6681 77.825 61.8077 77.887C62.1404 78.0536 62.4866 78.1904 62.8436 78.2963C63.7966 78.595 64.8116 78.636 65.7855 78.4153H65.8168C68.4087 77.8194 70.1279 75.3568 69.7942 72.7182C69.5249 70.4619 68.7591 68.2933 67.5519 66.3688L67.5509 66.3692Z" fill="#FDAA6D"/>
<path d="M57.2378 70.3794C58.5869 74.1995 59.2682 76.3812 61.8559 77.7952C65.7484 79.9218 70.0921 76.8395 69.9456 72.6796C69.814 68.9355 67.63 63.3178 63.2732 62.8997C58.9808 62.4881 55.8886 66.5593 57.2378 70.3794Z" fill="#FDAA6D"/>
<path opacity="0.2" d="M59.4106 72.599C59.7004 72.5108 59.9906 72.7026 60.2912 72.7334C67.1222 73.4068 69.2656 72.1622 69.835 71.437C69.9176 71.8304 69.9045 72.3059 69.946 72.6788C69.9498 75.4275 68.4401 77.8289 65.8482 78.4249H65.817C64.843 78.6437 63.8285 78.6027 62.8751 78.3059C62.5186 78.2004 62.1718 78.0632 61.8391 77.8966C61.6991 77.8345 61.5698 77.7617 61.4457 77.6945C61.0509 77.4766 60.6766 77.2237 60.3271 76.9385C59.8212 76.5199 59.3812 76.0276 59.0218 75.4779C58.9248 74.9921 58.8552 74.5007 58.8146 74.0069C58.7834 73.4474 58.887 72.7432 59.4101 72.5981L59.4106 72.599Z" fill="black"/>
<path d="M59.187 66.9023C58.8926 66.4487 58.4012 66.1608 57.8612 66.1253C57.4884 66.1253 56.6493 66.1566 56.4524 66.1253C56.2554 66.0941 56.0328 66.0838 55.9344 66.2341C54.6202 68.2585 54.5092 70.8368 55.6446 72.9671C56.7828 74.7549 58.397 76.1895 60.3056 77.1102C59.0988 76.1209 58.4413 74.8417 57.571 72.8169C57.9084 72.7245 58.257 72.6773 58.607 72.6769C58.9024 72.6717 59.7307 73.7749 59.8553 73.5057C60.2384 72.682 58.3428 69.8647 59.187 66.9023Z" fill="#646464"/>
<path d="M56.6847 74.0608C57.2891 74.9727 58.2728 75.5187 59.1763 75.6806C60.5352 75.9247 60.6206 74.5317 60.16 73.338C59.7451 72.2637 59.033 71.0126 57.7091 71.3094C56.4052 71.602 55.9941 73.0178 56.6847 74.0608Z" fill="#FDAA6D"/>
<path d="M62.8022 69.633C62.9152 70.0311 63.2236 70.291 63.491 70.2135C63.7584 70.1365 63.884 69.7511 63.771 69.3535C63.6581 68.9554 63.3496 68.6955 63.0822 68.7729C62.8148 68.8499 62.6893 69.2349 62.8022 69.633Z" fill="#646464"/>
<path d="M66.9878 69.0022C67.1007 69.4003 67.4092 69.6602 67.6766 69.5828C67.944 69.5058 68.0695 69.1203 67.9566 68.7222C67.8437 68.3242 67.5352 68.0642 67.2678 68.1417C67.0004 68.2192 66.8749 68.6046 66.9878 69.0022Z" fill="#646464"/>
<path d="M66.0693 69.0092C66.0693 69.0092 67.9276 70.6252 68.5721 71.315C68.1437 71.9739 67.0955 72.0168 67.0955 72.0168L66.0698 69.0096L66.0693 69.0092Z" fill="#FF7E3C"/>
<path d="M60.9832 68.7003C61.0518 68.7078 61.1237 68.6798 61.168 68.6205C61.7 67.9191 62.4322 67.9424 62.4397 67.9424C62.5493 67.9471 62.6441 67.8645 62.6511 67.7576C62.6581 67.6508 62.5745 67.5607 62.4653 67.5556C62.4266 67.5537 61.5091 67.5243 60.8493 68.3946C60.7835 68.4814 60.8012 68.6023 60.8894 68.6648C60.9179 68.6849 60.9501 68.697 60.9832 68.7003Z" fill="#646464"/>
<path opacity="0.2" d="M59.4535 73.5037C59.4077 73.5037 59.3643 73.4766 59.3457 73.4318C59.2192 73.1262 59.0115 72.8578 58.7446 72.6558C58.5724 72.5251 58.2966 72.3669 57.9979 72.3828C57.7277 72.3926 57.4781 72.5554 57.4043 72.7692C57.3833 72.8303 57.3171 72.863 57.2559 72.8415C57.1953 72.8205 57.1626 72.7542 57.1836 72.6931C57.2891 72.387 57.6204 72.1634 57.9891 72.1494C58.3629 72.1415 58.6825 72.316 58.8855 72.47C59.1851 72.6973 59.4185 72.9992 59.5608 73.3427C59.5855 73.402 59.5571 73.4706 59.4978 73.4953C59.4833 73.5014 59.4684 73.5042 59.453 73.5042L59.4535 73.5037Z" fill="black"/>
<path d="M68.7368 66.6932C68.7704 66.6759 68.7994 66.6489 68.819 66.6139C68.8722 66.5191 68.8381 66.4011 68.7429 66.3502C67.7848 65.8392 66.9766 66.2648 66.9379 66.2793C66.8413 66.3311 66.8039 66.4491 66.8548 66.5434C66.9056 66.6372 67.0242 66.6722 67.1208 66.6218C67.1539 66.6027 67.7806 66.2825 68.5497 66.6932C68.6099 66.7254 68.6799 66.7231 68.7373 66.6932H68.7368Z" fill="#646464"/>
<path d="M67.1394 73.3846C66.8636 73.8704 66.6237 74.3758 66.4212 74.8961C66.3255 74.876 66.2271 74.8578 66.1323 74.8331C64.8275 74.541 64.317 73.9763 64.1532 73.435C64.0776 73.169 64.0655 72.8885 64.1182 72.6169C64.1443 72.4634 64.1915 72.3136 64.2587 72.1731C64.8583 72.742 66.0502 73.1078 66.697 73.2758C66.9793 73.3356 67.1394 73.3846 67.1394 73.3846Z" fill="#646464"/>
<path d="M66.7106 73.2667L66.4862 73.7072C65.2612 73.4295 64.4356 73.0735 64.1318 72.6077C64.158 72.4542 64.2051 72.3044 64.2723 72.1639C64.8757 72.7379 66.0634 73.0987 66.7106 73.2667Z" fill="white"/>
<path d="M66.1464 74.824C64.8416 74.5319 64.331 73.9672 64.1672 73.4259C64.661 73.5458 65.1295 73.7521 65.5514 74.0358C65.8272 74.23 66.0348 74.5058 66.1464 74.824Z" fill="#F54948"/>
<path d="M57.5812 63.4171C56.7216 63.8417 55.9707 64.8413 56.359 65.7219C56.68 66.4574 57.5914 66.6903 58.3787 66.8354C59.9584 67.1513 61.5796 67.4155 63.1644 67.1513C63.6203 67.0734 64.1378 66.8975 64.2932 66.4574C64.3926 66.1037 64.2867 65.7243 64.0188 65.4732C63.7528 65.2301 63.4434 65.0387 63.1074 64.9085C64.0034 65.3864 64.9862 65.6785 65.9975 65.7681C66.3498 65.8395 66.7152 65.7569 67.0022 65.5404C67.258 65.2324 67.2771 64.7919 67.0489 64.4633C66.8212 64.1479 66.5164 63.8963 66.1632 63.733C63.5293 62.2215 60.3191 62.1029 57.5812 63.4171Z" fill="#646464"/>
</svg>
