<svg width="168" height="169" viewBox="0 0 168 169" fill="none" xmlns="http://www.w3.org/2000/svg">
<g filter="url(#filter0_d_191_884)">
<rect x="4" y="0.792969" width="160" height="160" rx="20" fill="#FFE3BA" shape-rendering="crispEdges"/>
<rect x="9" y="5.79297" width="150" height="150" rx="15" stroke="#FFCD83" stroke-width="10" shape-rendering="crispEdges"/>
<path d="M84 35.793C67.4325 35.793 54 49.2255 54 65.793C54 82.3605 67.4325 95.793 84 95.793C100.568 95.793 114 82.3605 114 65.793C114 49.2255 100.568 35.793 84 35.793ZM71.405 54.993C73.29 54.993 74.7475 56.3655 74.9175 57.993C75.09 59.4505 74.49 60.7355 72.8625 61.508C72.005 61.9355 71.6625 61.938 71.49 61.6805C71.405 61.508 71.49 61.338 71.6625 61.1655C73.205 59.8805 73.205 58.8505 73.0325 57.3955C72.9475 56.4505 72.2625 55.8505 71.575 55.8505C68.575 55.8505 64.29 62.5355 64.89 67.423C65.1475 69.308 66.2625 71.538 68.6625 71.538C69.4325 71.538 70.2875 71.2805 71.0625 70.938C72.3125 70.278 73.06 69.763 73.805 68.938C73.6225 66.7255 75.565 63.823 78.4325 63.823C79.72 63.823 80.7475 64.3355 80.8325 65.2805C81.0025 66.5655 79.89 66.7355 79.5475 66.7355C79.205 66.7355 78.6025 66.6505 78.6025 66.3105C78.5175 65.9655 79.375 66.1355 79.29 65.3655C79.2025 64.8505 78.69 64.6805 78.175 64.6805C76.375 64.6805 75.3475 67.1655 75.6025 68.708C75.69 69.3955 76.0325 70.0805 76.72 70.0805C77.2325 70.0805 78.005 69.3055 78.2625 68.193C78.4325 67.423 79.12 66.908 79.72 66.908C79.975 66.908 80.145 66.993 80.2325 67.3355V67.6805C80.1475 68.023 79.89 69.0505 79.9775 69.308C79.9775 69.4805 80.0625 69.7355 80.4025 69.7355C80.6325 69.7355 81.4925 69.2855 82.345 68.588C82.6375 67.113 82.9775 65.343 82.9775 65.1955C83.0625 64.5955 83.32 63.9955 84.52 63.9955C84.7775 63.9955 84.9475 64.0805 85.0325 64.423V64.768L84.6925 66.3105C85.805 64.853 87.435 63.8255 88.4625 63.8255C88.8925 63.8255 89.235 64.0805 89.235 64.5105C89.235 64.768 89.235 65.1955 89.0625 65.6255C88.72 66.568 88.29 68.0255 88.0325 69.3105C88.0325 69.653 88.12 69.9955 88.55 69.9955C88.9775 69.9955 90.2625 69.4805 91.29 68.1105L91.3075 68.1005C91.3025 67.9305 91.29 67.7655 91.29 67.5955C91.29 66.568 91.3775 65.7105 91.55 65.1105C91.72 64.4255 92.5775 63.8255 93.0925 63.8255C93.35 63.8255 93.605 63.998 93.605 64.253C93.605 64.3405 93.605 64.5105 93.52 64.5955C93.1775 65.7105 92.92 66.738 92.92 67.768C92.92 68.368 93.005 69.223 93.175 69.738C93.175 69.823 93.2625 69.9105 93.35 69.9105C93.52 69.9105 94.72 68.798 95.575 67.3405C94.805 66.8255 94.375 65.968 94.375 64.9405C94.375 63.1405 95.49 62.198 96.52 62.198C97.3775 62.198 98.0625 62.798 98.0625 63.998C98.0625 64.768 97.805 65.623 97.3775 66.398H97.6325C97.9044 66.4068 98.1752 66.3579 98.4268 66.2545C98.6785 66.1511 98.9054 65.9955 99.0925 65.798C99.1712 65.6681 99.2882 65.5659 99.4275 65.5055C100.265 64.443 101.502 63.6555 102.952 63.6555C104.153 63.6555 105.263 64.168 105.35 65.1105C105.52 66.398 104.405 66.6555 104.062 66.6555L104.058 66.6505C103.713 66.6505 103.115 66.563 103.115 66.2205C103.115 65.878 103.888 66.0505 103.8 65.2805C103.715 64.7655 103.2 64.593 102.685 64.593C100.97 64.593 99.86 66.8205 100.115 68.6205C100.2 69.308 100.543 70.078 101.228 70.078C101.743 70.078 102.515 69.308 102.857 68.193C103.027 67.508 103.715 66.908 104.315 66.908C104.572 66.908 104.74 66.993 104.827 67.3355C104.827 67.508 104.827 67.8505 104.485 68.9655C104.06 69.7355 104.057 70.1655 104.142 70.508C104.227 71.193 104.57 71.708 104.915 71.9655C105 72.0505 105.085 72.2205 105.085 72.2205C105.085 72.393 105 72.5655 104.743 72.5655C104.658 72.5655 104.573 72.5655 104.485 72.478C103.2 71.9655 102.685 71.108 102.513 70.2505C102 70.8505 101.4 71.193 100.712 71.193C99.6 71.193 98.4875 70.1655 98.3125 68.878C98.2634 68.33 98.3272 67.7778 98.5 67.2555C97.9925 67.5805 97.445 67.763 96.9425 67.763H96.5175C95.4 69.393 94.2 70.508 93.3425 71.0205C93.0513 71.1755 92.7295 71.2643 92.4 71.2805C92.23 71.2805 91.9725 71.193 91.8875 71.0205C91.65 70.6405 91.4975 70.0405 91.405 69.353C90.2025 70.6705 88.5425 71.3655 87.7725 71.3655C86.915 71.3655 86.4025 70.8505 86.3175 69.9905V69.0505C86.5725 67.1655 87.26 66.0505 87.26 65.708C87.2577 65.6627 87.2388 65.6199 87.207 65.5877C87.1752 65.5554 87.1327 65.536 87.0875 65.533C86.4875 65.533 84.5175 67.593 84.1725 68.9655L83.915 70.078C83.745 70.8505 82.9725 71.3655 82.46 71.3655C82.2025 71.3655 82.03 71.278 81.945 70.9355V70.593L82.06 70.0105C80.9725 70.7855 79.885 71.2805 79.3725 71.2805C78.6025 71.2805 78.1725 70.8505 78.0875 70.2505C77.5725 70.9355 76.975 71.2805 76.2025 71.2805C75.3225 71.2805 74.4625 70.6805 74.0475 69.798C73.4375 70.4855 72.74 71.1805 71.9175 71.708C70.7175 72.4805 69.3475 73.0805 67.7175 73.0805C66.2625 73.0805 64.975 72.308 64.29 71.623C63.26 70.6805 62.6625 69.223 62.575 67.8505C62.0625 63.6505 64.6325 58.2505 68.575 55.8505C69.52 55.338 70.4625 54.993 71.405 54.993ZM95.83 63.2205C95.57 63.2205 95.4 63.6505 95.4 64.078C95.4 64.763 95.7425 65.5355 96.1725 65.9655C96.3401 65.4978 96.4264 65.0048 96.4275 64.508C96.4275 63.6505 96.0875 63.2205 95.83 63.2205Z" fill="#00C4CC"/>
<path d="M70.12 119.021C70.228 119.021 70.321 119.063 70.399 119.147L71.155 119.975C70.627 120.599 69.982 121.082 69.22 121.424C68.464 121.766 67.552 121.937 66.484 121.937C65.548 121.937 64.699 121.775 63.937 121.451C63.181 121.127 62.533 120.674 61.993 120.092C61.459 119.51 61.045 118.814 60.751 118.004C60.457 117.194 60.31 116.303 60.31 115.331C60.31 114.359 60.463 113.468 60.769 112.658C61.081 111.848 61.516 111.152 62.074 110.57C62.632 109.988 63.298 109.535 64.072 109.211C64.852 108.887 65.713 108.725 66.655 108.725C67.573 108.725 68.389 108.875 69.103 109.175C69.817 109.475 70.438 109.874 70.966 110.372L70.336 111.263C70.294 111.329 70.24 111.383 70.174 111.425C70.114 111.467 70.033 111.488 69.931 111.488C69.817 111.488 69.682 111.431 69.526 111.317C69.376 111.203 69.175 111.077 68.923 110.939C68.677 110.795 68.371 110.666 68.005 110.552C67.639 110.438 67.183 110.381 66.637 110.381C65.995 110.381 65.407 110.495 64.873 110.723C64.339 110.945 63.877 111.269 63.487 111.695C63.103 112.115 62.803 112.634 62.587 113.252C62.377 113.864 62.272 114.557 62.272 115.331C62.272 116.117 62.383 116.816 62.605 117.428C62.827 118.04 63.133 118.559 63.523 118.985C63.913 119.411 64.372 119.735 64.9 119.957C65.428 120.179 65.998 120.29 66.61 120.29C66.982 120.29 67.315 120.269 67.609 120.227C67.909 120.179 68.182 120.11 68.428 120.02C68.68 119.93 68.917 119.816 69.139 119.678C69.361 119.534 69.58 119.363 69.796 119.165C69.844 119.123 69.895 119.09 69.949 119.066C70.003 119.036 70.06 119.021 70.12 119.021ZM77.6353 117.734C76.9213 117.758 76.3153 117.815 75.8173 117.905C75.3193 117.989 74.9143 118.103 74.6023 118.247C74.2903 118.391 74.0653 118.562 73.9273 118.76C73.7893 118.952 73.7203 119.168 73.7203 119.408C73.7203 119.636 73.7563 119.834 73.8283 120.002C73.9063 120.164 74.0083 120.299 74.1343 120.407C74.2663 120.509 74.4193 120.584 74.5933 120.632C74.7673 120.68 74.9563 120.704 75.1603 120.704C75.4303 120.704 75.6763 120.677 75.8983 120.623C76.1263 120.569 76.3393 120.494 76.5373 120.398C76.7353 120.296 76.9243 120.173 77.1043 120.029C77.2843 119.885 77.4613 119.72 77.6353 119.534V117.734ZM72.4873 113.927C72.9973 113.441 73.5493 113.078 74.1433 112.838C74.7433 112.598 75.4003 112.478 76.1143 112.478C76.6363 112.478 77.0983 112.565 77.5003 112.739C77.9023 112.907 78.2413 113.144 78.5173 113.45C78.7933 113.756 79.0003 114.122 79.1383 114.548C79.2823 114.974 79.3543 115.445 79.3543 115.961V121.793H78.5713C78.3973 121.793 78.2653 121.766 78.1753 121.712C78.0853 121.652 78.0133 121.544 77.9593 121.388L77.7703 120.587C77.5363 120.803 77.3053 120.995 77.0773 121.163C76.8493 121.325 76.6093 121.466 76.3573 121.586C76.1113 121.7 75.8473 121.787 75.5653 121.847C75.2833 121.907 74.9713 121.937 74.6293 121.937C74.2693 121.937 73.9303 121.889 73.6123 121.793C73.3003 121.691 73.0273 121.538 72.7933 121.334C72.5593 121.13 72.3733 120.875 72.2353 120.569C72.1033 120.263 72.0373 119.906 72.0373 119.498C72.0373 119.138 72.1333 118.793 72.3253 118.463C72.5233 118.127 72.8413 117.827 73.2793 117.563C73.7233 117.299 74.2993 117.083 75.0073 116.915C75.7213 116.747 76.5973 116.651 77.6353 116.627V115.961C77.6353 115.271 77.4883 114.755 77.1943 114.413C76.9003 114.071 76.4683 113.9 75.8983 113.9C75.5143 113.9 75.1903 113.948 74.9263 114.044C74.6683 114.14 74.4433 114.248 74.2513 114.368C74.0653 114.482 73.9003 114.587 73.7563 114.683C73.6183 114.779 73.4743 114.827 73.3243 114.827C73.2043 114.827 73.0993 114.794 73.0093 114.728C72.9253 114.662 72.8563 114.584 72.8023 114.494L72.4873 113.927ZM83.3507 113.918C83.5487 113.708 83.7557 113.516 83.9717 113.342C84.1877 113.168 84.4157 113.021 84.6557 112.901C84.9017 112.775 85.1627 112.679 85.4387 112.613C85.7207 112.541 86.0207 112.505 86.3387 112.505C86.8427 112.505 87.2837 112.589 87.6617 112.757C88.0457 112.925 88.3667 113.162 88.6247 113.468C88.8827 113.768 89.0777 114.131 89.2097 114.557C89.3417 114.983 89.4077 115.454 89.4077 115.97V121.793H87.6437V115.97C87.6437 115.316 87.4937 114.809 87.1937 114.449C86.8937 114.083 86.4347 113.9 85.8167 113.9C85.3667 113.9 84.9437 114.008 84.5477 114.224C84.1577 114.434 83.7947 114.722 83.4587 115.088V121.793H81.7037V112.649H82.7567C83.0027 112.649 83.1557 112.766 83.2157 113L83.3507 113.918ZM99.5206 112.649L95.8126 121.793H94.2286L90.5206 112.649H91.9696C92.1076 112.649 92.2216 112.682 92.3116 112.748C92.4016 112.814 92.4616 112.898 92.4916 113L94.6786 118.616C94.7566 118.85 94.8226 119.084 94.8766 119.318C94.9366 119.546 94.9906 119.774 95.0386 120.002C95.0866 119.774 95.1406 119.546 95.2006 119.318C95.2606 119.09 95.3326 118.856 95.4166 118.616L97.6306 113C97.6666 112.898 97.7296 112.814 97.8196 112.748C97.9096 112.682 98.0176 112.649 98.1436 112.649H99.5206ZM105.62 117.734C104.906 117.758 104.3 117.815 103.802 117.905C103.304 117.989 102.899 118.103 102.587 118.247C102.275 118.391 102.05 118.562 101.912 118.76C101.774 118.952 101.705 119.168 101.705 119.408C101.705 119.636 101.741 119.834 101.813 120.002C101.891 120.164 101.993 120.299 102.119 120.407C102.251 120.509 102.404 120.584 102.578 120.632C102.752 120.68 102.941 120.704 103.145 120.704C103.415 120.704 103.661 120.677 103.883 120.623C104.111 120.569 104.324 120.494 104.522 120.398C104.72 120.296 104.909 120.173 105.089 120.029C105.269 119.885 105.446 119.72 105.62 119.534V117.734ZM100.472 113.927C100.982 113.441 101.534 113.078 102.128 112.838C102.728 112.598 103.385 112.478 104.099 112.478C104.621 112.478 105.083 112.565 105.485 112.739C105.887 112.907 106.226 113.144 106.502 113.45C106.778 113.756 106.985 114.122 107.123 114.548C107.267 114.974 107.339 115.445 107.339 115.961V121.793H106.556C106.382 121.793 106.25 121.766 106.16 121.712C106.07 121.652 105.998 121.544 105.944 121.388L105.755 120.587C105.521 120.803 105.29 120.995 105.062 121.163C104.834 121.325 104.594 121.466 104.342 121.586C104.096 121.7 103.832 121.787 103.55 121.847C103.268 121.907 102.956 121.937 102.614 121.937C102.254 121.937 101.915 121.889 101.597 121.793C101.285 121.691 101.012 121.538 100.778 121.334C100.544 121.13 100.358 120.875 100.22 120.569C100.088 120.263 100.022 119.906 100.022 119.498C100.022 119.138 100.118 118.793 100.31 118.463C100.508 118.127 100.826 117.827 101.264 117.563C101.708 117.299 102.284 117.083 102.992 116.915C103.706 116.747 104.582 116.651 105.62 116.627V115.961C105.62 115.271 105.473 114.755 105.179 114.413C104.885 114.071 104.453 113.9 103.883 113.9C103.499 113.9 103.175 113.948 102.911 114.044C102.653 114.14 102.428 114.248 102.236 114.368C102.05 114.482 101.885 114.587 101.741 114.683C101.603 114.779 101.459 114.827 101.309 114.827C101.189 114.827 101.084 114.794 100.994 114.728C100.91 114.662 100.841 114.584 100.787 114.494L100.472 113.927Z" fill="#343434"/>
</g>
<defs>
<filter id="filter0_d_191_884" x="0" y="0.792969" width="168" height="168" filterUnits="userSpaceOnUse" color-interpolation-filters="sRGB">
<feFlood flood-opacity="0" result="BackgroundImageFix"/>
<feColorMatrix in="SourceAlpha" type="matrix" values="0 0 0 0 0 0 0 0 0 0 0 0 0 0 0 0 0 0 127 0" result="hardAlpha"/>
<feOffset dy="4"/>
<feGaussianBlur stdDeviation="2"/>
<feComposite in2="hardAlpha" operator="out"/>
<feColorMatrix type="matrix" values="0 0 0 0 0 0 0 0 0 0 0 0 0 0 0 0 0 0 0.25 0"/>
<feBlend mode="normal" in2="BackgroundImageFix" result="effect1_dropShadow_191_884"/>
<feBlend mode="normal" in="SourceGraphic" in2="effect1_dropShadow_191_884" result="shape"/>
</filter>
</defs>
</svg>
