<svg width="168" height="169" viewBox="0 0 168 169" fill="none" xmlns="http://www.w3.org/2000/svg">
<g filter="url(#filter0_d_191_938)">
<rect x="4" y="0.792969" width="160" height="160" rx="20" fill="#FFE3BA" shape-rendering="crispEdges"/>
<rect x="9" y="5.79297" width="150" height="150" rx="15" stroke="#FFCD83" stroke-width="10" shape-rendering="crispEdges"/>
<path d="M62.3614 89.7951L57.5486 35.793H110.451L105.632 89.7865L83.9679 95.793L62.3614 89.7951Z" fill="#1572B6"/>
<path d="M84 91.2031L101.507 86.3495L105.626 40.2095H84V91.2031Z" fill="#33A9DC"/>
<path d="M84 59.7738H92.7643L93.3686 52.9916H84V46.368H84.0236H100.607L100.449 48.1445L98.8221 66.3973H84V59.7738Z" fill="white"/>
<path d="M84.0406 76.9744L84.0106 76.983L76.6349 74.9901L76.1634 69.708H72.5784H69.5142L70.442 80.1073L84.0084 83.8744L84.0406 83.8658V76.9744Z" fill="#EBEBEB"/>
<path d="M92.2007 66.1165L91.4035 74.9858L84.0171 76.9787V83.8701L97.5942 80.1073L97.6949 78.9887L98.8457 66.1165H92.2007Z" fill="white"/>
<path d="M84.0235 46.368V50.4823V52.9745V52.9916H68.0464H68.025L67.8921 51.5023L67.59 48.1445L67.4314 46.368H84.0235Z" fill="#EBEBEB"/>
<path d="M84 59.7738V63.8881V66.3803V66.3974H76.7379H76.7164L76.5836 64.9081L76.2836 61.5503L76.125 59.7738H84Z" fill="#EBEBEB"/>
<path d="M78.62 119.021C78.728 119.021 78.821 119.063 78.899 119.147L79.655 119.975C79.127 120.599 78.482 121.082 77.72 121.424C76.964 121.766 76.052 121.937 74.984 121.937C74.048 121.937 73.199 121.775 72.437 121.451C71.681 121.127 71.033 120.674 70.493 120.092C69.959 119.51 69.545 118.814 69.251 118.004C68.957 117.194 68.81 116.303 68.81 115.331C68.81 114.359 68.963 113.468 69.269 112.658C69.581 111.848 70.016 111.152 70.574 110.57C71.132 109.988 71.798 109.535 72.572 109.211C73.352 108.887 74.213 108.725 75.155 108.725C76.073 108.725 76.889 108.875 77.603 109.175C78.317 109.475 78.938 109.874 79.466 110.372L78.836 111.263C78.794 111.329 78.74 111.383 78.674 111.425C78.614 111.467 78.533 111.488 78.431 111.488C78.317 111.488 78.182 111.431 78.026 111.317C77.876 111.203 77.675 111.077 77.423 110.939C77.177 110.795 76.871 110.666 76.505 110.552C76.139 110.438 75.683 110.381 75.137 110.381C74.495 110.381 73.907 110.495 73.373 110.723C72.839 110.945 72.377 111.269 71.987 111.695C71.603 112.115 71.303 112.634 71.087 113.252C70.877 113.864 70.772 114.557 70.772 115.331C70.772 116.117 70.883 116.816 71.105 117.428C71.327 118.04 71.633 118.559 72.023 118.985C72.413 119.411 72.872 119.735 73.4 119.957C73.928 120.179 74.498 120.29 75.11 120.29C75.482 120.29 75.815 120.269 76.109 120.227C76.409 120.179 76.682 120.11 76.928 120.02C77.18 119.93 77.417 119.816 77.639 119.678C77.861 119.534 78.08 119.363 78.296 119.165C78.344 119.123 78.395 119.09 78.449 119.066C78.503 119.036 78.56 119.021 78.62 119.021ZM88.2683 110.975C88.2083 111.077 88.1453 111.152 88.0793 111.2C88.0133 111.248 87.9293 111.272 87.8273 111.272C87.7193 111.272 87.5963 111.224 87.4583 111.128C87.3203 111.026 87.1463 110.915 86.9363 110.795C86.7323 110.669 86.4863 110.558 86.1983 110.462C85.9103 110.36 85.5653 110.309 85.1633 110.309C84.7853 110.309 84.4523 110.36 84.1643 110.462C83.8823 110.558 83.6453 110.693 83.4533 110.867C83.2613 111.035 83.1143 111.236 83.0123 111.47C82.9163 111.698 82.8683 111.947 82.8683 112.217C82.8683 112.565 82.9553 112.853 83.1293 113.081C83.3093 113.309 83.5433 113.504 83.8313 113.666C84.1193 113.828 84.4463 113.969 84.8123 114.089C85.1783 114.209 85.5533 114.335 85.9373 114.467C86.3213 114.593 86.6963 114.74 87.0623 114.908C87.4283 115.076 87.7553 115.289 88.0433 115.547C88.3313 115.799 88.5623 116.111 88.7363 116.483C88.9163 116.849 89.0063 117.299 89.0063 117.833C89.0063 118.403 88.9073 118.937 88.7093 119.435C88.5173 119.933 88.2353 120.368 87.8633 120.74C87.4913 121.112 87.0323 121.406 86.4863 121.622C85.9463 121.832 85.3313 121.937 84.6413 121.937C84.2273 121.937 83.8253 121.895 83.4353 121.811C83.0453 121.733 82.6763 121.622 82.3283 121.478C81.9803 121.328 81.6533 121.151 81.3473 120.947C81.0473 120.737 80.7773 120.503 80.5373 120.245L81.0863 119.327C81.1403 119.255 81.2033 119.195 81.2753 119.147C81.3533 119.099 81.4403 119.075 81.5363 119.075C81.6623 119.075 81.8063 119.141 81.9683 119.273C82.1363 119.405 82.3403 119.552 82.5803 119.714C82.8263 119.87 83.1173 120.014 83.4533 120.146C83.7953 120.278 84.2093 120.344 84.6953 120.344C85.0913 120.344 85.4453 120.293 85.7573 120.191C86.0693 120.083 86.3303 119.933 86.5403 119.741C86.7563 119.543 86.9213 119.306 87.0353 119.03C87.1493 118.754 87.2063 118.448 87.2063 118.112C87.2063 117.734 87.1193 117.425 86.9453 117.185C86.7713 116.945 86.5403 116.744 86.2523 116.582C85.9643 116.42 85.6373 116.282 85.2713 116.168C84.9053 116.054 84.5303 115.937 84.1463 115.817C83.7623 115.691 83.3873 115.547 83.0213 115.385C82.6553 115.223 82.3283 115.013 82.0403 114.755C81.7523 114.491 81.5213 114.164 81.3473 113.774C81.1733 113.378 81.0863 112.892 81.0863 112.316C81.0863 111.854 81.1763 111.407 81.3563 110.975C81.5363 110.543 81.7973 110.162 82.1393 109.832C82.4873 109.496 82.9133 109.229 83.4173 109.031C83.9213 108.827 84.4973 108.725 85.1453 108.725C85.8713 108.725 86.5373 108.842 87.1433 109.076C87.7553 109.304 88.2863 109.634 88.7363 110.066L88.2683 110.975ZM98.0593 110.975C97.9993 111.077 97.9363 111.152 97.8703 111.2C97.8043 111.248 97.7203 111.272 97.6183 111.272C97.5103 111.272 97.3873 111.224 97.2493 111.128C97.1113 111.026 96.9373 110.915 96.7273 110.795C96.5233 110.669 96.2773 110.558 95.9893 110.462C95.7013 110.36 95.3563 110.309 94.9543 110.309C94.5763 110.309 94.2433 110.36 93.9553 110.462C93.6733 110.558 93.4363 110.693 93.2443 110.867C93.0523 111.035 92.9053 111.236 92.8033 111.47C92.7073 111.698 92.6593 111.947 92.6593 112.217C92.6593 112.565 92.7463 112.853 92.9203 113.081C93.1003 113.309 93.3343 113.504 93.6223 113.666C93.9103 113.828 94.2373 113.969 94.6033 114.089C94.9693 114.209 95.3443 114.335 95.7283 114.467C96.1123 114.593 96.4873 114.74 96.8533 114.908C97.2193 115.076 97.5463 115.289 97.8343 115.547C98.1223 115.799 98.3533 116.111 98.5273 116.483C98.7073 116.849 98.7973 117.299 98.7973 117.833C98.7973 118.403 98.6983 118.937 98.5003 119.435C98.3083 119.933 98.0263 120.368 97.6543 120.74C97.2823 121.112 96.8233 121.406 96.2773 121.622C95.7373 121.832 95.1223 121.937 94.4323 121.937C94.0183 121.937 93.6163 121.895 93.2263 121.811C92.8363 121.733 92.4673 121.622 92.1193 121.478C91.7713 121.328 91.4443 121.151 91.1383 120.947C90.8383 120.737 90.5683 120.503 90.3283 120.245L90.8773 119.327C90.9313 119.255 90.9943 119.195 91.0663 119.147C91.1443 119.099 91.2313 119.075 91.3273 119.075C91.4533 119.075 91.5973 119.141 91.7593 119.273C91.9273 119.405 92.1313 119.552 92.3713 119.714C92.6173 119.87 92.9083 120.014 93.2443 120.146C93.5863 120.278 94.0003 120.344 94.4863 120.344C94.8823 120.344 95.2363 120.293 95.5483 120.191C95.8603 120.083 96.1213 119.933 96.3313 119.741C96.5473 119.543 96.7123 119.306 96.8263 119.03C96.9403 118.754 96.9973 118.448 96.9973 118.112C96.9973 117.734 96.9103 117.425 96.7363 117.185C96.5623 116.945 96.3313 116.744 96.0433 116.582C95.7553 116.42 95.4283 116.282 95.0623 116.168C94.6963 116.054 94.3213 115.937 93.9373 115.817C93.5533 115.691 93.1783 115.547 92.8123 115.385C92.4463 115.223 92.1193 115.013 91.8313 114.755C91.5433 114.491 91.3123 114.164 91.1383 113.774C90.9643 113.378 90.8773 112.892 90.8773 112.316C90.8773 111.854 90.9673 111.407 91.1473 110.975C91.3273 110.543 91.5883 110.162 91.9303 109.832C92.2783 109.496 92.7043 109.229 93.2083 109.031C93.7123 108.827 94.2883 108.725 94.9363 108.725C95.6623 108.725 96.3283 108.842 96.9343 109.076C97.5463 109.304 98.0773 109.634 98.5273 110.066L98.0593 110.975Z" fill="#343434"/>
</g>
<defs>
<filter id="filter0_d_191_938" x="0" y="0.792969" width="168" height="168" filterUnits="userSpaceOnUse" color-interpolation-filters="sRGB">
<feFlood flood-opacity="0" result="BackgroundImageFix"/>
<feColorMatrix in="SourceAlpha" type="matrix" values="0 0 0 0 0 0 0 0 0 0 0 0 0 0 0 0 0 0 127 0" result="hardAlpha"/>
<feOffset dy="4"/>
<feGaussianBlur stdDeviation="2"/>
<feComposite in2="hardAlpha" operator="out"/>
<feColorMatrix type="matrix" values="0 0 0 0 0 0 0 0 0 0 0 0 0 0 0 0 0 0 0.25 0"/>
<feBlend mode="normal" in2="BackgroundImageFix" result="effect1_dropShadow_191_938"/>
<feBlend mode="normal" in="SourceGraphic" in2="effect1_dropShadow_191_938" result="shape"/>
</filter>
</defs>
</svg>
