<svg width="168" height="169" viewBox="0 0 168 169" fill="none" xmlns="http://www.w3.org/2000/svg">
<g filter="url(#filter0_d_191_908)">
<rect x="4" y="0.792969" width="160" height="160" rx="20" fill="#FFE3BA" shape-rendering="crispEdges"/>
<rect x="9" y="5.79297" width="150" height="150" rx="15" stroke="#FFCD83" stroke-width="10" shape-rendering="crispEdges"/>
<g clip-path="url(#clip0_191_908)">
<path d="M99.9375 35.793H68.0625C60.296 35.793 54 42.089 54 49.8555V81.7305C54 89.497 60.296 95.793 68.0625 95.793H99.9375C107.704 95.793 114 89.497 114 81.7305V49.8555C114 42.089 107.704 35.793 99.9375 35.793Z" fill="white"/>
<mask id="mask0_191_908" style="mask-type:luminance" maskUnits="userSpaceOnUse" x="68" y="42" width="32" height="48">
<path d="M68.2969 42.3555H99.5531V89.2305H68.2969V42.3555Z" fill="white"/>
</mask>
<g mask="url(#mask0_191_908)">
<path d="M76.1125 89.2305C80.425 89.2305 83.9249 85.7306 83.9249 81.4181V73.6054H76.1125C71.8 73.6054 68.2998 77.1056 68.2998 81.4181C68.2998 85.7306 71.8 89.2305 76.1125 89.2305Z" fill="#0ACF83"/>
<path d="M68.2998 65.793C68.2998 61.4805 71.8 57.9805 76.1125 57.9805H83.9249V73.6054H76.1125C71.8 73.6054 68.2998 70.1055 68.2998 65.793Z" fill="#A259FF"/>
<path d="M68.2998 50.1679C68.2998 45.8554 71.8 42.3555 76.1125 42.3555H83.9249V57.9805H76.1125C71.8 57.9805 68.2998 54.4804 68.2998 50.1679Z" fill="#F24E1E"/>
<path d="M83.9248 42.3555H91.7372C96.0497 42.3555 99.5499 45.8554 99.5499 50.1679C99.5499 54.4804 96.0497 57.9805 91.7372 57.9805H83.9248V42.3555Z" fill="#FF7262"/>
<path d="M99.5499 65.793C99.5499 70.1055 96.0497 73.6054 91.7372 73.6054C87.4247 73.6054 83.9248 70.1055 83.9248 65.793C83.9248 61.4805 87.4247 57.9805 91.7372 57.9805C96.0497 57.9805 99.5499 61.4805 99.5499 65.793Z" fill="#1ABCFE"/>
</g>
</g>
<path d="M63.519 110.426V114.755H68.703V116.312H63.519V121.793H61.593V108.869H69.603V110.426H63.519ZM73.2116 112.649V121.793H71.4566V112.649H73.2116ZM73.5446 109.823C73.5446 109.985 73.5116 110.141 73.4456 110.291C73.3796 110.435 73.2896 110.564 73.1756 110.678C73.0676 110.786 72.9386 110.873 72.7886 110.939C72.6386 110.999 72.4826 111.029 72.3206 111.029C72.1586 111.029 72.0056 110.999 71.8616 110.939C71.7176 110.873 71.5886 110.786 71.4746 110.678C71.3666 110.564 71.2796 110.435 71.2136 110.291C71.1536 110.141 71.1236 109.985 71.1236 109.823C71.1236 109.655 71.1536 109.499 71.2136 109.355C71.2796 109.205 71.3666 109.076 71.4746 108.968C71.5886 108.854 71.7176 108.767 71.8616 108.707C72.0056 108.641 72.1586 108.608 72.3206 108.608C72.4826 108.608 72.6386 108.641 72.7886 108.707C72.9386 108.767 73.0676 108.854 73.1756 108.968C73.2896 109.076 73.3796 109.205 73.4456 109.355C73.5116 109.499 73.5446 109.655 73.5446 109.823ZM78.9655 117.23C79.2775 117.23 79.5505 117.188 79.7845 117.104C80.0245 117.02 80.2225 116.903 80.3785 116.753C80.5405 116.597 80.6605 116.411 80.7385 116.195C80.8225 115.979 80.8645 115.742 80.8645 115.484C80.8645 114.956 80.7025 114.536 80.3785 114.224C80.0605 113.906 79.5895 113.747 78.9655 113.747C78.3475 113.747 77.8765 113.906 77.5525 114.224C77.2345 114.536 77.0755 114.956 77.0755 115.484C77.0755 115.742 77.1145 115.979 77.1925 116.195C77.2765 116.405 77.3965 116.588 77.5525 116.744C77.7145 116.894 77.9125 117.014 78.1465 117.104C78.3865 117.188 78.6595 117.23 78.9655 117.23ZM81.7645 122.27C81.7645 122.054 81.7045 121.883 81.5845 121.757C81.4645 121.625 81.2995 121.523 81.0895 121.451C80.8855 121.373 80.6455 121.319 80.3695 121.289C80.0935 121.253 79.8025 121.226 79.4965 121.208C79.1965 121.19 78.8875 121.175 78.5695 121.163C78.2515 121.145 77.9455 121.115 77.6515 121.073C77.3395 121.229 77.0815 121.418 76.8775 121.64C76.6795 121.862 76.5805 122.123 76.5805 122.423C76.5805 122.615 76.6285 122.795 76.7245 122.963C76.8265 123.131 76.9795 123.275 77.1835 123.395C77.3935 123.521 77.6545 123.617 77.9665 123.683C78.2845 123.755 78.6625 123.791 79.1005 123.791C79.5325 123.791 79.9135 123.752 80.2435 123.674C80.5735 123.602 80.8495 123.497 81.0715 123.359C81.2995 123.227 81.4705 123.068 81.5845 122.882C81.7045 122.696 81.7645 122.492 81.7645 122.27ZM83.5465 112.991V113.648C83.5465 113.864 83.4115 113.999 83.1415 114.053L82.1605 114.197C82.2445 114.383 82.3105 114.581 82.3585 114.791C82.4065 114.995 82.4305 115.211 82.4305 115.439C82.4305 115.889 82.3435 116.297 82.1695 116.663C81.9955 117.023 81.7555 117.332 81.4495 117.59C81.1435 117.848 80.7775 118.046 80.3515 118.184C79.9315 118.322 79.4695 118.391 78.9655 118.391C78.5515 118.391 78.1645 118.346 77.8045 118.256C77.6245 118.364 77.4865 118.484 77.3905 118.616C77.3005 118.742 77.2555 118.868 77.2555 118.994C77.2555 119.204 77.3425 119.36 77.5165 119.462C77.6965 119.564 77.9275 119.639 78.2095 119.687C78.4975 119.729 78.8245 119.756 79.1905 119.768C79.5625 119.78 79.9375 119.801 80.3155 119.831C80.6995 119.855 81.0745 119.903 81.4405 119.975C81.8125 120.041 82.1395 120.152 82.4215 120.308C82.7095 120.458 82.9405 120.668 83.1145 120.938C83.2945 121.202 83.3845 121.547 83.3845 121.973C83.3845 122.369 83.2855 122.753 83.0875 123.125C82.8955 123.497 82.6135 123.827 82.2415 124.115C81.8695 124.403 81.4165 124.634 80.8825 124.808C80.3485 124.982 79.7425 125.069 79.0645 125.069C78.3865 125.069 77.7955 125.003 77.2915 124.871C76.7935 124.739 76.3765 124.562 76.0405 124.34C75.7105 124.118 75.4615 123.86 75.2935 123.566C75.1315 123.272 75.0505 122.966 75.0505 122.648C75.0505 122.204 75.1885 121.829 75.4645 121.523C75.7405 121.211 76.1215 120.968 76.6075 120.794C76.3435 120.674 76.1335 120.512 75.9775 120.308C75.8215 120.098 75.7435 119.822 75.7435 119.48C75.7435 119.348 75.7675 119.213 75.8155 119.075C75.8635 118.931 75.9355 118.79 76.0315 118.652C76.1335 118.508 76.2565 118.373 76.4005 118.247C76.5505 118.121 76.7215 118.007 76.9135 117.905C76.4635 117.653 76.1095 117.32 75.8515 116.906C75.5935 116.486 75.4645 115.997 75.4645 115.439C75.4645 114.989 75.5515 114.584 75.7255 114.224C75.8995 113.864 76.1395 113.555 76.4455 113.297C76.7575 113.039 77.1265 112.841 77.5525 112.703C77.9845 112.565 78.4555 112.496 78.9655 112.496C79.7575 112.496 80.4385 112.661 81.0085 112.991H83.5465ZM85.1568 121.793V112.649H86.2098C86.4558 112.649 86.6088 112.766 86.6688 113L86.7948 113.873C87.1308 113.471 87.5028 113.144 87.9108 112.892C88.3248 112.634 88.8078 112.505 89.3598 112.505C89.9658 112.505 90.4578 112.673 90.8358 113.009C91.2138 113.339 91.4898 113.789 91.6638 114.359C91.7958 114.035 91.9668 113.756 92.1768 113.522C92.3868 113.288 92.6208 113.096 92.8788 112.946C93.1368 112.796 93.4098 112.685 93.6978 112.613C93.9918 112.541 94.2888 112.505 94.5888 112.505C95.0748 112.505 95.5068 112.583 95.8848 112.739C96.2688 112.889 96.5928 113.111 96.8568 113.405C97.1208 113.699 97.3218 114.062 97.4598 114.494C97.5978 114.926 97.6668 115.418 97.6668 115.97V121.793H95.9028V115.97C95.9028 115.286 95.7528 114.77 95.4528 114.422C95.1588 114.074 94.7268 113.9 94.1568 113.9C93.9048 113.9 93.6648 113.945 93.4368 114.035C93.2088 114.119 93.0078 114.248 92.8338 114.422C92.6658 114.596 92.5308 114.812 92.4288 115.07C92.3328 115.328 92.2848 115.628 92.2848 115.97V121.793H90.5208V115.97C90.5208 115.262 90.3798 114.74 90.0978 114.404C89.8158 114.068 89.4018 113.9 88.8558 113.9C88.4778 113.9 88.1268 113.999 87.8028 114.197C87.4788 114.395 87.1818 114.665 86.9118 115.007V121.793H85.1568ZM104.942 117.734C104.228 117.758 103.622 117.815 103.124 117.905C102.626 117.989 102.221 118.103 101.909 118.247C101.597 118.391 101.372 118.562 101.234 118.76C101.096 118.952 101.027 119.168 101.027 119.408C101.027 119.636 101.063 119.834 101.135 120.002C101.213 120.164 101.315 120.299 101.441 120.407C101.573 120.509 101.726 120.584 101.9 120.632C102.074 120.68 102.263 120.704 102.467 120.704C102.737 120.704 102.983 120.677 103.205 120.623C103.433 120.569 103.646 120.494 103.844 120.398C104.042 120.296 104.231 120.173 104.411 120.029C104.591 119.885 104.768 119.72 104.942 119.534V117.734ZM99.7939 113.927C100.304 113.441 100.856 113.078 101.45 112.838C102.05 112.598 102.707 112.478 103.421 112.478C103.943 112.478 104.405 112.565 104.807 112.739C105.209 112.907 105.548 113.144 105.824 113.45C106.1 113.756 106.307 114.122 106.445 114.548C106.589 114.974 106.661 115.445 106.661 115.961V121.793H105.878C105.704 121.793 105.572 121.766 105.482 121.712C105.392 121.652 105.32 121.544 105.266 121.388L105.077 120.587C104.843 120.803 104.612 120.995 104.384 121.163C104.156 121.325 103.916 121.466 103.664 121.586C103.418 121.7 103.154 121.787 102.872 121.847C102.59 121.907 102.278 121.937 101.936 121.937C101.576 121.937 101.237 121.889 100.919 121.793C100.607 121.691 100.334 121.538 100.1 121.334C99.8659 121.13 99.6799 120.875 99.5419 120.569C99.4099 120.263 99.3439 119.906 99.3439 119.498C99.3439 119.138 99.4399 118.793 99.6319 118.463C99.8299 118.127 100.148 117.827 100.586 117.563C101.03 117.299 101.606 117.083 102.314 116.915C103.028 116.747 103.904 116.651 104.942 116.627V115.961C104.942 115.271 104.795 114.755 104.501 114.413C104.207 114.071 103.775 113.9 103.205 113.9C102.821 113.9 102.497 113.948 102.233 114.044C101.975 114.14 101.75 114.248 101.558 114.368C101.372 114.482 101.207 114.587 101.063 114.683C100.925 114.779 100.781 114.827 100.631 114.827C100.511 114.827 100.406 114.794 100.316 114.728C100.232 114.662 100.163 114.584 100.109 114.494L99.7939 113.927Z" fill="#343434"/>
</g>
<defs>
<filter id="filter0_d_191_908" x="0" y="0.792969" width="168" height="168" filterUnits="userSpaceOnUse" color-interpolation-filters="sRGB">
<feFlood flood-opacity="0" result="BackgroundImageFix"/>
<feColorMatrix in="SourceAlpha" type="matrix" values="0 0 0 0 0 0 0 0 0 0 0 0 0 0 0 0 0 0 127 0" result="hardAlpha"/>
<feOffset dy="4"/>
<feGaussianBlur stdDeviation="2"/>
<feComposite in2="hardAlpha" operator="out"/>
<feColorMatrix type="matrix" values="0 0 0 0 0 0 0 0 0 0 0 0 0 0 0 0 0 0 0.25 0"/>
<feBlend mode="normal" in2="BackgroundImageFix" result="effect1_dropShadow_191_908"/>
<feBlend mode="normal" in="SourceGraphic" in2="effect1_dropShadow_191_908" result="shape"/>
</filter>
<clipPath id="clip0_191_908">
<rect width="60" height="60" fill="white" transform="translate(54 35.793)"/>
</clipPath>
</defs>
</svg>
