<svg width="350" height="320" viewBox="0 0 350 301" fill="none" xmlns="http://www.w3.org/2000/svg">
<path d="M350 264.443H0V264.645H350V264.443Z" fill="#E6E6E6"/>
<path d="M97.3908 273.695H58.7998V273.897H97.3908V273.695Z" fill="#E6E6E6"/>
<path d="M51.2262 273.792H46.8232V273.993H51.2262V273.792Z" fill="#E6E6E6"/>
<path d="M171.766 270.265H163.562V270.466H171.766V270.265Z" fill="#E6E6E6"/>
<path d="M220.92 270.265H175.798V270.466H220.92V270.265Z" fill="#E6E6E6"/>
<path d="M285.299 273.993H255.899V274.194H285.299V273.993Z" fill="#E6E6E6"/>
<path d="M252.014 273.993H242.669V274.194H252.014V273.993Z" fill="#E6E6E6"/>
<path d="M317.289 270.361H292.362V270.563H317.289V270.361Z" fill="#E6E6E6"/>
<path d="M165.9 228.529H30.7368C29.678 228.527 28.6631 228.042 27.915 227.18C27.167 226.318 26.7468 225.149 26.7468 223.931V5.36527C26.756 4.15421 27.1803 2.99624 27.9273 2.14288C28.6744 1.28952 29.684 0.809692 30.7368 0.807617H165.9C166.96 0.807617 167.977 1.29204 168.726 2.15432C169.476 3.01659 169.897 4.18609 169.897 5.40553V223.931C169.897 225.151 169.476 226.32 168.726 227.183C167.977 228.045 166.96 228.529 165.9 228.529ZM30.7368 0.968666C29.7244 0.970799 28.754 1.43495 28.0388 2.25924C27.3235 3.08354 26.9218 4.20061 26.9218 5.36527V223.931C26.9218 225.096 27.3235 226.213 28.0388 227.037C28.754 227.862 29.7244 228.326 30.7368 228.328H165.9C166.913 228.326 167.884 227.862 168.6 227.038C169.317 226.214 169.72 225.097 169.722 223.931V5.36527C169.72 4.19987 169.317 3.08282 168.6 2.25875C167.884 1.43469 166.913 0.970794 165.9 0.968666H30.7368Z" fill="#E6E6E6"/>
<path d="M317.317 228.529H182.147C181.088 228.527 180.072 228.042 179.323 227.18C178.574 226.318 178.152 225.15 178.15 223.931V5.36527C178.161 4.15348 178.587 2.99551 179.335 2.14238C180.083 1.28924 181.094 0.809669 182.147 0.807617H317.317C318.369 0.811808 319.377 1.29257 320.122 2.14571C320.868 2.99884 321.291 4.1556 321.3 5.36527V223.931C321.3 225.148 320.881 226.315 320.134 227.177C319.388 228.039 318.375 228.525 317.317 228.529ZM182.147 0.968666C181.134 0.970794 180.163 1.43469 179.447 2.25875C178.73 3.08282 178.327 4.19987 178.325 5.36527V223.931C178.327 225.097 178.73 226.214 179.447 227.038C180.163 227.862 181.134 228.326 182.147 228.328H317.317C318.33 228.326 319.301 227.862 320.018 227.038C320.734 226.214 321.137 225.097 321.139 223.931V5.36527C321.137 4.19987 320.734 3.08282 320.018 2.25875C319.301 1.43469 318.33 0.970794 317.317 0.968666H182.147Z" fill="#E6E6E6"/>
<path d="M137.809 143.681L309.953 143.681V15.8093L137.809 15.8093V143.681Z" fill="#E0E0E0"/>
<path d="M135.219 143.681L308.742 143.681V15.8093L135.219 15.8093V143.681Z" fill="#F5F5F5"/>
<path d="M137.809 146.556L309.953 146.556V143.681L137.809 143.681V146.556Z" fill="#EBEBEB"/>
<path d="M123.361 146.556L291.214 146.556V143.681L123.361 143.681V146.556Z" fill="#F5F5F5"/>
<path d="M305.109 138.254V21.2283L138.845 21.2283V138.254H305.109Z" fill="#FAFAFA"/>
<path d="M264.6 138.254L243.292 21.2366H216.111L237.412 138.254H264.6Z" fill="white"/>
<path d="M229.726 138.254L208.418 21.2366H195.804L217.112 138.254H229.726Z" fill="white"/>
<path d="M139.307 126.014V20.5037H138.845V126.014H139.307Z" fill="#D4E1FD"/>
<path d="M312.676 16.9123V62.4083H302.176C302.176 62.4083 283.367 48.2925 279.076 19.2555C278.974 18.5638 279.005 17.8549 279.165 17.1782C279.326 16.5014 279.613 15.873 280.006 15.3366C280.399 14.8001 280.889 14.3686 281.441 14.072C281.994 13.7754 282.596 13.6207 283.206 13.6189H309.806C310.183 13.6157 310.557 13.6986 310.906 13.8629C311.255 14.0272 311.572 14.2695 311.839 14.5758C312.106 14.8822 312.317 15.2465 312.461 15.6476C312.605 16.0486 312.678 16.4785 312.676 16.9123Z" fill="#E6E6E6"/>
<path d="M312.676 134.131V64.8241H302.176C302.176 64.8241 296.156 78.8192 290.157 94.9078C288.573 99.1892 287.934 103.855 288.299 108.489C288.664 113.124 290.02 117.582 292.248 121.466C294.475 125.35 297.504 128.54 301.063 130.75C304.623 132.96 308.603 134.121 312.648 134.131H312.676Z" fill="#E6E6E6"/>
<path d="M302.512 64.8241H312.291C312.871 64.8241 313.341 64.2833 313.341 63.6162V62.3601C313.341 61.693 312.871 61.1522 312.291 61.1522H302.512C301.932 61.1522 301.462 61.693 301.462 62.3601V63.6162C301.462 64.2833 301.932 64.8241 302.512 64.8241Z" fill="#F5F5F5"/>
<path d="M132.251 16.9122V62.4082H142.751C142.751 62.4082 161.567 48.2924 165.851 19.2555C165.953 18.5637 165.922 17.8549 165.762 17.1781C165.601 16.5013 165.314 15.8729 164.921 15.3365C164.528 14.8001 164.038 14.3685 163.486 14.0719C162.933 13.7753 162.331 13.6207 161.721 13.6188H135.1C134.725 13.6188 134.353 13.7041 134.007 13.8698C133.66 14.0355 133.345 14.2783 133.08 14.5844C132.816 14.8904 132.606 15.2536 132.464 15.6531C132.322 16.0526 132.249 16.4805 132.251 16.9122Z" fill="#E6E6E6"/>
<path d="M132.251 134.131V64.8241H142.751C142.751 64.8241 148.771 78.8192 154.777 94.9078C156.362 99.1898 157 103.857 156.635 108.491C156.27 113.126 154.913 117.585 152.684 121.469C150.456 125.354 147.427 128.543 143.866 130.753C140.305 132.962 136.325 134.123 132.279 134.131H132.251Z" fill="#E6E6E6"/>
<path d="M142.415 61.1526H132.636C132.056 61.1526 131.586 61.6934 131.586 62.3604V63.6166C131.586 64.2837 132.056 64.8245 132.636 64.8245H142.415C142.995 64.8245 143.465 64.2837 143.465 63.6166V62.3604C143.465 61.6934 142.995 61.1526 142.415 61.1526Z" fill="#F5F5F5"/>
<path d="M53.879 105.135H94.675L94.675 35.0386H53.879L53.879 105.135Z" fill="#E6E6E6"/>
<path d="M47.971 105.135H93.625L93.625 35.0386H47.971L47.971 105.135Z" fill="#F0F0F0"/>
<path d="M88.9211 99.7234V40.4578H52.6821V99.7234H88.9211Z" fill="white"/>
<path d="M78.169 82.1369V74.9944C78.169 70.5096 76.6202 66.2084 73.8635 63.0372C71.1067 59.8659 67.3677 58.0844 63.469 58.0844V65.2268C63.469 69.7116 65.0177 74.0128 67.7745 77.184C70.5313 80.3553 74.2703 82.1369 78.169 82.1369Z" fill="#E6E6E6"/>
<path d="M133.196 264.443H163.233V182.502H133.196V264.443Z" fill="#E0E0E0"/>
<path d="M141.218 264.443H133.196V248.982H149.632L141.218 264.443Z" fill="#FAFAFA"/>
<path d="M284.529 264.443H314.566V182.502H284.529V264.443Z" fill="#EBEBEB"/>
<path d="M133.196 259.12H291.522V182.502L133.196 182.502V259.12Z" fill="#FAFAFA"/>
<path d="M283.507 264.443H291.529V248.982H275.1L283.507 264.443Z" fill="#FAFAFA"/>
<path d="M139.419 216.765L285.306 216.765V190.063L139.419 190.063V216.765Z" fill="#EBEBEB"/>
<path d="M139.419 251.293L285.306 251.293V224.592L139.419 224.592V251.293Z" fill="#EBEBEB"/>
<path d="M165.025 216.765L285.299 216.765V190.063L165.025 190.063V216.765Z" fill="#E0E0E0"/>
<path d="M184.422 197.374H177.24C173.208 204.179 171.248 216.765 180.831 216.765C190.414 216.765 188.461 204.179 184.422 197.374Z" fill="#F5F5F5"/>
<path d="M254.345 154.423H267.281C267.281 154.423 265.034 160.68 265.034 164.368C265.034 168.056 274.869 182.494 260.834 182.494C246.799 182.494 256.634 168.056 256.634 164.368C256.634 160.68 254.345 154.423 254.345 154.423Z" fill="#EBEBEB"/>
<path d="M236.677 174.2C236.677 178.766 229.852 182.494 221.508 182.494H213.983C205.639 182.494 198.814 178.766 198.814 174.2H236.677Z" fill="#F0F0F0"/>
<path d="M232.813 208.471C232.813 213.037 228.214 216.765 222.593 216.765H217.511C211.911 216.765 207.291 213.037 207.291 208.471H232.813Z" fill="#F5F5F5"/>
<path d="M232.813 203.414C232.813 207.979 228.214 211.708 222.593 211.708H217.511C211.911 211.708 207.291 207.979 207.291 203.414H232.813Z" fill="#F5F5F5"/>
<path d="M165.025 251.293L285.299 251.293V224.592L165.025 224.592V251.293Z" fill="#E0E0E0"/>
<path d="M206.115 243C206.115 247.558 201.516 251.294 195.895 251.294H190.82C185.22 251.294 180.593 247.558 180.593 243H206.115Z" fill="#F5F5F5"/>
<path d="M206.115 237.943C206.115 242.508 201.516 246.237 195.895 246.237H190.82C185.22 246.237 180.593 242.508 180.593 237.943H206.115Z" fill="#F5F5F5"/>
<path d="M266.903 243C266.903 247.558 262.297 251.294 256.676 251.294H251.601C246.001 251.294 241.374 247.558 241.374 243H266.903Z" fill="#F5F5F5"/>
<path d="M266.903 237.943C266.903 242.508 262.297 246.237 256.676 246.237H251.601C246.001 246.237 241.374 242.508 241.374 237.943H266.903Z" fill="#F5F5F5"/>
<path d="M80.094 249.989C78.323 228.924 76.734 170.085 77.77 159.52L80.22 157.459C80.22 157.459 79.471 195.885 80.787 228.151C82.103 260.417 80.976 245.19 81.529 249.989H80.094Z" fill="#E0E0E0"/>
<path d="M73.2551 208.084C68.3201 203.623 58.2261 200.451 47.9501 200.467C43.9111 200.507 60.2001 205.661 67.0111 211.378C72.2821 215.823 78.2111 223.295 80.2481 227.442C78.9391 218.714 78.1971 212.586 73.2551 208.084Z" fill="#E0E0E0"/>
<path d="M83.048 214.679C87.15 210.033 96.614 206.466 106.848 206.055C110.866 205.902 95.564 211.732 89.859 217.707C85.421 222.353 80.871 230.035 79.618 234.254C79.331 225.469 78.946 219.325 83.048 214.679Z" fill="#E0E0E0"/>
<path d="M73.038 176.615C68.838 172.839 60.312 170.174 51.604 170.174C48.188 170.174 62.006 174.57 67.746 179.418C72.212 183.178 77.245 189.507 78.946 193.018C77.847 185.618 77.217 180.376 73.038 176.615Z" fill="#E0E0E0"/>
<path d="M81.326 182.204C84.826 178.266 92.813 175.247 101.493 174.901C104.895 174.772 91.938 179.732 87.101 184.765C83.349 188.694 79.499 195.233 78.435 198.776C78.183 191.368 77.854 186.142 81.326 182.204Z" fill="#E0E0E0"/>
<path d="M79.31 153.424C81.781 150.203 87.766 147.49 94.381 146.789C96.978 146.507 87.304 150.96 83.846 155.099C81.158 158.32 78.519 163.514 77.875 166.316C77.336 160.631 76.839 156.621 79.31 153.424Z" fill="#E0E0E0"/>
<path d="M77.6999 155.55C75.9149 152.788 71.6729 150.389 67.0179 149.72C65.1909 149.455 72.0509 153.368 74.5429 156.968C76.492 159.862 77.9738 163.134 78.9179 166.63C79.1979 161.735 79.4779 158.312 77.6999 155.55Z" fill="#E0E0E0"/>
<path d="M80.416 264.443C77.8099 264.442 75.3027 263.295 73.4079 261.236C71.5131 259.178 70.3741 256.364 70.224 253.371L69.3 243.483H91.49L90.594 253.371C90.4425 256.361 89.3049 259.171 87.4135 261.229C85.522 263.286 83.0193 264.436 80.416 264.443Z" fill="#F0F0F0"/>
<path d="M92.953 247.565H67.886L67.165 240.084H93.667L92.953 247.565Z" fill="#EBEBEB"/>
<path d="M175 300.808C249.958 300.808 310.723 296.727 310.723 291.693C310.723 286.658 249.958 282.577 175 282.577C100.042 282.577 39.2771 286.658 39.2771 291.693C39.2771 296.727 100.042 300.808 175 300.808Z" fill="#F5F5F5"/>
<path d="M229.6 108.041C229.243 109.257 228.9 110.304 228.522 111.407C228.144 112.51 227.752 113.573 227.346 114.628C226.527 116.778 225.617 118.88 224.63 120.957C223.63 123.066 222.522 125.104 221.312 127.061C220.043 129.131 218.589 131.042 216.972 132.762C216.538 133.205 216.097 133.648 215.607 134.058C215.348 134.276 215.159 134.461 214.844 134.694C214.529 134.928 214.228 135.137 213.899 135.339C212.544 136.164 211.029 136.583 209.496 136.555C208.092 136.522 206.708 136.16 205.429 135.492C204.324 134.911 203.283 134.181 202.328 133.318C200.631 131.748 199.12 129.928 197.834 127.906C197.197 126.956 196.63 125.95 196.084 124.943C195.538 123.936 195.048 122.938 194.565 121.803L197.82 119.475C198.38 120.224 199.024 121.086 199.654 121.827C200.284 122.568 200.949 123.333 201.607 124.049C202.857 125.431 204.235 126.651 205.716 127.689C207.116 128.623 208.516 129.09 209.363 128.929C209.785 128.857 210.187 128.675 210.539 128.398L210.833 128.14C210.917 128.067 211.092 127.874 211.225 127.753C211.505 127.48 211.785 127.157 212.058 126.835C214.383 123.815 216.329 120.435 217.84 116.794C218.687 114.918 219.457 112.977 220.213 111.02C220.584 110.046 220.948 109.056 221.291 108.065C221.634 107.075 221.991 106.044 222.285 105.142L229.6 108.041Z" fill="#E4897B"/>
<path d="M231.7 105.158C232.792 110.626 222.369 124.605 222.369 124.605L212.996 116.762C215.072 112.233 217.564 107.973 220.43 104.055C224.7 98.4427 230.496 99.1594 231.7 105.158Z" fill="#FFAC2F"/>
<path opacity="0.7" d="M231.7 105.158C232.792 110.626 222.369 124.605 222.369 124.605L212.996 116.762C215.072 112.233 217.564 107.973 220.43 104.055C224.7 98.4427 230.496 99.1594 231.7 105.158Z" fill="white"/>
<path d="M254.513 104.345C252.666 110.553 251.225 116.91 250.201 123.365C249.466 127.866 248.934 132.174 248.535 136.088C247.597 145.259 247.38 152.289 247.009 154.648L219.975 150.461C218.141 116.883 226.163 100.246 226.163 100.246C228.337 99.944 230.525 99.7961 232.715 99.8035C233.177 99.8035 233.646 99.8035 234.115 99.8438C237.973 100.182 241.811 100.776 245.609 101.623C246.309 101.776 247.058 101.953 247.765 102.139C251.37 103.073 254.513 104.345 254.513 104.345Z" fill="#FFAC2F"/>
<path opacity="0.7" d="M254.513 104.345C252.666 110.553 251.225 116.91 250.201 123.365C249.466 127.866 248.934 132.174 248.535 136.088C247.597 145.259 247.38 152.289 247.009 154.648L219.975 150.461C218.141 116.883 226.163 100.246 226.163 100.246C228.337 99.944 230.525 99.7961 232.715 99.8035C233.177 99.8035 233.646 99.8035 234.115 99.8438C237.973 100.182 241.811 100.776 245.609 101.623C246.309 101.776 247.058 101.953 247.765 102.139C251.37 103.073 254.513 104.345 254.513 104.345Z" fill="white"/>
<path d="M250.201 123.365C249.466 127.867 248.934 132.175 248.535 136.088L244.881 126.377L250.201 123.365Z" fill="#FFAC2F"/>
<path opacity="0.5" d="M250.201 123.365C249.466 127.867 248.934 132.175 248.535 136.088L244.881 126.377L250.201 123.365Z" fill="white"/>
<path d="M206.5 281.272L201.684 279.348L204.267 265.997L209.083 267.921L206.5 281.272Z" fill="#E4897B"/>
<path d="M252.84 284.421H247.744L243.768 270.829H248.871L252.84 284.421Z" fill="#E4897B"/>
<path d="M204.267 266.005L202.93 272.882L207.753 274.806L209.083 267.922L204.267 266.005Z" fill="#CE6F64"/>
<path d="M248.871 270.837H243.768L245.819 277.842H250.922L248.871 270.837Z" fill="#CE6F64"/>
<path d="M201.509 270.885L209.678 274.106C209.678 274.106 217.665 237.87 220.178 219.809C220.934 214.317 222.642 206.715 224.7 198.599C227.29 188.372 230.447 177.34 233.009 168.708C235.718 159.617 237.748 153.191 237.748 153.191L219.975 150.437C219.975 150.437 206.437 198.188 204.911 216.008C203.315 234.56 201.509 270.885 201.509 270.885Z" fill="#FFAC2F"/>
<path opacity="0.6" d="M201.509 270.885L209.678 274.106C209.678 274.106 217.665 237.87 220.178 219.809C220.934 214.317 222.642 206.715 224.7 198.599C227.29 188.372 230.447 177.34 233.009 168.708C235.718 159.617 237.748 153.191 237.748 153.191L219.975 150.437C219.975 150.437 206.437 198.188 204.911 216.008C203.315 234.56 201.509 270.885 201.509 270.885Z" fill="black"/>
<path opacity="0.4" d="M224.7 198.623C227.29 188.396 230.447 177.364 233.009 168.732L231.42 164.005C226.653 169.731 224.406 188.38 224.7 198.623Z" fill="black"/>
<path d="M229.558 151.951C229.558 151.951 228.683 202.214 229.88 219.35C231.196 238.112 243.418 276.522 243.418 276.522H252.763C252.763 276.522 246.526 241.405 244.615 223.183C242.438 202.423 247.002 154.689 247.002 154.689L229.558 151.951Z" fill="#FFAC2F"/>
<path opacity="0.6" d="M229.558 151.951C229.558 151.951 228.683 202.214 229.88 219.35C231.196 238.112 243.418 276.522 243.418 276.522H252.763C252.763 276.522 246.526 241.405 244.615 223.183C242.438 202.423 247.002 154.689 247.002 154.689L229.558 151.951Z" fill="black"/>
<path d="M247.058 283.736H253.281C253.382 283.737 253.48 283.778 253.559 283.851C253.638 283.924 253.693 284.025 253.715 284.139L254.723 289.357C254.746 289.484 254.744 289.615 254.717 289.741C254.69 289.867 254.638 289.985 254.566 290.084C254.494 290.184 254.404 290.264 254.301 290.318C254.199 290.372 254.087 290.399 253.974 290.396C251.972 290.356 250.516 290.227 247.996 290.227C246.442 290.227 241.766 290.412 239.631 290.412C237.496 290.412 237.209 287.996 238.084 287.755C242.011 286.764 244.972 285.403 246.232 284.099C246.46 283.867 246.753 283.738 247.058 283.736Z" fill="#646464"/>
<path d="M201.908 278.72L207.172 280.814C207.268 280.853 207.35 280.928 207.405 281.027C207.459 281.127 207.483 281.244 207.473 281.361L206.941 286.668C206.929 286.797 206.891 286.921 206.831 287.03C206.771 287.14 206.69 287.233 206.594 287.301C206.498 287.369 206.39 287.411 206.278 287.425C206.166 287.438 206.053 287.421 205.947 287.376C204.064 286.571 201.355 285.363 198.947 284.413C196.147 283.302 193.697 282.521 190.421 281.192C188.447 280.387 188.587 277.883 189.483 277.971C193.536 278.527 196.644 279.646 200.599 278.631C201.034 278.523 201.487 278.553 201.908 278.72Z" fill="#646464"/>
<path d="M197.834 121.819L199.892 115.86L193.382 115.602C192.958 116.703 192.852 117.931 193.079 119.106C193.306 120.281 193.853 121.342 194.642 122.133L197.834 121.819Z" fill="#E4897B"/>
<path d="M200.599 111.85L195.496 112.986L193.382 115.603L199.892 115.86L200.599 111.85Z" fill="#E4897B"/>
<path d="M232.876 124.267C231.833 124.262 230.831 123.798 230.076 122.971C229.506 122.309 229.067 121.512 228.79 120.636C228.514 119.761 228.405 118.826 228.473 117.898C228.62 114.113 231.028 110.739 233.828 110.385C234.427 110.302 235.035 110.371 235.608 110.589C236.182 110.806 236.707 111.165 237.146 111.641C237.716 112.303 238.155 113.099 238.432 113.975C238.708 114.851 238.817 115.785 238.749 116.714C238.602 120.507 236.194 123.88 233.394 124.235C233.222 124.259 233.049 124.269 232.876 124.267ZM234.276 111.158H233.87C231.399 111.472 229.271 114.507 229.131 117.914C229.071 118.727 229.165 119.546 229.406 120.313C229.648 121.081 230.032 121.778 230.531 122.359C230.896 122.758 231.333 123.059 231.811 123.241C232.289 123.424 232.796 123.482 233.296 123.413C235.767 123.091 237.895 120.064 238.035 116.657C238.093 115.843 237.998 115.024 237.756 114.256C237.515 113.487 237.132 112.788 236.635 112.204C236 111.511 235.158 111.125 234.283 111.125L234.276 111.158Z" fill="#FAFAFA"/>
<path d="M246.218 86.5575C245 90.7045 243.362 98.3865 245.616 101.624C244.317 102.814 242.812 103.67 241.2 104.133C239.589 104.595 237.911 104.654 236.278 104.305C233.107 103.733 233.247 101.148 234.122 99.8439C238.378 99.3527 238.686 95.8177 238.322 92.3955L246.218 86.5575Z" fill="#E4897B"/>
<path d="M243.012 88.941L238.357 92.3955C238.442 93.1968 238.468 94.005 238.434 94.8112C240.044 94.8112 242.438 93.1363 242.83 91.2682C243.015 90.5121 243.077 89.723 243.012 88.941Z" fill="#CE6F64"/>
<path d="M236.859 69.9373C232.911 69.5669 231.539 80.5101 234.003 82.6117C236.467 84.7134 244.258 70.6298 236.859 69.9373Z" fill="#646464"/>
<path d="M247.408 80.2282C246.428 85.9374 246.106 89.3435 243.208 91.9042C238.882 95.7613 233.009 92.1699 232.491 86.2675C232.022 80.9207 233.709 72.4818 238.875 70.968C240.01 70.6214 241.204 70.6139 242.342 70.9462C243.481 71.2785 244.527 71.9395 245.381 72.8668C246.236 73.794 246.87 74.9568 247.225 76.245C247.58 77.5332 247.643 78.9042 247.408 80.2282Z" fill="#E4897B"/>
<path d="M246.4 85.8169C243.95 87.5723 241.598 71.9748 248.388 72.3372C256.711 72.7881 251.601 82.1369 246.4 85.8169Z" fill="#646464"/>
<path d="M248.192 75.1147C244.93 73.0292 240.058 75.6462 236.719 73.8183C233.38 71.9904 227.654 73.5928 230.342 67.9964C231.154 69.6069 234.64 69.7035 236.453 67.4167C238.266 65.1298 240.653 64.4695 242.053 66.9738C243.453 69.4781 247.338 64.4695 250.649 67.6904C253.519 70.4524 253.113 78.2632 248.192 75.1147Z" fill="#646464"/>
<path d="M250.873 73.7944C250.873 73.7944 253.827 73.6817 254.373 71.9182C254.408 73.6575 253.673 74.801 250.873 73.7944Z" fill="#646464"/>
<path d="M248.927 86.968C248.109 88.0901 246.939 88.7961 245.672 88.9327C243.992 89.0857 243.467 87.2739 244.202 85.6393C244.86 84.1657 246.533 82.3137 248.087 82.9176C248.426 83.0558 248.73 83.2894 248.971 83.5973C249.211 83.9051 249.381 84.2773 249.464 84.68C249.548 85.0827 249.543 85.503 249.449 85.9026C249.355 86.3022 249.175 86.6685 248.927 86.968Z" fill="#E4897B"/>
<path d="M242.298 276.715H253.302V272.93L241.003 272.689L242.298 276.715Z" fill="#FFAC2F"/>
<path d="M200.424 270.692L210.147 274.565L211.232 270.957L200.417 266.432L200.424 270.692Z" fill="#FFAC2F"/>
<path d="M239.611 80.6498C239.666 80.1826 239.493 79.7702 239.224 79.7286C238.956 79.6871 238.694 80.0321 238.64 80.4993C238.585 80.9665 238.758 81.3789 239.026 81.4204C239.295 81.462 239.556 81.117 239.611 80.6498Z" fill="#646464"/>
<path d="M235.018 79.9465C234.962 80.4136 234.703 80.7518 234.437 80.7518C234.171 80.7518 233.996 80.3008 234.052 79.8257C234.108 79.3507 234.367 79.0205 234.633 79.0205C234.899 79.0205 235.074 79.4795 235.018 79.9465Z" fill="#646464"/>
<path d="M236.453 80.4055C235.8 81.7646 234.987 83.0137 234.038 84.1177C234.289 84.3894 234.59 84.5944 234.917 84.7183C235.245 84.8421 235.593 84.8817 235.935 84.8343L236.453 80.4055Z" fill="#DE5753"/>
<path d="M237.51 86.3561C237.33 86.3582 237.15 86.3448 236.971 86.3158C236.94 86.3099 236.912 86.291 236.893 86.2627C236.873 86.2344 236.864 86.1988 236.866 86.1628C236.871 86.1258 236.889 86.0925 236.915 86.0699C236.941 86.0474 236.974 86.0374 237.006 86.0421C237.511 86.1323 238.028 86.0845 238.515 85.9027C239.001 85.7209 239.443 85.41 239.806 84.9952C239.829 84.9692 239.861 84.9546 239.894 84.9546C239.926 84.9546 239.958 84.9692 239.981 84.9952C240.003 85.0209 240.016 85.0556 240.016 85.0919C240.016 85.1281 240.003 85.1628 239.981 85.1885C239.658 85.563 239.273 85.8592 238.848 86.0598C238.424 86.2603 237.969 86.3611 237.51 86.3561Z" fill="#646464"/>
<path d="M241.248 79.1656C241.205 79.1664 241.164 79.1541 241.127 79.13C241.09 79.106 241.059 79.071 241.038 79.0287C240.899 78.7238 240.7 78.4604 240.457 78.2592C240.214 78.0579 239.933 77.9244 239.638 77.8691C239.603 77.8724 239.567 77.8669 239.534 77.853C239.501 77.839 239.471 77.817 239.446 77.7884C239.42 77.7597 239.401 77.7252 239.389 77.6872C239.376 77.6491 239.371 77.6084 239.374 77.5679C239.376 77.5273 239.386 77.4879 239.403 77.4523C239.42 77.4167 239.444 77.3857 239.472 77.3616C239.501 77.3374 239.533 77.3206 239.568 77.3123C239.603 77.304 239.638 77.3044 239.673 77.3135C240.052 77.3723 240.415 77.5336 240.73 77.7841C241.045 78.0346 241.304 78.3672 241.486 78.7549C241.502 78.7865 241.512 78.8215 241.516 78.8578C241.521 78.8941 241.518 78.931 241.51 78.9663C241.501 79.0015 241.487 79.0345 241.467 79.0632C241.447 79.0919 241.423 79.1158 241.395 79.1334C241.35 79.1626 241.299 79.1739 241.248 79.1656Z" fill="#646464"/>
<path d="M233.247 77.8126C233.203 77.8246 233.158 77.8246 233.114 77.8126C233.061 77.7716 233.023 77.7081 233.01 77.6358C232.997 77.5635 233.009 77.4882 233.044 77.4261C233.249 77.0526 233.529 76.7409 233.86 76.5168C234.192 76.2927 234.564 76.1627 234.948 76.1377C235.012 76.1398 235.072 76.1704 235.117 76.223C235.161 76.2757 235.186 76.3461 235.186 76.4195C235.186 76.4921 235.161 76.5618 235.116 76.6131C235.072 76.6645 235.011 76.6933 234.948 76.6933C234.646 76.718 234.353 76.8251 234.093 77.0057C233.834 77.1863 233.616 77.4353 233.457 77.7321C233.43 77.7635 233.397 77.7872 233.36 77.8012C233.324 77.8152 233.285 77.8191 233.247 77.8126Z" fill="#646464"/>
<path d="M245.378 284.767C245.028 284.798 244.68 284.69 244.391 284.461C244.299 284.373 244.228 284.26 244.186 284.132C244.143 284.003 244.129 283.865 244.146 283.729C244.145 283.648 244.164 283.568 244.2 283.499C244.235 283.429 244.287 283.372 244.349 283.334C244.916 283.012 246.561 284.139 246.743 284.3C246.762 284.315 246.778 284.335 246.788 284.36C246.798 284.384 246.802 284.411 246.799 284.437C246.796 284.465 246.786 284.491 246.77 284.511C246.753 284.531 246.732 284.545 246.708 284.55C246.274 284.683 245.827 284.756 245.378 284.767ZM244.615 283.551C244.564 283.538 244.512 283.538 244.461 283.551C244.426 283.551 244.391 283.608 244.384 283.712C244.372 283.806 244.381 283.901 244.409 283.989C244.437 284.078 244.484 284.157 244.545 284.22C245.116 284.516 245.764 284.554 246.358 284.324C245.825 283.941 245.234 283.678 244.615 283.551Z" fill="#FFAC2F"/>
<path d="M246.68 284.558H246.624C246.099 284.228 245.077 282.947 245.182 282.287C245.2 282.185 245.248 282.093 245.318 282.026C245.388 281.96 245.476 281.924 245.567 281.925C245.659 281.909 245.754 281.917 245.843 281.948C245.932 281.978 246.015 282.031 246.085 282.102C246.673 282.657 246.785 284.348 246.785 284.421C246.789 284.445 246.786 284.471 246.777 284.494C246.768 284.516 246.754 284.536 246.736 284.55C246.718 284.557 246.699 284.56 246.68 284.558ZM245.651 282.142H245.595C245.441 282.142 245.427 282.247 245.42 282.279C245.357 282.665 246.008 283.64 246.533 284.099C246.495 283.432 246.285 282.793 245.931 282.263C245.85 282.196 245.751 282.164 245.651 282.174V282.142Z" fill="#FFAC2F"/>
<path d="M201.208 279.3C200.382 279.163 198.933 278.833 198.569 278.084C198.52 277.972 198.494 277.847 198.494 277.722C198.494 277.596 198.52 277.472 198.569 277.359C198.592 277.289 198.631 277.227 198.681 277.179C198.731 277.131 198.791 277.099 198.856 277.085C199.556 276.932 201.152 278.849 201.334 279.066C201.347 279.089 201.354 279.116 201.354 279.143C201.354 279.17 201.347 279.197 201.334 279.219C201.322 279.246 201.304 279.268 201.282 279.282C201.259 279.297 201.233 279.303 201.208 279.3ZM198.905 277.359H198.856C198.831 277.367 198.808 277.381 198.788 277.401C198.769 277.42 198.754 277.445 198.744 277.472C198.709 277.545 198.691 277.627 198.691 277.71C198.691 277.792 198.709 277.874 198.744 277.947C198.947 278.374 199.724 278.752 200.844 278.962C200.2 278.237 199.311 277.359 198.905 277.359Z" fill="#FFAC2F"/>
<path d="M201.208 279.3C201.176 279.3 201.146 279.285 201.124 279.26C200.634 278.728 199.843 277.069 200.116 276.482C200.179 276.337 200.326 276.192 200.655 276.28C200.772 276.311 200.881 276.369 200.978 276.451C201.074 276.533 201.155 276.636 201.215 276.755C201.468 277.528 201.505 278.373 201.32 279.171C201.315 279.193 201.306 279.214 201.292 279.231C201.279 279.248 201.262 279.26 201.243 279.268L201.208 279.3ZM200.473 276.53C200.444 276.525 200.415 276.53 200.389 276.545C200.363 276.559 200.341 276.582 200.326 276.61C200.165 276.965 200.662 278.221 201.131 278.865C201.268 278.212 201.226 277.526 201.012 276.9C200.967 276.813 200.908 276.738 200.837 276.678C200.766 276.618 200.685 276.576 200.599 276.554L200.473 276.53Z" fill="#FFAC2F"/>
<path d="M257.341 111.174C257.25 112.366 257.145 113.421 257.005 114.516C256.865 115.611 256.718 116.69 256.557 117.737C256.221 119.903 255.822 122.053 255.339 124.179C254.856 126.304 254.282 128.446 253.617 130.572L253.099 132.183L252.511 133.793C252.329 134.317 252.098 134.84 251.874 135.404L251.545 136.209L251.461 136.41L251.314 136.724C251.208 136.951 251.091 137.172 250.964 137.384C250.185 138.633 249.206 139.699 248.08 140.525C247.183 141.199 246.248 141.802 245.28 142.329C243.51 143.289 241.686 144.113 239.82 144.793C236.218 146.117 232.532 147.116 228.795 147.78L227.829 143.52C231.147 141.99 234.507 140.348 237.685 138.608C239.236 137.768 240.747 136.836 242.214 135.814C242.873 135.357 243.505 134.849 244.104 134.292C244.508 133.945 244.854 133.517 245.126 133.028L245.182 132.859L245.406 132.199C245.56 131.756 245.714 131.321 245.84 130.854L246.246 129.485L246.617 128.084C247.086 126.2 247.513 124.275 247.877 122.31C248.241 120.346 248.577 118.365 248.857 116.376C249.137 114.387 249.403 112.35 249.62 110.449L257.341 111.174Z" fill="#E4897B"/>
<path d="M258.3 107.671C261.156 112.221 257.859 126.248 257.859 126.248L244.475 126.739C245.141 121.289 246.166 115.906 247.541 110.634C249.669 103.113 254.8 102.155 258.3 107.671Z" fill="#FFAC2F"/>
<path opacity="0.7" d="M258.3 107.671C261.156 112.221 257.859 126.248 257.859 126.248L244.475 126.739C245.141 121.289 246.166 115.906 247.541 110.634C249.669 103.113 254.8 102.155 258.3 107.671Z" fill="white"/>
<path d="M159.495 54.3158C150.027 49.5929 139.82 47.1486 129.5 47.1331C93.0999 47.1331 64.3089 77.5872 60.3469 117.551L64.8619 115.047L133.462 131.683L159.495 54.3158Z" fill="#FFAC2F"/>
<path opacity="0.4" d="M159.495 54.3158C150.027 49.5929 139.82 47.1486 129.5 47.1331C93.0999 47.1331 64.3089 77.5872 60.3469 117.551L64.8619 115.047L133.462 131.683L159.495 54.3158Z" fill="white"/>
<path d="M164.003 51.8115C154.531 47.0852 144.318 44.6407 133.994 44.6288C97.5941 44.6288 68.8031 75.0829 64.8411 115.047L137.977 129.179L164.003 51.8115Z" fill="#FFAC2F"/>
<path opacity="0.6" d="M164.003 51.8115C154.531 47.0852 144.318 44.6407 133.994 44.6288C97.5941 44.6288 68.8031 75.0829 64.8411 115.047L137.977 129.179L164.003 51.8115Z" fill="white"/>
<path d="M173.6 48.4215L147.56 125.789L212.247 170.077L216.762 167.573C216.762 167.573 221.76 140.702 221.06 125.757C219.485 92.4198 178.101 45.885 178.101 45.885L173.6 48.4215Z" fill="#FFAC2F"/>
<path opacity="0.1" d="M173.6 48.4215L147.56 125.789L212.247 170.077L216.762 167.573C216.762 167.573 221.76 140.702 221.06 125.757C219.485 92.4198 178.101 45.885 178.101 45.885L173.6 48.4215Z" fill="white"/>
<path d="M178.101 45.9009L152.068 123.284L216.762 167.573C223.31 154.079 226.366 138.711 225.568 123.284C223.944 88.7316 204.526 59.0343 178.101 45.9009Z" fill="#FFAC2F"/>
<path opacity="0.2" d="M178.101 45.9009L152.068 123.284L216.762 167.573C223.31 154.079 226.366 138.711 225.568 123.284C223.944 88.7316 204.526 59.0343 178.101 45.9009Z" fill="white"/>
<g style="mix-blend-mode:color-dodge" opacity="0.4">
<path d="M215.082 161.05C215.052 161.061 215.021 161.061 214.991 161.05L157.178 121.44C157.142 121.415 157.116 121.376 157.103 121.331C157.09 121.285 157.092 121.235 157.108 121.191L180.208 52.4556C180.216 52.4284 180.229 52.4036 180.247 52.3828C180.264 52.362 180.285 52.3458 180.308 52.3351C180.331 52.3244 180.356 52.3196 180.381 52.3209C180.406 52.3222 180.431 52.3297 180.453 52.3428C192.139 59.1268 202.093 69.2848 209.342 81.8226C216.571 94.2421 220.779 108.661 221.529 123.582C222.171 136.451 220.005 149.301 215.229 160.962C215.219 160.989 215.203 161.013 215.184 161.032C215.164 161.052 215.142 161.066 215.117 161.074L215.082 161.05ZM157.5 121.134L215.019 160.543C219.715 148.993 221.839 136.28 221.2 123.55C219.8 93.6758 204.197 66.5634 180.488 52.7535L157.5 121.134Z" fill="#FAFAFA"/>
</g>
<g style="mix-blend-mode:color-dodge" opacity="0.4">
<path d="M135.296 123.961L69.5447 111.262C69.5002 111.252 69.4605 111.223 69.4328 111.181C69.416 111.132 69.416 111.078 69.4328 111.028C72 93.6804 79.836 77.9434 91.5457 66.6195C103.505 55.3042 118.53 49.162 134.015 49.2586C142.431 49.2587 150.781 50.9763 158.676 54.3316C158.698 54.3382 158.719 54.3513 158.736 54.3696C158.753 54.3879 158.766 54.4108 158.774 54.4363C158.792 54.488 158.792 54.5456 158.774 54.5973L135.478 123.848C135.462 123.886 135.435 123.918 135.403 123.938C135.37 123.959 135.333 123.967 135.296 123.961ZM69.7828 110.9L135.184 123.534L158.361 54.6376C150.553 51.3463 142.302 49.6618 133.987 49.6612C101.682 49.6612 75.2988 74.833 69.7828 110.9Z" fill="#FAFAFA"/>
</g>
<path d="M133.462 131.683L64.8621 115.047L60.3261 117.567C59.8618 122.258 59.7424 126.985 59.9691 131.699C62.1671 178.403 96.8591 216.249 137.452 216.249C163.912 216.249 186.347 200.145 198.149 175.987L133.462 131.683Z" fill="#FFAC2F"/>
<path opacity="0.2" d="M133.462 131.683L64.8621 115.047L60.3261 117.567C59.8618 122.258 59.7424 126.985 59.9691 131.699C62.1671 178.403 96.8591 216.249 137.452 216.249C163.912 216.249 186.347 200.145 198.149 175.987L133.462 131.683Z" fill="black"/>
<path d="M137.977 129.179L64.841 115.047C64.3778 119.738 64.2561 124.465 64.477 129.179C66.682 175.883 101.367 213.729 141.96 213.729C168.427 213.729 190.862 197.624 202.664 173.467L137.977 129.179Z" fill="#FFAC2F"/>
<path opacity="0.1" d="M137.977 129.179L64.841 115.047C64.3778 119.738 64.2561 124.465 64.477 129.179C66.682 175.883 101.367 213.729 141.96 213.729C168.427 213.729 190.862 197.624 202.664 173.467L137.977 129.179Z" fill="black"/>
<g style="mix-blend-mode:color-dodge" opacity="0.4">
<path d="M141.96 209.099C103.537 209.099 70.56 173.129 68.46 128.929C68.3375 126.18 68.3375 123.425 68.46 120.675C68.4591 120.647 68.4645 120.619 68.4755 120.594C68.4865 120.568 68.5028 120.547 68.523 120.531C68.5414 120.51 68.5637 120.495 68.588 120.487C68.6123 120.479 68.638 120.477 68.663 120.482L136.514 133.592H136.57L196.952 174.965C196.973 174.978 196.991 174.997 197.006 175.019C197.02 175.041 197.03 175.067 197.036 175.094C197.052 175.143 197.052 175.197 197.036 175.247C191.164 185.689 183.089 194.252 173.565 200.137C163.828 206.06 152.975 209.138 141.96 209.099ZM68.817 120.917C68.712 123.574 68.719 126.256 68.817 128.905C70.917 172.895 103.691 208.696 141.932 208.696C164.647 208.696 184.569 196.497 196.609 175.23L136.409 133.986L68.817 120.917Z" fill="#FAFAFA"/>
</g>
<path d="M58.5618 142.336C58.0373 138.873 57.6891 135.378 57.5188 131.868L58.2188 131.82C58.3825 135.308 58.7261 138.782 59.2478 142.224L58.5618 142.336Z" fill="#FFAC2F"/>
<path opacity="0.2" d="M58.5618 142.336C58.0373 138.873 57.6891 135.378 57.5188 131.868L58.2188 131.82C58.3825 135.308 58.7261 138.782 59.2478 142.224L58.5618 142.336Z" fill="black"/>
<path d="M60.2001 150.582C59.8081 148.972 59.4511 147.265 59.1431 145.614L59.8431 145.445C60.1511 147.055 60.5011 148.738 60.8861 150.373L60.2001 150.582Z" fill="#FFAC2F"/>
<path opacity="0.2" d="M60.2001 150.582C59.8081 148.972 59.4511 147.265 59.1431 145.614L59.8431 145.445C60.1511 147.055 60.5011 148.738 60.8861 150.373L60.2001 150.582Z" fill="black"/>
<path d="M229.194 143.439L224.196 141.893L225.281 149.277C225.281 149.277 229.789 149.511 230.181 146.773L229.194 143.439Z" fill="#E4897B"/>
<path d="M220.262 143.77L221.41 149.833L225.281 149.277L224.196 141.893L220.262 143.77Z" fill="#E4897B"/>
</svg>
