<svg width="168" height="169" viewBox="0 0 168 169" fill="none" xmlns="http://www.w3.org/2000/svg">
<g filter="url(#filter0_d_191_928)">
<rect x="4" y="0.792969" width="160" height="160" rx="20" fill="#FFE3BA" shape-rendering="crispEdges"/>
<rect x="9" y="5.79297" width="150" height="150" rx="15" stroke="#FFCD83" stroke-width="10" shape-rendering="crispEdges"/>
<path d="M62.3614 89.7951L57.5464 35.793H110.454L105.632 89.7865L83.9678 95.793L62.3614 89.7951Z" fill="#E44F26"/>
<path d="M84 91.203L101.507 86.3494L105.626 40.2094H84V91.203Z" fill="#F1662A"/>
<path d="M84 60.2366H75.2357L74.6314 53.4545H84V46.8309H83.9764H67.3928L67.5514 48.6095L69.1778 66.8602H84V60.2366Z" fill="#EBEBEB"/>
<path d="M84.0001 77.4371L83.9701 77.4457L76.5943 75.455L76.1229 70.1728H72.5379H69.4736L70.4015 80.57L83.9701 84.3371L84.0001 84.3285V77.4371Z" fill="#EBEBEB"/>
<path d="M83.9763 60.2365V66.86H92.132L91.3649 75.4507L83.9763 77.4436V84.335L97.5556 80.57L97.6542 79.4515L99.2099 62.015L99.3727 60.2365H97.5877H83.9763Z" fill="white"/>
<path d="M83.9763 46.8309V50.9452V53.4395V53.4545H99.9535H99.9749L100.108 51.9673L100.41 48.6095L100.568 46.8309H83.9763Z" fill="white"/>
<path d="M70.677 108.869V121.793H68.76V115.97H62.019V121.793H60.093V108.869H62.019V114.575H68.76V108.869H70.677ZM82.6853 110.471H78.5813V121.793H76.6733V110.471H72.5513V108.869H82.6853V110.471ZM98.1342 108.869V121.793H96.4602V112.595C96.4602 112.457 96.4632 112.31 96.4692 112.154C96.4812 111.998 96.4932 111.839 96.5052 111.677L92.2032 119.57C92.0532 119.864 91.8222 120.011 91.5102 120.011H91.2402C90.9282 120.011 90.7002 119.864 90.5562 119.57L86.1732 111.65C86.2092 111.986 86.2272 112.301 86.2272 112.595V121.793H84.5442V108.869H85.9662C86.1342 108.869 86.2632 108.887 86.3532 108.923C86.4492 108.953 86.5392 109.043 86.6232 109.193L90.9432 116.933C91.0272 117.089 91.1052 117.254 91.1772 117.428C91.2492 117.602 91.3182 117.776 91.3842 117.95C91.5102 117.596 91.6572 117.254 91.8252 116.924L96.0642 109.193C96.1422 109.043 96.2262 108.953 96.3162 108.923C96.4122 108.887 96.5442 108.869 96.7122 108.869H98.1342ZM108.729 120.182V121.793H101.331V108.869H103.248V120.182H108.729Z" fill="#343434"/>
</g>
<defs>
<filter id="filter0_d_191_928" x="0" y="0.792969" width="168" height="168" filterUnits="userSpaceOnUse" color-interpolation-filters="sRGB">
<feFlood flood-opacity="0" result="BackgroundImageFix"/>
<feColorMatrix in="SourceAlpha" type="matrix" values="0 0 0 0 0 0 0 0 0 0 0 0 0 0 0 0 0 0 127 0" result="hardAlpha"/>
<feOffset dy="4"/>
<feGaussianBlur stdDeviation="2"/>
<feComposite in2="hardAlpha" operator="out"/>
<feColorMatrix type="matrix" values="0 0 0 0 0 0 0 0 0 0 0 0 0 0 0 0 0 0 0.25 0"/>
<feBlend mode="normal" in2="BackgroundImageFix" result="effect1_dropShadow_191_928"/>
<feBlend mode="normal" in="SourceGraphic" in2="effect1_dropShadow_191_928" result="shape"/>
</filter>
</defs>
</svg>
