<svg width="168" height="169" viewBox="0 0 168 169" fill="none" xmlns="http://www.w3.org/2000/svg">
<g filter="url(#filter0_d_191_895)">
<rect x="4" y="0.792969" width="160" height="160" rx="20" fill="#FFE3BA" shape-rendering="crispEdges"/>
<rect x="9" y="5.79297" width="150" height="150" rx="15" stroke="#FFCD83" stroke-width="10" shape-rendering="crispEdges"/>
<path d="M54 57.5072C54 49.9065 54 46.1062 55.4792 43.2031C56.7803 40.6495 58.8565 38.5733 61.4101 37.2722C64.3132 35.793 68.1136 35.793 75.7142 35.793H92.2858C99.8865 35.793 103.687 35.793 106.59 37.2722C109.143 38.5733 111.22 40.6495 112.521 43.2031C114 46.1062 114 49.9065 114 57.5072V74.0788C114 81.6795 114 85.4798 112.521 88.3828C111.22 90.9364 109.143 93.0126 106.59 94.3138C103.687 95.793 99.8865 95.793 92.2858 95.793H75.7142C68.1136 95.793 64.3132 95.793 61.4101 94.3138C58.8565 93.0126 56.7803 90.9364 55.4792 88.3828C54 85.4798 54 81.6795 54 74.0788V57.5072Z" fill="#001E36"/>
<path d="M66.8572 79.7563V53.3717C66.8572 53.1924 66.9322 53.0897 67.1072 53.0897C69.6907 53.0897 72.273 52.9359 74.8571 52.9359C79.0505 52.9359 83.5907 54.3696 85.1822 58.7563C85.5572 59.8333 85.7572 60.9358 85.7572 62.0897C85.7572 64.2949 85.2572 66.1153 84.2572 67.5512C81.4638 71.5622 76.6222 71.4999 72.2822 71.4999V79.7308C72.3161 79.9744 72.1085 80.0897 71.9072 80.0897H67.1572C66.9572 80.0897 66.8572 79.9871 66.8572 79.7563ZM72.3071 58.0384V66.6538C74.028 66.7798 75.8287 66.7935 77.4821 66.2436C79.3076 65.7169 80.3072 64.137 80.3072 62.2436C80.3578 60.6302 79.4788 59.0822 77.9822 58.5C76.3487 57.8207 74.0705 57.78 72.3071 58.0384Z" fill="#31A8FF"/>
<path d="M101.35 64.9517C100.594 64.5529 99.7879 64.2613 98.9549 64.0847C97.8848 63.8329 93.6638 62.9509 93.6621 65.1581C93.6996 66.3902 95.6556 66.9938 96.5198 67.3459C99.5539 68.3876 102.987 70.2495 102.92 73.9924C103.012 78.6518 98.4979 80.5146 94.6281 80.5151C92.6136 80.5358 90.5149 80.2238 88.6712 79.359C88.495 79.2658 88.3819 79.0667 88.3894 78.8636V74.4051C88.3694 74.2264 88.5614 74.0702 88.7114 74.1988C90.5179 75.2912 92.659 75.8218 94.7489 75.8501C95.6714 75.8501 97.4997 75.7607 97.486 74.4051C97.486 73.1044 95.2988 72.5063 94.4269 72.1759C93.163 71.7248 91.9647 71.0998 90.8648 70.3183C89.3275 69.2218 88.3632 67.4638 88.3894 65.5296C88.3804 61.1423 92.536 59.1731 96.2785 59.1722C98.0279 59.1576 99.9068 59.2873 101.535 59.9978C101.77 60.0666 101.818 60.3135 101.817 60.5344V64.704C101.832 64.9628 101.545 65.0509 101.35 64.9517Z" fill="#31A8FF"/>
<path d="M46.508 115.52C46.994 115.52 47.42 115.457 47.786 115.331C48.158 115.205 48.467 115.028 48.713 114.8C48.965 114.566 49.154 114.29 49.28 113.972C49.406 113.648 49.469 113.291 49.469 112.901C49.469 112.115 49.223 111.497 48.731 111.047C48.245 110.597 47.504 110.372 46.508 110.372H44.51V115.52H46.508ZM46.508 108.869C47.336 108.869 48.056 108.965 48.668 109.157C49.28 109.349 49.787 109.622 50.189 109.976C50.591 110.324 50.888 110.747 51.08 111.245C51.278 111.743 51.377 112.295 51.377 112.901C51.377 113.507 51.272 114.065 51.062 114.575C50.852 115.079 50.543 115.514 50.135 115.88C49.727 116.246 49.217 116.531 48.605 116.735C47.999 116.933 47.3 117.032 46.508 117.032H44.51V121.793H42.593V108.869H46.508ZM54.8337 113.81C55.2177 113.42 55.6407 113.105 56.1027 112.865C56.5707 112.625 57.1077 112.505 57.7137 112.505C58.2177 112.505 58.6587 112.589 59.0367 112.757C59.4207 112.925 59.7417 113.162 59.9997 113.468C60.2577 113.768 60.4527 114.131 60.5847 114.557C60.7167 114.983 60.7827 115.454 60.7827 115.97V121.793H59.0187V115.97C59.0187 115.316 58.8687 114.809 58.5687 114.449C58.2687 114.083 57.8097 113.9 57.1917 113.9C56.7417 113.9 56.3187 114.008 55.9227 114.224C55.5327 114.434 55.1697 114.722 54.8337 115.088V121.793H53.0787V108.509H54.8337V113.81ZM67.048 112.505C67.72 112.505 68.326 112.616 68.866 112.838C69.412 113.054 69.874 113.369 70.252 113.783C70.636 114.191 70.93 114.686 71.134 115.268C71.338 115.844 71.44 116.492 71.44 117.212C71.44 117.932 71.338 118.583 71.134 119.165C70.93 119.747 70.636 120.242 70.252 120.65C69.874 121.058 69.412 121.373 68.866 121.595C68.326 121.811 67.72 121.919 67.048 121.919C66.37 121.919 65.758 121.811 65.212 121.595C64.672 121.373 64.21 121.058 63.826 120.65C63.442 120.242 63.145 119.747 62.935 119.165C62.731 118.583 62.629 117.932 62.629 117.212C62.629 116.492 62.731 115.844 62.935 115.268C63.145 114.686 63.442 114.191 63.826 113.783C64.21 113.369 64.672 113.054 65.212 112.838C65.758 112.616 66.37 112.505 67.048 112.505ZM67.048 120.551C67.912 120.551 68.557 120.26 68.983 119.678C69.409 119.096 69.622 118.277 69.622 117.221C69.622 116.165 69.409 115.346 68.983 114.764C68.557 114.176 67.912 113.882 67.048 113.882C66.172 113.882 65.518 114.176 65.086 114.764C64.66 115.346 64.447 116.165 64.447 117.221C64.447 118.277 64.66 119.096 65.086 119.678C65.518 120.26 66.172 120.551 67.048 120.551ZM76.0852 121.937C75.3472 121.937 74.7772 121.73 74.3752 121.316C73.9792 120.902 73.7812 120.311 73.7812 119.543V114.071H72.7192C72.6172 114.071 72.5302 114.041 72.4582 113.981C72.3922 113.915 72.3592 113.819 72.3592 113.693V112.982L73.8442 112.775L74.2402 110.048C74.2642 109.946 74.3092 109.868 74.3752 109.814C74.4472 109.754 74.5372 109.724 74.6452 109.724H75.5362V112.793H78.1282V114.071H75.5362V119.426C75.5362 119.786 75.6232 120.056 75.7972 120.236C75.9772 120.41 76.2052 120.497 76.4812 120.497C76.6432 120.497 76.7812 120.476 76.8952 120.434C77.0152 120.392 77.1172 120.347 77.2012 120.299C77.2852 120.245 77.3572 120.197 77.4172 120.155C77.4772 120.113 77.5312 120.092 77.5792 120.092C77.6392 120.092 77.6842 120.107 77.7142 120.137C77.7502 120.161 77.7862 120.203 77.8222 120.263L78.3442 121.109C78.0562 121.373 77.7142 121.577 77.3182 121.721C76.9222 121.865 76.5112 121.937 76.0852 121.937ZM83.589 112.505C84.261 112.505 84.867 112.616 85.407 112.838C85.953 113.054 86.415 113.369 86.793 113.783C87.177 114.191 87.471 114.686 87.675 115.268C87.879 115.844 87.981 116.492 87.981 117.212C87.981 117.932 87.879 118.583 87.675 119.165C87.471 119.747 87.177 120.242 86.793 120.65C86.415 121.058 85.953 121.373 85.407 121.595C84.867 121.811 84.261 121.919 83.589 121.919C82.911 121.919 82.299 121.811 81.753 121.595C81.213 121.373 80.751 121.058 80.367 120.65C79.983 120.242 79.686 119.747 79.476 119.165C79.272 118.583 79.17 117.932 79.17 117.212C79.17 116.492 79.272 115.844 79.476 115.268C79.686 114.686 79.983 114.191 80.367 113.783C80.751 113.369 81.213 113.054 81.753 112.838C82.299 112.616 82.911 112.505 83.589 112.505ZM83.589 120.551C84.453 120.551 85.098 120.26 85.524 119.678C85.95 119.096 86.163 118.277 86.163 117.221C86.163 116.165 85.95 115.346 85.524 114.764C85.098 114.176 84.453 113.882 83.589 113.882C82.713 113.882 82.059 114.176 81.627 114.764C81.201 115.346 80.988 116.165 80.988 117.221C80.988 118.277 81.201 119.096 81.627 119.678C82.059 120.26 82.713 120.551 83.589 120.551ZM95.331 114.224C95.283 114.302 95.232 114.359 95.178 114.395C95.124 114.425 95.055 114.44 94.971 114.44C94.875 114.44 94.767 114.407 94.647 114.341C94.533 114.275 94.392 114.203 94.224 114.125C94.062 114.047 93.87 113.975 93.648 113.909C93.426 113.843 93.162 113.81 92.856 113.81C92.604 113.81 92.373 113.843 92.163 113.909C91.959 113.969 91.785 114.056 91.641 114.17C91.497 114.278 91.386 114.41 91.308 114.566C91.23 114.716 91.191 114.878 91.191 115.052C91.191 115.28 91.257 115.469 91.389 115.619C91.527 115.769 91.704 115.898 91.92 116.006C92.142 116.114 92.391 116.213 92.667 116.303C92.949 116.387 93.234 116.477 93.522 116.573C93.816 116.669 94.101 116.78 94.377 116.906C94.659 117.026 94.908 117.179 95.124 117.365C95.346 117.545 95.523 117.764 95.655 118.022C95.793 118.28 95.862 118.595 95.862 118.967C95.862 119.393 95.784 119.789 95.628 120.155C95.478 120.515 95.253 120.827 94.953 121.091C94.659 121.355 94.293 121.562 93.855 121.712C93.417 121.862 92.916 121.937 92.352 121.937C91.722 121.937 91.14 121.832 90.606 121.622C90.072 121.412 89.625 121.145 89.265 120.821L89.679 120.146C89.727 120.062 89.787 119.999 89.859 119.957C89.931 119.909 90.027 119.885 90.147 119.885C90.261 119.885 90.378 119.927 90.498 120.011C90.618 120.095 90.762 120.188 90.93 120.29C91.098 120.386 91.302 120.476 91.542 120.56C91.782 120.638 92.082 120.677 92.442 120.677C92.742 120.677 93.003 120.641 93.225 120.569C93.447 120.491 93.63 120.389 93.774 120.263C93.924 120.131 94.035 119.981 94.107 119.813C94.179 119.645 94.215 119.468 94.215 119.282C94.215 119.042 94.146 118.844 94.008 118.688C93.876 118.526 93.699 118.388 93.477 118.274C93.261 118.16 93.012 118.061 92.73 117.977C92.448 117.893 92.16 117.803 91.866 117.707C91.572 117.611 91.284 117.5 91.002 117.374C90.72 117.248 90.468 117.089 90.246 116.897C90.03 116.705 89.853 116.471 89.715 116.195C89.583 115.919 89.517 115.583 89.517 115.187C89.517 114.833 89.589 114.494 89.733 114.17C89.883 113.846 90.096 113.561 90.372 113.315C90.654 113.069 90.999 112.874 91.407 112.73C91.821 112.58 92.292 112.505 92.82 112.505C93.426 112.505 93.972 112.601 94.458 112.793C94.95 112.985 95.37 113.249 95.718 113.585L95.331 114.224ZM99.5173 113.81C99.9013 113.42 100.324 113.105 100.786 112.865C101.254 112.625 101.791 112.505 102.397 112.505C102.901 112.505 103.342 112.589 103.72 112.757C104.104 112.925 104.425 113.162 104.683 113.468C104.941 113.768 105.136 114.131 105.268 114.557C105.4 114.983 105.466 115.454 105.466 115.97V121.793H103.702V115.97C103.702 115.316 103.552 114.809 103.252 114.449C102.952 114.083 102.493 113.9 101.875 113.9C101.425 113.9 101.002 114.008 100.606 114.224C100.216 114.434 99.8533 114.722 99.5173 115.088V121.793H97.7623V108.509H99.5173V113.81ZM111.732 112.505C112.404 112.505 113.01 112.616 113.55 112.838C114.096 113.054 114.558 113.369 114.936 113.783C115.32 114.191 115.614 114.686 115.818 115.268C116.022 115.844 116.124 116.492 116.124 117.212C116.124 117.932 116.022 118.583 115.818 119.165C115.614 119.747 115.32 120.242 114.936 120.65C114.558 121.058 114.096 121.373 113.55 121.595C113.01 121.811 112.404 121.919 111.732 121.919C111.054 121.919 110.442 121.811 109.896 121.595C109.356 121.373 108.894 121.058 108.51 120.65C108.126 120.242 107.829 119.747 107.619 119.165C107.415 118.583 107.313 117.932 107.313 117.212C107.313 116.492 107.415 115.844 107.619 115.268C107.829 114.686 108.126 114.191 108.51 113.783C108.894 113.369 109.356 113.054 109.896 112.838C110.442 112.616 111.054 112.505 111.732 112.505ZM111.732 120.551C112.596 120.551 113.241 120.26 113.667 119.678C114.093 119.096 114.306 118.277 114.306 117.221C114.306 116.165 114.093 115.346 113.667 114.764C113.241 114.176 112.596 113.882 111.732 113.882C110.856 113.882 110.202 114.176 109.77 114.764C109.344 115.346 109.131 116.165 109.131 117.221C109.131 118.277 109.344 119.096 109.77 119.678C110.202 120.26 110.856 120.551 111.732 120.551ZM119.838 119.543C120.126 119.921 120.435 120.185 120.765 120.335C121.101 120.485 121.476 120.56 121.89 120.56C122.694 120.56 123.315 120.272 123.753 119.696C124.197 119.114 124.419 118.268 124.419 117.158C124.419 116.576 124.368 116.081 124.266 115.673C124.17 115.259 124.026 114.923 123.834 114.665C123.648 114.401 123.417 114.209 123.141 114.089C122.865 113.963 122.553 113.9 122.205 113.9C121.695 113.9 121.251 114.014 120.873 114.242C120.501 114.47 120.156 114.794 119.838 115.214V119.543ZM119.748 114.017C119.94 113.789 120.144 113.582 120.36 113.396C120.582 113.204 120.819 113.042 121.071 112.91C121.323 112.772 121.59 112.667 121.872 112.595C122.16 112.517 122.466 112.478 122.79 112.478C123.312 112.478 123.783 112.58 124.203 112.784C124.629 112.988 124.992 113.288 125.292 113.684C125.592 114.08 125.823 114.569 125.985 115.151C126.153 115.733 126.237 116.402 126.237 117.158C126.237 117.836 126.144 118.466 125.958 119.048C125.778 119.624 125.517 120.125 125.175 120.551C124.839 120.977 124.425 121.313 123.933 121.559C123.447 121.799 122.898 121.919 122.286 121.919C121.74 121.919 121.272 121.829 120.882 121.649C120.492 121.469 120.144 121.217 119.838 120.893V124.862H118.083V112.649H119.136C119.382 112.649 119.535 112.766 119.595 113L119.748 114.017Z" fill="#343434"/>
</g>
<defs>
<filter id="filter0_d_191_895" x="0" y="0.792969" width="168" height="168" filterUnits="userSpaceOnUse" color-interpolation-filters="sRGB">
<feFlood flood-opacity="0" result="BackgroundImageFix"/>
<feColorMatrix in="SourceAlpha" type="matrix" values="0 0 0 0 0 0 0 0 0 0 0 0 0 0 0 0 0 0 127 0" result="hardAlpha"/>
<feOffset dy="4"/>
<feGaussianBlur stdDeviation="2"/>
<feComposite in2="hardAlpha" operator="out"/>
<feColorMatrix type="matrix" values="0 0 0 0 0 0 0 0 0 0 0 0 0 0 0 0 0 0 0.25 0"/>
<feBlend mode="normal" in2="BackgroundImageFix" result="effect1_dropShadow_191_895"/>
<feBlend mode="normal" in="SourceGraphic" in2="effect1_dropShadow_191_895" result="shape"/>
</filter>
</defs>
</svg>
