<svg width="449" height="411" viewBox="0 0 449 411" fill="none" xmlns="http://www.w3.org/2000/svg">
<path d="M241.241 410.579C342.983 410.579 425.462 404.901 425.462 397.897C425.462 390.893 342.983 385.215 241.241 385.215C139.498 385.215 57.0193 390.893 57.0193 397.897C57.0193 404.901 139.498 410.579 241.241 410.579Z" fill="#263238"/>
<path d="M130.57 302.354C129.806 298.665 128.791 293.372 127.864 286.976C127.591 285.132 127.329 283.178 127.089 281.159C127.918 281.006 134.51 279.718 137.075 277.884C139.411 276.236 141.921 273.519 142.019 270.463C142.076 269.748 141.979 269.029 141.737 268.354C141.495 267.678 141.112 267.062 140.613 266.547C140.115 266.031 139.512 265.626 138.846 265.361C138.18 265.095 137.464 264.974 136.748 265.006C132.469 265.3 128.518 271.936 127.591 275.658C127.536 275.898 127.154 278.779 126.99 280.264C126.849 279.041 126.707 277.83 126.576 276.564C126.379 274.73 126.226 272.798 126.074 270.921C126.074 269.939 125.975 268.957 125.932 267.963C125.888 266.97 125.932 265.999 125.932 264.995C125.932 263.532 126.041 262.015 126.117 260.509C127.995 260.422 133.484 260.062 135.94 258.817C138.396 257.573 141.397 255.205 141.954 252.269C142.107 251.575 142.113 250.858 141.971 250.162C141.83 249.466 141.544 248.808 141.133 248.229C140.722 247.65 140.194 247.164 139.583 246.801C138.973 246.439 138.293 246.208 137.588 246.124C133.321 245.775 128.398 251.734 126.936 255.27C126.881 255.379 126.652 256.165 126.379 257.093C126.51 255.619 126.63 254.146 126.816 252.662C127.318 248.46 127.973 244.181 128.606 239.892C128.737 238.997 128.857 238.113 128.988 237.218C130.559 237.142 136.519 236.814 139.105 235.515C141.692 234.217 144.562 231.892 145.119 228.967C145.274 228.273 145.281 227.555 145.14 226.859C144.999 226.162 144.714 225.503 144.303 224.924C143.891 224.344 143.362 223.858 142.751 223.496C142.14 223.134 141.459 222.905 140.753 222.822C136.475 222.473 131.564 228.432 130.09 231.968C130.09 232.088 129.763 233.06 129.457 234.064C129.774 231.739 130.046 229.403 130.254 227.09C130.638 223.1 130.751 219.089 130.592 215.084C131.149 215.084 138.134 214.811 141.015 213.37C143.58 212.094 146.472 209.758 147.029 206.822C147.184 206.129 147.191 205.411 147.05 204.716C146.909 204.02 146.624 203.361 146.212 202.783C145.8 202.204 145.272 201.719 144.66 201.358C144.049 200.997 143.369 200.769 142.663 200.688C138.385 200.328 133.474 206.298 132 209.823C131.891 210.074 130.909 213.458 130.614 214.669C130.609 214.622 130.609 214.575 130.614 214.527C130.361 210.608 129.762 206.718 128.824 202.904C128 199.493 126.98 196.133 125.768 192.841C124.677 189.785 123.487 187.045 122.417 184.633C121.828 183.324 121.26 182.145 120.726 181.053H120.813C120.889 181.053 120.682 175.869 120.638 175.596C120.049 171.82 116.698 164.857 112.464 164.18C111.758 164.086 111.04 164.142 110.357 164.345C109.674 164.547 109.042 164.892 108.501 165.355C107.96 165.819 107.523 166.391 107.219 167.035C106.914 167.679 106.749 168.379 106.734 169.091C106.559 172.115 108.818 175.072 110.99 176.928C113.162 178.783 119.034 180.595 120.475 181.01C121.009 182.167 121.566 183.4 122.166 184.775C123.181 187.209 124.349 189.959 125.321 193.037C125.593 193.856 125.855 194.751 126.128 195.602C125.375 194.249 124.316 192.404 124.185 192.241C121.926 189.152 115.738 184.513 111.678 185.867C111.008 186.108 110.397 186.488 109.884 186.982C109.371 187.476 108.968 188.073 108.701 188.733C108.434 189.393 108.31 190.102 108.336 190.814C108.362 191.525 108.537 192.223 108.851 192.863C110.084 195.624 113.457 197.228 116.251 197.85C119.045 198.473 125.266 197.37 126.598 197.108C127.165 199.018 127.689 200.994 128.147 203.089C128.973 206.855 129.462 210.686 129.61 214.538C129.61 214.768 129.61 214.997 129.61 215.226C129.348 214.484 127.645 210.566 127.503 210.304C125.593 207.029 119.951 201.692 115.76 202.587C115.066 202.755 114.416 203.067 113.852 203.503C113.287 203.938 112.821 204.488 112.483 205.117C112.145 205.745 111.944 206.437 111.891 207.148C111.839 207.86 111.937 208.574 112.18 209.245C113.108 212.115 116.295 214.069 118.99 215.008C122.101 216.099 129.337 215.401 129.599 215.379C129.658 219.244 129.465 223.108 129.021 226.948C128.704 229.796 128.267 232.667 127.798 235.537C127.438 234.588 125.866 230.942 125.713 230.691C123.814 227.417 118.172 222.091 113.981 222.986C113.289 223.154 112.64 223.465 112.076 223.901C111.513 224.336 111.047 224.884 110.709 225.511C110.372 226.138 110.17 226.829 110.117 227.539C110.063 228.249 110.16 228.963 110.401 229.633C111.329 232.514 114.505 234.457 117.211 235.406C120.245 236.498 127.176 235.832 127.765 235.777C127.547 237.076 127.34 238.386 127.121 239.696C126.39 243.952 125.648 248.231 125.048 252.465C124.829 253.939 124.677 255.39 124.524 256.831C123.945 255.423 122.843 252.891 122.723 252.684C120.813 249.409 115.17 244.072 110.979 244.978C110.287 245.146 109.638 245.458 109.075 245.893C108.511 246.328 108.045 246.877 107.708 247.504C107.37 248.13 107.168 248.821 107.115 249.531C107.062 250.241 107.159 250.955 107.399 251.625C108.327 254.506 111.503 256.449 114.21 257.398C116.917 258.348 122.756 257.933 124.404 257.802C124.153 260.225 123.967 262.637 123.891 265.017C123.891 266.043 123.793 267.101 123.891 268.084C123.989 269.066 123.891 270.07 123.956 271.041C124.087 273.06 124.185 274.938 124.349 276.815C124.426 277.764 124.513 278.659 124.6 279.576C124.229 278.07 123.596 275.68 123.509 275.472C122.123 271.903 117.353 265.824 113.064 266.075C112.355 266.139 111.667 266.35 111.045 266.696C110.423 267.042 109.88 267.515 109.452 268.084C109.024 268.653 108.72 269.305 108.56 269.999C108.4 270.692 108.388 271.412 108.524 272.111C109.004 275.09 111.798 277.502 114.374 278.845C117.168 280.318 123.88 280.755 124.698 280.81C124.917 283.058 125.157 285.252 125.408 287.293C126.216 293.776 127.121 299.134 127.809 302.889C128.497 306.643 128.988 308.772 128.988 308.772C129.021 308.978 129.096 309.174 129.209 309.349C129.322 309.525 129.47 309.674 129.643 309.789C129.817 309.905 130.013 309.982 130.218 310.018C130.424 310.053 130.634 310.046 130.836 309.996C131.039 309.946 131.228 309.854 131.394 309.727C131.559 309.6 131.696 309.44 131.796 309.257C131.896 309.075 131.957 308.873 131.975 308.666C131.994 308.458 131.969 308.249 131.902 308.051C131.902 308.051 131.334 306.054 130.57 302.354Z" fill="#FFAC2F"/>
<path d="M126.903 196.311C126.903 196.311 134.106 194.129 136.606 191.869C138.789 189.97 140.972 186.947 140.655 183.924C140.621 183.213 140.437 182.518 140.116 181.883C139.795 181.248 139.344 180.687 138.792 180.238C138.24 179.79 137.6 179.462 136.913 179.277C136.226 179.092 135.508 179.054 134.805 179.165C130.592 179.951 127.416 187.002 126.936 190.8C126.892 191.127 126.827 196.333 126.903 196.311Z" fill="#FFAC2F"/>
<path d="M130.701 309.994C130.879 310.117 131.028 310.277 131.139 310.462C131.25 310.648 131.319 310.855 131.342 311.07C131.366 311.285 131.343 311.502 131.275 311.707C131.207 311.913 131.095 312.101 130.948 312.259C130.801 312.417 130.621 312.542 130.422 312.625C130.222 312.707 130.007 312.746 129.791 312.738C129.575 312.731 129.363 312.676 129.17 312.58C128.977 312.483 128.807 312.345 128.671 312.177C128.671 312.177 127.078 310.649 124.447 307.909C121.817 305.17 118.084 301.186 113.839 296.231C112.496 294.66 111.099 292.957 109.67 291.211C108.96 291.614 103.121 294.954 99.9777 295.26C97.1291 295.533 93.4292 295.096 91.3773 292.87C90.8784 292.362 90.4916 291.756 90.2422 291.09C89.9928 290.423 89.8862 289.712 89.9295 289.002C89.9727 288.292 90.1647 287.599 90.4931 286.968C90.8215 286.337 91.2789 285.782 91.8357 285.339C95.2737 282.763 102.608 285.208 105.729 287.423C105.915 287.554 107.76 289.191 108.895 290.239C108.316 289.519 107.803 288.831 107.159 288.056C105.991 286.583 104.867 285.077 103.656 283.451L101.964 281.028C101.375 280.231 100.873 279.314 100.305 278.452C99.05 276.422 97.8822 274.304 96.758 272.143C95.4592 273.158 90.8097 276.717 88.0266 277.426C85.2435 278.135 81.4781 278.255 79.1643 276.335C78.5932 275.909 78.1182 275.368 77.7701 274.746C77.422 274.125 77.2086 273.437 77.1437 272.728C77.0788 272.019 77.164 271.304 77.3937 270.629C77.6233 269.955 77.9923 269.337 78.4767 268.815C81.489 265.759 89.1071 267.057 92.5233 268.815C92.7416 268.924 95.0554 270.43 96.3105 271.281C95.6447 269.972 94.9681 268.673 94.335 267.33C92.5015 263.467 90.7661 259.494 89.0198 255.532C88.485 254.321 87.9284 253.12 87.3936 251.908C86.9352 252.28 81.4999 256.634 78.3894 257.42C75.6171 258.13 71.8408 258.25 69.527 256.329C68.956 255.903 68.481 255.362 68.1328 254.74C67.7847 254.119 67.5713 253.431 67.5064 252.722C67.4416 252.013 67.5268 251.298 67.7564 250.624C67.9861 249.949 68.3551 249.331 68.8394 248.809C71.8408 245.753 79.459 247.052 82.886 248.809C83.148 248.94 86.4768 251.112 87.2517 251.701C86.0511 249.049 84.8397 246.419 83.53 243.865C81.7813 240.417 79.8126 237.084 77.6363 233.889C77.418 234.064 71.7753 238.637 68.5775 239.444C65.8052 240.143 62.0289 240.274 59.7151 238.353C59.1434 237.927 58.668 237.386 58.3199 236.764C57.9717 236.142 57.7588 235.454 57.6949 234.744C57.6311 234.035 57.7177 233.319 57.9492 232.645C58.1807 231.971 58.5519 231.354 59.0384 230.833C62.0398 227.777 69.658 229.076 73.0741 230.833C73.347 230.964 76.9268 233.3 77.549 233.769C77.418 233.583 77.3088 233.387 77.1779 233.201C74.8922 230.073 72.3357 227.151 69.5379 224.47C68.0099 222.964 66.471 221.611 64.943 220.323C63.9717 221.283 59.4859 225.616 56.7246 226.664C53.9633 227.712 50.3616 228.203 47.7968 226.577C47.1829 226.217 46.6516 225.732 46.2377 225.153C45.8237 224.575 45.5363 223.915 45.3942 223.218C45.2521 222.521 45.2585 221.802 45.4129 221.107C45.5674 220.413 45.8664 219.759 46.2906 219.188C48.9428 215.815 56.6591 216.263 60.2499 217.594C60.4464 217.671 62.3454 218.62 63.7206 219.329C63.0221 218.762 62.3127 218.162 61.636 217.638C59.0821 215.63 56.6264 213.949 54.4435 212.486C53.1884 211.668 52.0424 210.947 50.9619 210.303C49.5212 210.751 43.7039 212.486 40.8007 212.126C37.8976 211.766 34.4377 210.554 32.9098 207.935C32.5332 207.331 32.2874 206.656 32.1883 205.951C32.0892 205.247 32.1389 204.529 32.3344 203.845C32.5298 203.161 32.8665 202.526 33.3228 201.98C33.7791 201.435 34.3449 200.991 34.9835 200.677C38.8908 198.909 45.5266 202.86 48.0805 205.698C48.2988 205.949 51.3548 210.172 51.2675 210.194H51.1802C52.2716 210.805 53.363 211.482 54.5636 212.246C56.7464 213.665 59.2894 215.291 61.8979 217.245C64.7211 219.325 67.4248 221.562 69.9963 223.946C72.8778 226.623 75.5217 229.544 77.8982 232.678C77.9171 232.721 77.9429 232.762 77.9746 232.798C77.5599 231.619 76.5121 228.257 76.4575 227.995C75.7372 224.241 76.5558 216.546 80.3103 214.484C80.9439 214.159 81.6387 213.971 82.3495 213.933C83.0604 213.895 83.7714 214.006 84.4363 214.26C85.1013 214.515 85.7053 214.906 86.2091 215.409C86.713 215.912 87.1054 216.515 87.3609 217.179C88.5396 219.973 87.3608 223.521 85.9857 225.998C84.3703 228.792 78.684 232.863 78.2366 233.18C80.5636 236.428 82.6746 239.826 84.5559 243.352C85.6473 245.404 86.7387 247.499 87.7428 249.616C87.4154 248.58 87.1316 247.652 87.1098 247.521C86.3895 243.766 87.1971 236.072 90.9625 234.009C91.5969 233.685 92.2923 233.498 93.0037 233.46C93.7151 233.422 94.4264 233.535 95.0915 233.79C95.7566 234.045 96.3604 234.438 96.8638 234.942C97.3672 235.446 97.7588 236.05 98.0131 236.716C99.1919 239.499 98.0131 243.046 96.6379 245.524C95.2628 248.001 90.4059 251.603 89.129 252.531C89.511 253.349 89.9039 254.157 90.2859 254.975C92.1304 258.894 93.9421 262.823 95.8412 266.621C96.507 267.952 97.2164 269.24 97.9149 270.539C97.6311 269.622 97.4019 268.847 97.3692 268.716C96.6489 264.962 97.4674 257.278 101.222 255.215C101.856 254.891 102.55 254.703 103.261 254.665C103.972 254.626 104.683 254.738 105.348 254.992C106.013 255.246 106.617 255.638 107.121 256.141C107.625 256.644 108.017 257.247 108.273 257.911C109.451 260.694 108.327 264.252 106.897 266.73C105.468 269.208 101.135 272.449 99.6175 273.562C100.382 274.861 101.135 276.171 101.931 277.404C102.499 278.234 103.023 279.074 103.59 279.871L105.337 282.261C106.504 283.734 107.694 285.273 108.873 286.681C109.68 287.674 110.466 288.602 111.263 289.541C110.575 288.22 109.298 285.601 109.222 285.372C107.934 281.759 107.574 274.043 110.979 271.434C111.556 271.017 112.214 270.726 112.911 270.58C113.608 270.434 114.328 270.436 115.023 270.587C115.719 270.737 116.376 271.032 116.95 271.452C117.524 271.873 118.004 272.41 118.357 273.028C119.94 275.603 119.361 279.292 118.357 281.955C117.266 284.891 112.431 289.595 111.809 290.185C113.129 291.735 114.417 293.219 115.672 294.616C119.973 299.429 123.738 303.282 126.412 305.945C129.086 308.608 130.701 309.994 130.701 309.994ZM64.8557 219.482C64.8557 219.482 69.647 213.665 70.4984 210.423C71.2187 207.662 71.3715 203.875 69.5052 201.561C69.0836 200.986 68.5457 200.507 67.9264 200.153C67.3071 199.8 66.6203 199.582 65.9109 199.512C65.2014 199.442 64.4852 199.522 63.8088 199.747C63.1324 199.972 62.5111 200.338 61.9853 200.819C58.9074 203.799 60.1517 211.428 61.8434 214.866C61.9416 215.16 64.8011 219.537 64.8557 219.482Z" fill="#FFAC2F"/>
<path opacity="0.1" d="M130.701 309.994C130.879 310.117 131.028 310.277 131.139 310.462C131.25 310.648 131.319 310.855 131.342 311.07C131.366 311.285 131.343 311.502 131.275 311.707C131.207 311.913 131.095 312.101 130.948 312.259C130.801 312.417 130.621 312.542 130.422 312.625C130.222 312.707 130.007 312.746 129.791 312.738C129.575 312.731 129.363 312.676 129.17 312.58C128.977 312.483 128.807 312.345 128.671 312.177C128.671 312.177 127.078 310.649 124.447 307.909C121.817 305.17 118.084 301.186 113.839 296.231C112.496 294.66 111.099 292.957 109.67 291.211C108.96 291.614 103.121 294.954 99.9777 295.26C97.1291 295.533 93.4292 295.096 91.3773 292.87C90.8784 292.362 90.4916 291.756 90.2422 291.09C89.9928 290.423 89.8862 289.712 89.9295 289.002C89.9727 288.292 90.1647 287.599 90.4931 286.968C90.8215 286.337 91.2789 285.782 91.8357 285.339C95.2737 282.763 102.608 285.208 105.729 287.423C105.915 287.554 107.76 289.191 108.895 290.239C108.316 289.519 107.803 288.831 107.159 288.056C105.991 286.583 104.867 285.077 103.656 283.451L101.964 281.028C101.375 280.231 100.873 279.314 100.305 278.452C99.05 276.422 97.8822 274.304 96.758 272.143C95.4592 273.158 90.8097 276.717 88.0266 277.426C85.2435 278.135 81.4781 278.255 79.1643 276.335C78.5932 275.909 78.1182 275.368 77.7701 274.746C77.422 274.125 77.2086 273.437 77.1437 272.728C77.0788 272.019 77.164 271.304 77.3937 270.629C77.6233 269.955 77.9923 269.337 78.4767 268.815C81.489 265.759 89.1071 267.057 92.5233 268.815C92.7416 268.924 95.0554 270.43 96.3105 271.281C95.6447 269.972 94.9681 268.673 94.335 267.33C92.5015 263.467 90.7661 259.494 89.0198 255.532C88.485 254.321 87.9284 253.12 87.3936 251.908C86.9352 252.28 81.4999 256.634 78.3894 257.42C75.6171 258.13 71.8408 258.25 69.527 256.329C68.956 255.903 68.481 255.362 68.1328 254.74C67.7847 254.119 67.5713 253.431 67.5064 252.722C67.4416 252.013 67.5268 251.298 67.7564 250.624C67.9861 249.949 68.3551 249.331 68.8394 248.809C71.8408 245.753 79.459 247.052 82.886 248.809C83.148 248.94 86.4768 251.112 87.2517 251.701C86.0511 249.049 84.8397 246.419 83.53 243.865C81.7813 240.417 79.8126 237.084 77.6363 233.889C77.418 234.064 71.7753 238.637 68.5775 239.444C65.8052 240.143 62.0289 240.274 59.7151 238.353C59.1434 237.927 58.668 237.386 58.3199 236.764C57.9717 236.142 57.7588 235.454 57.6949 234.744C57.6311 234.035 57.7177 233.319 57.9492 232.645C58.1807 231.971 58.5519 231.354 59.0384 230.833C62.0398 227.777 69.658 229.076 73.0741 230.833C73.347 230.964 76.9268 233.3 77.549 233.769C77.418 233.583 77.3088 233.387 77.1779 233.201C74.8922 230.073 72.3357 227.151 69.5379 224.47C68.0099 222.964 66.471 221.611 64.943 220.323C63.9717 221.283 59.4859 225.616 56.7246 226.664C53.9633 227.712 50.3616 228.203 47.7968 226.577C47.1829 226.217 46.6516 225.732 46.2377 225.153C45.8237 224.575 45.5363 223.915 45.3942 223.218C45.2521 222.521 45.2585 221.802 45.4129 221.107C45.5674 220.413 45.8664 219.759 46.2906 219.188C48.9428 215.815 56.6591 216.263 60.2499 217.594C60.4464 217.671 62.3454 218.62 63.7206 219.329C63.0221 218.762 62.3127 218.162 61.636 217.638C59.0821 215.63 56.6264 213.949 54.4435 212.486C53.1884 211.668 52.0424 210.947 50.9619 210.303C49.5212 210.751 43.7039 212.486 40.8007 212.126C37.8976 211.766 34.4377 210.554 32.9098 207.935C32.5332 207.331 32.2874 206.656 32.1883 205.951C32.0892 205.247 32.1389 204.529 32.3344 203.845C32.5298 203.161 32.8665 202.526 33.3228 201.98C33.7791 201.435 34.3449 200.991 34.9835 200.677C38.8908 198.909 45.5266 202.86 48.0805 205.698C48.2988 205.949 51.3548 210.172 51.2675 210.194H51.1802C52.2716 210.805 53.363 211.482 54.5636 212.246C56.7464 213.665 59.2894 215.291 61.8979 217.245C64.7211 219.325 67.4248 221.562 69.9963 223.946C72.8778 226.623 75.5217 229.544 77.8982 232.678C77.9171 232.721 77.9429 232.762 77.9746 232.798C77.5599 231.619 76.5121 228.257 76.4575 227.995C75.7372 224.241 76.5558 216.546 80.3103 214.484C80.9439 214.159 81.6387 213.971 82.3495 213.933C83.0604 213.895 83.7714 214.006 84.4363 214.26C85.1013 214.515 85.7053 214.906 86.2091 215.409C86.713 215.912 87.1054 216.515 87.3609 217.179C88.5396 219.973 87.3608 223.521 85.9857 225.998C84.3703 228.792 78.684 232.863 78.2366 233.18C80.5636 236.428 82.6746 239.826 84.5559 243.352C85.6473 245.404 86.7387 247.499 87.7428 249.616C87.4154 248.58 87.1316 247.652 87.1098 247.521C86.3895 243.766 87.1971 236.072 90.9625 234.009C91.5969 233.685 92.2923 233.498 93.0037 233.46C93.7151 233.422 94.4264 233.535 95.0915 233.79C95.7566 234.045 96.3604 234.438 96.8638 234.942C97.3672 235.446 97.7588 236.05 98.0131 236.716C99.1919 239.499 98.0131 243.046 96.6379 245.524C95.2628 248.001 90.4059 251.603 89.129 252.531C89.511 253.349 89.9039 254.157 90.2859 254.975C92.1304 258.894 93.9421 262.823 95.8412 266.621C96.507 267.952 97.2164 269.24 97.9149 270.539C97.6311 269.622 97.4019 268.847 97.3692 268.716C96.6489 264.962 97.4674 257.278 101.222 255.215C101.856 254.891 102.55 254.703 103.261 254.665C103.972 254.626 104.683 254.738 105.348 254.992C106.013 255.246 106.617 255.638 107.121 256.141C107.625 256.644 108.017 257.247 108.273 257.911C109.451 260.694 108.327 264.252 106.897 266.73C105.468 269.208 101.135 272.449 99.6175 273.562C100.382 274.861 101.135 276.171 101.931 277.404C102.499 278.234 103.023 279.074 103.59 279.871L105.337 282.261C106.504 283.734 107.694 285.273 108.873 286.681C109.68 287.674 110.466 288.602 111.263 289.541C110.575 288.22 109.298 285.601 109.222 285.372C107.934 281.759 107.574 274.043 110.979 271.434C111.556 271.017 112.214 270.726 112.911 270.58C113.608 270.434 114.328 270.436 115.023 270.587C115.719 270.737 116.376 271.032 116.95 271.452C117.524 271.873 118.004 272.41 118.357 273.028C119.94 275.603 119.361 279.292 118.357 281.955C117.266 284.891 112.431 289.595 111.809 290.185C113.129 291.735 114.417 293.219 115.672 294.616C119.973 299.429 123.738 303.282 126.412 305.945C129.086 308.608 130.701 309.994 130.701 309.994ZM64.8557 219.482C64.8557 219.482 69.647 213.665 70.4984 210.423C71.2187 207.662 71.3715 203.875 69.5052 201.561C69.0836 200.986 68.5457 200.507 67.9264 200.153C67.3071 199.8 66.6203 199.582 65.9109 199.512C65.2014 199.442 64.4852 199.522 63.8088 199.747C63.1324 199.972 62.5111 200.338 61.9853 200.819C58.9074 203.799 60.1517 211.428 61.8434 214.866C61.9416 215.16 64.8011 219.537 64.8557 219.482Z" fill="#343434"/>
<path d="M102.728 381.973C101.8 378.317 100.545 373.078 99.3448 366.694C98.9955 364.871 98.6463 362.917 98.3188 360.92C99.1265 360.723 105.664 359.152 108.142 357.22C110.401 355.463 112.791 352.603 112.758 349.58C112.774 348.872 112.642 348.169 112.369 347.516C112.096 346.863 111.69 346.274 111.176 345.788C110.661 345.301 110.051 344.928 109.384 344.692C108.716 344.456 108.007 344.363 107.301 344.418C103.034 344.898 99.3775 351.708 98.5699 355.463C98.5699 355.703 98.2643 358.606 98.1769 360.09C97.9696 358.879 97.7731 357.678 97.5876 356.412C97.3147 354.601 97.0746 352.669 96.8345 350.802L96.5726 347.856C96.4525 346.851 96.4743 345.88 96.4198 344.887C96.4198 343.424 96.4198 341.907 96.4198 340.401C98.2861 340.227 103.754 339.626 106.177 338.273C108.6 336.92 111.47 334.42 111.885 331.43C112.01 330.728 111.984 330.008 111.812 329.317C111.639 328.626 111.322 327.98 110.882 327.419C110.442 326.859 109.889 326.398 109.259 326.066C108.629 325.734 107.936 325.538 107.225 325.492C102.946 325.318 98.297 331.495 96.9764 335.097C96.9764 335.206 96.7363 335.992 96.518 336.93C96.518 335.457 96.638 333.994 96.7472 332.499C97.0746 328.265 97.533 323.975 97.9805 319.664C98.0678 318.758 98.1442 317.863 98.2424 316.968C99.8141 316.826 105.741 316.226 108.273 314.785C110.805 313.345 113.566 310.933 113.992 307.931C114.114 307.23 114.088 306.511 113.914 305.821C113.741 305.13 113.424 304.484 112.984 303.924C112.545 303.364 111.993 302.903 111.363 302.57C110.734 302.238 110.042 302.042 109.331 301.994C105.053 301.83 100.393 308.008 99.0828 311.599C99.0828 311.729 98.7991 312.69 98.548 313.727C98.7554 311.38 98.93 309.045 99.0392 306.72C99.2436 302.718 99.178 298.707 98.8427 294.714C99.3993 294.714 106.363 294.103 109.189 292.531C111.678 291.145 114.483 288.679 114.898 285.677C115.022 284.976 114.997 284.256 114.824 283.565C114.651 282.874 114.334 282.227 113.895 281.667C113.455 281.106 112.902 280.645 112.271 280.313C111.641 279.981 110.948 279.786 110.237 279.74C105.959 279.576 101.309 285.754 99.9887 289.344C99.9014 289.595 99.0719 293.012 98.8209 294.245C98.8209 294.245 98.8209 294.147 98.8209 294.103C98.4027 290.197 97.6356 286.336 96.5289 282.567C95.5519 279.199 94.3821 275.89 93.0254 272.657C91.803 269.644 90.4933 266.959 89.3146 264.591C88.6707 263.314 88.0595 262.168 87.4701 261.087H87.5574C87.6338 261.087 87.2081 255.925 87.1427 255.63C86.3896 251.876 82.777 245.065 78.4113 244.574C77.7056 244.519 76.9962 244.613 76.3289 244.849C75.6615 245.085 75.0511 245.458 74.5369 245.944C74.0227 246.431 73.6161 247.019 73.3435 247.673C73.0709 248.326 72.9383 249.029 72.9542 249.737C72.9542 252.76 75.3007 255.619 77.56 257.377C79.8192 259.134 85.7456 260.651 87.2081 261.044C87.7975 262.135 88.4087 263.379 89.0636 264.722C90.155 267.112 91.421 269.808 92.5779 272.842C92.8945 273.65 93.1891 274.523 93.4947 275.374C92.6871 274.054 91.5411 272.253 91.4101 272.1C89.0199 269.12 82.6787 264.766 78.6296 266.294C77.9724 266.566 77.3799 266.974 76.8906 267.491C76.4013 268.008 76.0261 268.621 75.7894 269.292C75.5527 269.963 75.4597 270.677 75.5166 271.386C75.5734 272.095 75.7787 272.785 76.1193 273.41C77.4726 276.116 80.9106 277.546 83.7592 278.07C86.6079 278.594 92.7417 277.186 94.0623 276.858C94.7171 278.747 95.3392 280.7 95.874 282.774C96.8911 286.518 97.5669 290.346 97.8932 294.212C97.8932 294.43 97.8932 294.671 97.8932 294.889C97.6094 294.168 95.7103 290.316 95.5794 290.065C93.5275 286.79 87.6556 281.803 83.5082 282.883C82.824 283.081 82.1892 283.421 81.6452 283.88C81.1013 284.34 80.6604 284.909 80.3514 285.551C80.0424 286.193 79.8722 286.892 79.852 287.604C79.8317 288.316 79.9619 289.025 80.234 289.683C81.3254 292.52 84.5996 294.332 87.2845 295.14C90.4388 296.089 97.6312 295.074 97.9041 295.042C98.1236 298.899 98.0981 302.767 97.8277 306.622C97.6312 309.481 97.3256 312.363 96.9873 315.255C96.5944 314.327 94.8045 310.747 94.6953 310.507C92.6434 307.233 86.7716 302.245 82.6242 303.326C81.9399 303.523 81.3051 303.863 80.7612 304.323C80.2172 304.783 79.7763 305.352 79.4673 305.994C79.1583 306.635 78.9882 307.335 78.9679 308.047C78.9477 308.759 79.0778 309.467 79.3499 310.125C80.4413 312.963 83.7156 314.764 86.4005 315.582C89.4783 316.499 96.3761 315.582 96.9655 315.484C96.8017 316.794 96.6599 318.114 96.4962 319.424C95.9614 323.713 95.4047 328.024 94.9791 332.281C94.8372 333.754 94.7499 335.217 94.6516 336.647C94.0077 335.271 92.7962 332.783 92.6653 332.587C90.6134 329.312 84.7524 324.324 80.6596 325.405C79.9764 325.604 79.3427 325.945 78.7996 326.405C78.2566 326.865 77.8164 327.434 77.5077 328.075C77.1989 328.717 77.0284 329.416 77.0074 330.127C76.9863 330.838 77.1151 331.546 77.3853 332.205C78.4768 335.042 81.751 336.843 84.4359 337.662C87.1208 338.48 93.0036 337.825 94.6407 337.607C94.4988 340.041 94.4115 342.464 94.4443 344.843C94.4443 345.88 94.4443 346.928 94.5425 347.91L94.739 350.868C94.9573 352.876 95.1428 354.742 95.3829 356.62C95.503 357.558 95.6339 358.442 95.7649 359.359C95.3174 357.875 94.5862 355.517 94.4989 355.31C92.949 351.807 87.9503 345.946 83.6501 346.382C82.9449 346.476 82.2672 346.716 81.661 347.088C81.0548 347.46 80.5336 347.956 80.1312 348.543C79.7288 349.129 79.4542 349.794 79.3253 350.493C79.1963 351.193 79.2159 351.912 79.3826 352.603C79.9938 355.572 82.9407 357.853 85.5274 359.075C88.376 360.429 95.0991 360.571 95.9286 360.582C96.2451 362.83 96.5726 365.002 96.9218 367.043C98.0132 373.471 99.1047 378.797 99.9996 382.508C100.895 386.219 101.44 388.336 101.44 388.336C101.574 388.693 101.838 388.985 102.179 389.155C102.52 389.325 102.912 389.359 103.277 389.251C103.642 389.143 103.953 388.901 104.147 388.574C104.34 388.246 104.403 387.857 104.322 387.485C104.322 387.485 103.656 385.641 102.728 381.973Z" fill="#FFAC2F"/>
<path d="M94.3789 276.193C94.3789 276.193 101.484 273.682 103.874 271.336C105.915 269.328 107.967 266.217 107.585 263.216C107.518 262.506 107.303 261.819 106.953 261.199C106.603 260.578 106.126 260.038 105.554 259.614C104.981 259.19 104.326 258.891 103.631 258.737C102.935 258.582 102.215 258.576 101.517 258.719C97.3475 259.69 94.488 266.872 94.1715 270.725C94.1388 271.041 94.3025 276.225 94.3789 276.193Z" fill="#FFAC2F"/>
<path d="M98.6353 383.512C95.8522 380.98 91.9231 377.291 87.4046 372.664C86.1058 371.332 84.7415 369.902 83.3663 368.418C83.9339 367.807 88.5069 362.884 89.522 359.905C90.4388 357.198 90.8535 353.498 89.1509 350.988C88.7716 350.386 88.2698 349.871 87.6781 349.476C87.0865 349.081 86.4183 348.816 85.7171 348.696C85.0159 348.577 84.2974 348.606 83.6084 348.783C82.9194 348.96 82.2754 349.28 81.7183 349.722C78.444 352.472 79.1316 360.178 80.5723 363.714C80.6596 363.943 82.0566 366.508 82.7551 367.796C81.9147 366.901 81.0853 366.006 80.2339 365.046C79.0006 363.692 77.7455 362.208 76.5122 360.789L74.6568 358.475C74.0128 357.7 73.4999 356.882 72.8996 356.085C72.0483 354.895 71.2297 353.618 70.4111 352.341C71.8736 351.173 76.1084 347.648 77.3853 345.193C78.6623 342.737 79.6773 339.059 78.3676 336.33C78.0841 335.677 77.6661 335.091 77.1408 334.611C76.6156 334.13 75.9949 333.765 75.3193 333.541C74.6437 333.316 73.9283 333.237 73.2199 333.308C72.5115 333.378 71.8259 333.597 71.2079 333.951C67.5407 336.134 67.0714 343.883 67.9336 347.605C67.9336 347.736 68.2392 348.5 68.5666 349.405C67.8026 348.139 67.0386 346.884 66.3074 345.575C64.2446 341.864 62.2582 338.033 60.25 334.191C59.8352 333.394 59.4096 332.597 58.9839 331.801C60.2172 330.818 64.834 327.042 66.1764 324.466C67.5189 321.891 68.4575 318.333 67.1587 315.604C66.8752 314.951 66.4572 314.365 65.9319 313.884C65.4067 313.404 64.786 313.039 64.1104 312.815C63.4348 312.59 62.7194 312.511 62.011 312.581C61.3025 312.652 60.617 312.871 59.999 313.225C56.3318 315.408 55.8625 323.157 56.7247 326.878C56.7247 327.02 57.0849 327.97 57.4559 328.952C56.3645 326.878 55.1858 324.837 53.9961 322.829C51.9562 319.392 49.6921 316.092 47.2184 312.952C47.6659 312.603 53.1667 308.292 54.651 305.432C55.9716 302.9 56.943 299.298 55.6333 296.57C55.3508 295.916 54.9336 295.329 54.4088 294.847C53.884 294.365 53.2635 293.999 52.5878 293.774C51.912 293.548 51.1963 293.468 50.4874 293.538C49.7784 293.608 49.0922 293.826 48.4735 294.179C44.8064 296.362 44.337 304.122 45.1993 307.844C45.2648 308.106 46.4653 311.413 46.9237 312.581L46.8473 312.461C44.3347 309.441 41.5629 306.648 38.5634 304.111C35.9283 301.842 33.1662 299.725 30.2904 297.77C27.6055 295.937 25.0298 294.419 22.7487 293.099C21.5045 292.389 20.3476 291.767 19.278 291.2H19.3544C19.4308 291.2 16.2111 287.085 15.971 286.834C13.2751 284.116 6.47557 280.46 2.65559 282.403C2.02964 282.741 1.48204 283.208 1.04848 283.772C0.614933 284.336 0.305164 284.986 0.13937 285.678C-0.0264227 286.37 -0.0445168 287.089 0.0862656 287.788C0.217048 288.488 0.49377 289.152 0.898396 289.737C2.53553 292.291 6.10448 293.361 8.96401 293.579C11.8235 293.797 17.619 291.811 19.0269 291.309C20.1184 291.92 21.3189 292.586 22.6068 293.361C24.8551 294.725 27.3872 296.297 30.0176 298.185C30.727 298.687 31.4582 299.276 32.2004 299.789C30.8034 299.134 28.8497 298.272 28.6533 298.207C25.0079 297.039 17.2807 296.919 14.7813 300.39C14.3849 300.98 14.1168 301.648 13.9944 302.349C13.8721 303.05 13.8981 303.768 14.0709 304.459C14.2438 305.149 14.5595 305.795 14.9977 306.356C15.4359 306.916 15.9868 307.379 16.6149 307.713C19.2452 309.208 22.9015 308.521 25.5318 307.397C28.1621 306.272 32.5388 301.699 33.4665 300.706C35.049 301.918 36.6425 303.205 38.236 304.635C41.1455 307.199 43.8193 310.019 46.2252 313.061C46.3671 313.236 46.4871 313.432 46.629 313.618C45.9851 313.17 42.2633 310.998 42.0232 310.878C38.5307 309.317 30.858 308.346 27.9984 311.544C27.5384 312.087 27.1977 312.72 26.9983 313.403C26.7989 314.086 26.7453 314.803 26.8411 315.508C26.9368 316.213 27.1796 316.89 27.5539 317.495C27.9281 318.1 28.4254 318.62 29.0135 319.02C31.4582 320.799 35.18 320.515 37.9086 319.686C41.0628 318.736 46.509 313.923 46.7163 313.749C49.0351 316.842 51.1497 320.083 53.0466 323.451C54.4654 325.94 55.797 328.516 57.1067 331.091C56.2663 330.535 52.8392 328.516 52.5773 328.395C49.0847 326.835 41.412 325.874 38.5416 329.061C38.0805 329.604 37.7391 330.238 37.5396 330.921C37.3401 331.605 37.287 332.323 37.3838 333.029C37.4806 333.734 37.7251 334.411 38.1014 335.016C38.4777 335.621 38.9773 336.139 39.5675 336.538C42.0123 338.327 45.7231 338.033 48.4626 337.214C51.5404 336.276 56.7793 331.692 57.194 331.31C57.7943 332.488 58.3946 333.667 58.9839 334.846C60.9048 338.731 62.8039 342.617 64.8121 346.404C65.4997 347.714 66.231 348.991 66.995 350.257C65.6962 349.46 63.3169 348.074 63.0986 347.965C59.606 346.404 51.9333 345.444 49.0738 348.63C48.6138 349.173 48.2731 349.807 48.0737 350.49C47.8743 351.172 47.8207 351.89 47.9164 352.595C48.0121 353.3 48.255 353.977 48.6293 354.582C49.0035 355.187 49.5008 355.706 50.0888 356.107C52.5336 357.897 56.2445 357.602 58.9839 356.783C61.7234 355.965 66.2201 352.189 67.4752 351.108C68.6976 353.214 69.9527 355.288 71.2952 357.253C71.8955 358.093 72.4521 358.988 73.0633 359.763L74.8641 362.11C76.152 363.67 77.3417 365.133 78.575 366.552L80.3977 368.636C79.208 367.632 77.298 366.082 77.1234 365.962C73.8491 363.889 66.4711 361.771 63.1532 364.489C62.6147 364.956 62.1806 365.53 61.879 366.176C61.5774 366.822 61.4151 367.524 61.4028 368.236C61.3904 368.948 61.5283 369.656 61.8073 370.311C62.0863 370.967 62.5002 371.556 63.0222 372.042C65.205 374.17 68.8941 374.454 71.7536 374.05C74.8751 373.602 80.5614 370.011 81.2599 369.564C82.7551 371.256 84.2395 372.838 85.6256 374.399C90.0786 379.169 93.975 382.978 96.7363 385.597C99.4976 388.216 101.102 389.679 101.102 389.679C101.41 389.905 101.793 390.005 102.173 389.959C102.553 389.914 102.901 389.725 103.146 389.432C103.392 389.139 103.517 388.764 103.496 388.382C103.475 388 103.31 387.64 103.034 387.376C103.034 387.376 101.429 386.055 98.6353 383.512Z" fill="#FFAC2F"/>
<path d="M33.3244 299.899C33.3244 299.899 37.8539 293.885 38.5633 290.6C39.1636 287.806 39.1526 284.051 37.1772 281.781C36.7292 281.228 36.1701 280.774 35.536 280.451C34.9019 280.127 34.207 279.94 33.4961 279.902C32.7852 279.864 32.0742 279.976 31.4092 280.23C30.7442 280.484 30.1399 280.875 29.6354 281.377C26.6886 284.488 28.2712 292.062 30.1048 295.413C30.2903 295.707 33.2699 299.953 33.3244 299.899Z" fill="#FFAC2F"/>
<g opacity="0.1">
<path d="M102.728 381.973C101.8 378.317 100.545 373.078 99.3448 366.693C98.9955 364.871 98.6463 362.917 98.3188 360.92C99.1265 360.723 105.664 359.152 108.142 357.22C110.401 355.463 112.791 352.603 112.758 349.58C112.774 348.872 112.642 348.169 112.369 347.516C112.096 346.863 111.69 346.274 111.176 345.787C110.661 345.301 110.051 344.928 109.384 344.692C108.716 344.456 108.007 344.362 107.301 344.418C103.034 344.898 99.3775 351.708 98.5699 355.463C98.5699 355.703 98.2643 358.606 98.1769 360.09C97.9696 358.879 97.7731 357.678 97.5876 356.412C97.3147 354.6 97.0746 352.669 96.8345 350.802L96.5726 347.856C96.4525 346.851 96.4743 345.88 96.4198 344.887C96.4198 343.424 96.4198 341.907 96.4198 340.401C98.2861 340.226 103.754 339.626 106.177 338.273C108.6 336.919 111.47 334.42 111.885 331.43C112.01 330.728 111.984 330.008 111.812 329.317C111.639 328.626 111.322 327.979 110.882 327.419C110.442 326.859 109.889 326.398 109.259 326.065C108.629 325.733 107.936 325.538 107.225 325.492C102.946 325.318 98.297 331.495 96.9764 335.097C96.9764 335.206 96.7363 335.992 96.518 336.93C96.518 335.457 96.638 333.994 96.7472 332.499C97.0746 328.264 97.533 323.975 97.9805 319.664C98.0678 318.758 98.1442 317.863 98.2424 316.968C99.8141 316.826 105.741 316.226 108.273 314.785C110.805 313.345 113.566 310.933 113.992 307.931C114.114 307.23 114.088 306.511 113.914 305.821C113.741 305.13 113.424 304.484 112.984 303.924C112.545 303.364 111.993 302.903 111.363 302.57C110.734 302.238 110.042 302.041 109.331 301.994C105.053 301.83 100.393 308.008 99.0828 311.598C99.0828 311.729 98.7991 312.69 98.548 313.727C98.7554 311.38 98.93 309.045 99.0392 306.72C99.2436 302.718 99.178 298.707 98.8427 294.714C99.3993 294.714 106.363 294.103 109.189 292.531C111.678 291.145 114.483 288.679 114.898 285.677C115.022 284.976 114.997 284.256 114.824 283.565C114.651 282.874 114.334 282.227 113.895 281.667C113.455 281.106 112.902 280.645 112.271 280.313C111.641 279.981 110.948 279.786 110.237 279.74C105.959 279.576 101.309 285.754 99.9887 289.344C99.9014 289.595 99.0719 293.012 98.8209 294.245C98.8209 294.245 98.8209 294.147 98.8209 294.103C98.4027 290.197 97.6356 286.336 96.5289 282.567C95.5519 279.199 94.3821 275.89 93.0254 272.656C91.803 269.644 90.4933 266.959 89.3146 264.591C88.6707 263.314 88.0595 262.168 87.4701 261.087H87.5574C87.6338 261.087 87.2081 255.925 87.1427 255.63C86.3896 251.876 82.777 245.065 78.4113 244.574C77.7056 244.519 76.9962 244.613 76.3289 244.848C75.6615 245.084 75.0511 245.458 74.5369 245.944C74.0227 246.431 73.6161 247.019 73.3435 247.673C73.0709 248.326 72.9383 249.029 72.9542 249.737C72.9542 252.76 75.3007 255.619 77.56 257.377C79.8192 259.134 85.7456 260.651 87.2081 261.044C87.7975 262.135 88.4087 263.379 89.0636 264.722C90.155 267.112 91.421 269.808 92.5779 272.842C92.8945 273.65 93.1891 274.523 93.4947 275.374C92.6871 274.053 91.5411 272.253 91.4101 272.1C89.0199 269.12 82.6787 264.765 78.6296 266.293C77.9724 266.566 77.3799 266.974 76.8906 267.491C76.4013 268.008 76.0261 268.621 75.7894 269.292C75.5527 269.963 75.4597 270.677 75.5166 271.386C75.5734 272.095 75.7787 272.785 76.1193 273.41C77.4726 276.116 80.9106 277.546 83.7592 278.07C86.6079 278.594 92.7417 277.186 94.0623 276.858C94.7171 278.747 95.3392 280.7 95.874 282.774C96.8911 286.518 97.5669 290.346 97.8932 294.212C97.8932 294.43 97.8932 294.67 97.8932 294.889C97.6094 294.168 95.7103 290.316 95.5794 290.065C93.5275 286.79 87.6556 281.803 83.5082 282.883C82.824 283.081 82.1892 283.421 81.6452 283.88C81.1013 284.34 80.6604 284.909 80.3514 285.551C80.0424 286.193 79.8722 286.892 79.852 287.604C79.8317 288.316 79.9619 289.024 80.234 289.683C81.3254 292.52 84.5996 294.332 87.2845 295.14C90.4388 296.089 97.6312 295.074 97.9041 295.042C98.1236 298.899 98.0981 302.767 97.8277 306.622C97.6312 309.481 97.3256 312.362 96.9873 315.255C96.5944 314.327 94.8045 310.747 94.6953 310.507C92.6434 307.233 86.7716 302.245 82.6242 303.325C81.9399 303.523 81.3051 303.863 80.7612 304.323C80.2172 304.782 79.7763 305.352 79.4673 305.993C79.1583 306.635 78.9882 307.335 78.9679 308.047C78.9477 308.759 79.0778 309.467 79.3499 310.125C80.4413 312.963 83.7156 314.764 86.4005 315.582C89.4783 316.499 96.3761 315.582 96.9655 315.484C96.8017 316.794 96.6599 318.114 96.4962 319.424C95.9614 323.713 95.4047 328.024 94.9791 332.281C94.8372 333.754 94.7499 335.217 94.6516 336.647C94.0077 335.271 92.7962 332.783 92.6653 332.587C90.6134 329.312 84.7524 324.324 80.6596 325.405C79.9764 325.604 79.3427 325.945 78.7996 326.405C78.2566 326.865 77.8164 327.434 77.5077 328.075C77.1989 328.716 77.0284 329.416 77.0074 330.127C76.9863 330.838 77.1151 331.546 77.3853 332.205C78.4768 335.042 81.751 336.843 84.4359 337.662C87.1208 338.48 93.0036 337.825 94.6407 337.607C94.4988 340.041 94.4115 342.464 94.4443 344.843C94.4443 345.88 94.4443 346.928 94.5425 347.91L94.739 350.868C94.9573 352.876 95.1428 354.742 95.3829 356.62C95.503 357.558 95.6339 358.442 95.7649 359.359C95.3174 357.875 94.5862 355.517 94.4989 355.31C92.949 351.806 87.9503 345.946 83.6501 346.382C82.9449 346.475 82.2672 346.716 81.661 347.088C81.0548 347.46 80.5336 347.956 80.1312 348.542C79.7288 349.129 79.4542 349.794 79.3253 350.493C79.1963 351.193 79.2159 351.912 79.3826 352.603C79.9938 355.572 82.9407 357.853 85.5274 359.075C88.376 360.429 95.0991 360.571 95.9286 360.582C96.2451 362.83 96.5726 365.002 96.9218 367.043C98.0132 373.471 99.1047 378.797 99.9996 382.508C100.895 386.219 101.44 388.336 101.44 388.336C101.574 388.693 101.838 388.985 102.179 389.155C102.52 389.325 102.912 389.359 103.277 389.251C103.642 389.143 103.953 388.901 104.147 388.573C104.34 388.246 104.403 387.857 104.322 387.485C104.322 387.485 103.656 385.641 102.728 381.973Z" fill="#343434"/>
<path d="M94.3789 276.193C94.3789 276.193 101.484 273.682 103.874 271.336C105.915 269.328 107.967 266.217 107.585 263.216C107.518 262.506 107.303 261.819 106.953 261.198C106.603 260.578 106.126 260.038 105.554 259.614C104.981 259.19 104.326 258.891 103.631 258.737C102.935 258.582 102.215 258.576 101.517 258.719C97.3475 259.69 94.488 266.872 94.1715 270.725C94.1388 271.041 94.3025 276.225 94.3789 276.193Z" fill="#343434"/>
<path d="M98.6353 383.512C95.8522 380.98 91.9231 377.291 87.4046 372.664C86.1058 371.332 84.7415 369.902 83.3663 368.418C83.9339 367.807 88.5069 362.884 89.522 359.905C90.4388 357.198 90.8535 353.498 89.1509 350.988C88.7716 350.386 88.2698 349.871 87.6781 349.476C87.0865 349.081 86.4183 348.816 85.7171 348.696C85.0159 348.577 84.2974 348.606 83.6084 348.783C82.9194 348.96 82.2754 349.28 81.7183 349.722C78.444 352.472 79.1316 360.178 80.5723 363.714C80.6596 363.943 82.0566 366.508 82.7551 367.796C81.9147 366.901 81.0853 366.006 80.2339 365.045C79.0006 363.692 77.7455 362.208 76.5122 360.789L74.6568 358.475C74.0128 357.7 73.4999 356.882 72.8996 356.085C72.0483 354.895 71.2297 353.618 70.4111 352.341C71.8736 351.173 76.1084 347.648 77.3853 345.192C78.6623 342.737 79.6773 339.059 78.3676 336.33C78.0841 335.677 77.6661 335.091 77.1408 334.61C76.6156 334.13 75.9949 333.765 75.3193 333.541C74.6437 333.316 73.9283 333.237 73.2199 333.307C72.5115 333.378 71.8259 333.597 71.2079 333.951C67.5407 336.134 67.0714 343.883 67.9336 347.604C67.9336 347.735 68.2392 348.499 68.5666 349.405C67.8026 348.139 67.0386 346.884 66.3074 345.574C64.2446 341.864 62.2582 338.033 60.25 334.191C59.8352 333.394 59.4096 332.597 58.9839 331.801C60.2172 330.818 64.834 327.042 66.1764 324.466C67.5189 321.891 68.4575 318.332 67.1587 315.604C66.8752 314.951 66.4572 314.365 65.9319 313.884C65.4067 313.404 64.786 313.039 64.1104 312.815C63.4348 312.59 62.7194 312.511 62.011 312.581C61.3025 312.652 60.617 312.871 59.999 313.225C56.3318 315.407 55.8625 323.157 56.7247 326.878C56.7247 327.02 57.0849 327.97 57.4559 328.952C56.3645 326.878 55.1858 324.837 53.9961 322.829C51.9562 319.391 49.6921 316.092 47.2184 312.952C47.6659 312.603 53.1667 308.291 54.651 305.432C55.9716 302.9 56.943 299.298 55.6333 296.57C55.3508 295.916 54.9336 295.328 54.4088 294.847C53.884 294.365 53.2635 293.999 52.5878 293.774C51.912 293.548 51.1963 293.468 50.4874 293.538C49.7784 293.608 49.0922 293.826 48.4735 294.179C44.8064 296.362 44.337 304.122 45.1993 307.844C45.2648 308.106 46.4653 311.413 46.9237 312.581L46.8473 312.461C44.3347 309.441 41.5629 306.648 38.5634 304.111C35.9283 301.842 33.1662 299.725 30.2904 297.77C27.6055 295.936 25.0298 294.419 22.7487 293.099C21.5045 292.389 20.3476 291.767 19.278 291.2H19.3544C19.4308 291.2 16.2111 287.085 15.971 286.834C13.2751 284.116 6.47557 280.46 2.65559 282.403C2.02964 282.741 1.48204 283.208 1.04848 283.772C0.614933 284.336 0.305164 284.986 0.13937 285.678C-0.0264227 286.37 -0.0445168 287.089 0.0862656 287.788C0.217048 288.488 0.49377 289.152 0.898396 289.737C2.53553 292.291 6.10448 293.361 8.96401 293.579C11.8235 293.797 17.619 291.811 19.0269 291.309C20.1184 291.92 21.3189 292.586 22.6068 293.361C24.8551 294.725 27.3872 296.297 30.0176 298.185C30.727 298.687 31.4582 299.276 32.2004 299.789C30.8034 299.134 28.8497 298.272 28.6533 298.207C25.0079 297.039 17.2807 296.919 14.7813 300.39C14.3849 300.98 14.1168 301.648 13.9944 302.349C13.8721 303.05 13.8981 303.768 14.0709 304.459C14.2438 305.149 14.5595 305.795 14.9977 306.356C15.4359 306.916 15.9868 307.379 16.6149 307.713C19.2452 309.208 22.9015 308.521 25.5318 307.396C28.1621 306.272 32.5388 301.699 33.4665 300.706C35.049 301.917 36.6425 303.205 38.236 304.635C41.1455 307.199 43.8193 310.019 46.2252 313.061C46.3671 313.236 46.4871 313.432 46.629 313.618C45.9851 313.17 42.2633 310.998 42.0232 310.878C38.5307 309.317 30.858 308.346 27.9984 311.544C27.5384 312.087 27.1977 312.72 26.9983 313.403C26.7989 314.086 26.7453 314.803 26.8411 315.508C26.9368 316.213 27.1796 316.89 27.5539 317.495C27.9281 318.1 28.4254 318.62 29.0135 319.02C31.4582 320.799 35.18 320.515 37.9086 319.686C41.0628 318.736 46.509 313.923 46.7163 313.749C49.0351 316.842 51.1497 320.083 53.0466 323.451C54.4654 325.94 55.797 328.515 57.1067 331.091C56.2663 330.535 52.8392 328.515 52.5773 328.395C49.0847 326.835 41.412 325.874 38.5416 329.061C38.0805 329.604 37.7391 330.238 37.5396 330.921C37.3401 331.605 37.287 332.323 37.3838 333.029C37.4806 333.734 37.7251 334.411 38.1014 335.016C38.4777 335.621 38.9773 336.139 39.5675 336.537C42.0123 338.327 45.7231 338.033 48.4626 337.214C51.5404 336.276 56.7793 331.692 57.194 331.31C57.7943 332.488 58.3946 333.667 58.9839 334.846C60.9048 338.731 62.8039 342.617 64.8121 346.404C65.4997 347.714 66.231 348.991 66.995 350.257C65.6962 349.46 63.3169 348.074 63.0986 347.965C59.606 346.404 51.9333 345.443 49.0738 348.63C48.6138 349.173 48.2731 349.807 48.0737 350.489C47.8743 351.172 47.8207 351.89 47.9164 352.595C48.0121 353.3 48.255 353.977 48.6293 354.582C49.0035 355.187 49.5008 355.706 50.0888 356.107C52.5336 357.897 56.2445 357.602 58.9839 356.783C61.7234 355.965 66.2201 352.188 67.4752 351.108C68.6976 353.214 69.9527 355.288 71.2952 357.253C71.8955 358.093 72.4521 358.988 73.0633 359.763L74.8641 362.109C76.152 363.67 77.3417 365.133 78.575 366.552L80.3977 368.636C79.208 367.632 77.298 366.082 77.1234 365.962C73.8491 363.889 66.4711 361.771 63.1532 364.489C62.6147 364.955 62.1806 365.53 61.879 366.176C61.5774 366.822 61.4151 367.523 61.4028 368.236C61.3904 368.948 61.5283 369.655 61.8073 370.311C62.0863 370.967 62.5002 371.556 63.0222 372.041C65.205 374.17 68.8941 374.453 71.7536 374.05C74.8751 373.602 80.5614 370.011 81.2599 369.564C82.7551 371.256 84.2395 372.838 85.6256 374.399C90.0786 379.168 93.975 382.977 96.7363 385.597C99.4976 388.216 101.102 389.679 101.102 389.679C101.41 389.905 101.793 390.005 102.173 389.959C102.553 389.914 102.901 389.725 103.146 389.432C103.392 389.139 103.517 388.764 103.496 388.382C103.475 388 103.31 387.64 103.034 387.376C103.034 387.376 101.429 386.055 98.6353 383.512Z" fill="#343434"/>
<path d="M33.3244 299.898C33.3244 299.898 37.8539 293.885 38.5633 290.6C39.1636 287.805 39.1526 284.051 37.1772 281.781C36.7292 281.227 36.1701 280.774 35.536 280.451C34.9019 280.127 34.207 279.94 33.4961 279.902C32.7852 279.864 32.0742 279.976 31.4092 280.23C30.7442 280.484 30.1399 280.875 29.6354 281.377C26.6886 284.488 28.2712 292.062 30.1048 295.413C30.2903 295.707 33.2699 299.953 33.3244 299.898Z" fill="#343434"/>
</g>
<g opacity="0.1">
<path d="M130.57 302.354C129.806 298.665 128.791 293.372 127.864 286.976C127.591 285.132 127.329 283.178 127.089 281.159C127.918 281.006 134.51 279.718 137.075 277.884C139.411 276.236 141.921 273.519 142.019 270.463C142.076 269.748 141.979 269.029 141.737 268.354C141.495 267.678 141.112 267.062 140.613 266.547C140.115 266.031 139.512 265.626 138.846 265.361C138.18 265.095 137.464 264.974 136.748 265.006C132.469 265.3 128.518 271.936 127.591 275.658C127.536 275.898 127.154 278.779 126.99 280.264C126.849 279.041 126.707 277.83 126.576 276.564C126.379 274.73 126.226 272.798 126.074 270.921C126.074 269.939 125.975 268.957 125.932 267.963C125.888 266.97 125.932 265.999 125.932 264.995C125.932 263.532 126.041 262.015 126.117 260.509C127.995 260.422 133.484 260.062 135.94 258.817C138.396 257.573 141.397 255.205 141.954 252.269C142.107 251.575 142.113 250.858 141.971 250.162C141.83 249.466 141.544 248.808 141.133 248.229C140.722 247.65 140.194 247.164 139.583 246.801C138.973 246.439 138.293 246.208 137.588 246.124C133.321 245.775 128.398 251.734 126.936 255.27C126.881 255.379 126.652 256.165 126.379 257.093C126.51 255.619 126.63 254.146 126.816 252.662C127.318 248.46 127.973 244.181 128.606 239.892C128.737 238.997 128.857 238.113 128.988 237.218C130.559 237.142 136.519 236.814 139.105 235.515C141.692 234.217 144.562 231.892 145.119 228.967C145.274 228.273 145.281 227.555 145.14 226.859C144.999 226.162 144.714 225.503 144.303 224.924C143.891 224.344 143.362 223.858 142.751 223.496C142.14 223.134 141.459 222.905 140.753 222.822C136.475 222.473 131.564 228.432 130.09 231.968C130.09 232.088 129.763 233.06 129.457 234.064C129.774 231.739 130.046 229.403 130.254 227.09C130.638 223.1 130.751 219.089 130.592 215.084C131.149 215.084 138.134 214.811 141.015 213.37C143.58 212.094 146.472 209.758 147.029 206.822C147.184 206.129 147.191 205.411 147.05 204.716C146.909 204.02 146.624 203.361 146.212 202.783C145.8 202.204 145.272 201.719 144.66 201.358C144.049 200.997 143.369 200.769 142.663 200.688C138.385 200.328 133.474 206.298 132 209.823C131.891 210.074 130.909 213.458 130.614 214.669C130.609 214.622 130.609 214.575 130.614 214.527C130.361 210.608 129.762 206.718 128.824 202.904C128 199.493 126.98 196.133 125.768 192.841C124.677 189.785 123.487 187.045 122.417 184.633C121.828 183.324 121.26 182.145 120.726 181.053H120.813C120.889 181.053 120.682 175.869 120.638 175.596C120.049 171.82 116.698 164.857 112.464 164.18C111.758 164.086 111.04 164.142 110.357 164.345C109.674 164.547 109.042 164.892 108.501 165.355C107.96 165.819 107.523 166.391 107.219 167.035C106.914 167.679 106.749 168.379 106.734 169.091C106.559 172.115 108.818 175.072 110.99 176.928C113.162 178.783 119.034 180.595 120.475 181.01C121.009 182.167 121.566 183.4 122.166 184.775C123.181 187.209 124.349 189.959 125.321 193.037C125.593 193.856 125.855 194.751 126.128 195.602C125.375 194.249 124.316 192.404 124.185 192.241C121.926 189.152 115.738 184.513 111.678 185.867C111.008 186.108 110.397 186.488 109.884 186.982C109.371 187.476 108.968 188.073 108.701 188.733C108.434 189.393 108.31 190.102 108.336 190.814C108.362 191.525 108.537 192.223 108.851 192.863C110.084 195.624 113.457 197.228 116.251 197.85C119.045 198.473 125.266 197.37 126.598 197.108C127.165 199.018 127.689 200.994 128.147 203.089C128.973 206.855 129.462 210.686 129.61 214.538C129.61 214.768 129.61 214.997 129.61 215.226C129.348 214.484 127.645 210.566 127.503 210.304C125.593 207.029 119.951 201.692 115.76 202.587C115.066 202.755 114.416 203.067 113.852 203.503C113.287 203.938 112.821 204.488 112.483 205.117C112.145 205.745 111.944 206.437 111.891 207.148C111.839 207.86 111.937 208.574 112.18 209.245C113.108 212.115 116.295 214.069 118.99 215.008C122.101 216.099 129.337 215.401 129.599 215.379C129.658 219.244 129.465 223.108 129.021 226.948C128.704 229.796 128.267 232.667 127.798 235.537C127.438 234.588 125.866 230.942 125.713 230.691C123.814 227.417 118.172 222.091 113.981 222.986C113.289 223.154 112.64 223.465 112.076 223.901C111.513 224.336 111.047 224.884 110.709 225.511C110.372 226.138 110.17 226.829 110.117 227.539C110.063 228.249 110.16 228.963 110.401 229.633C111.329 232.514 114.505 234.457 117.211 235.406C120.245 236.498 127.176 235.832 127.765 235.777C127.547 237.076 127.34 238.386 127.121 239.696C126.39 243.952 125.648 248.231 125.048 252.465C124.829 253.939 124.677 255.39 124.524 256.831C123.945 255.423 122.843 252.891 122.723 252.684C120.813 249.409 115.17 244.072 110.979 244.978C110.287 245.146 109.638 245.458 109.075 245.893C108.511 246.328 108.045 246.877 107.708 247.504C107.37 248.13 107.168 248.821 107.115 249.531C107.062 250.241 107.159 250.955 107.399 251.625C108.327 254.506 111.503 256.449 114.21 257.398C116.917 258.348 122.756 257.933 124.404 257.802C124.153 260.225 123.967 262.637 123.891 265.017C123.891 266.043 123.793 267.101 123.891 268.084C123.989 269.066 123.891 270.07 123.956 271.041C124.087 273.06 124.185 274.938 124.349 276.815C124.426 277.764 124.513 278.659 124.6 279.576C124.229 278.07 123.596 275.68 123.509 275.472C122.123 271.903 117.353 265.824 113.064 266.075C112.355 266.139 111.667 266.35 111.045 266.696C110.423 267.042 109.88 267.515 109.452 268.084C109.024 268.653 108.72 269.305 108.56 269.999C108.4 270.692 108.388 271.412 108.524 272.111C109.004 275.09 111.798 277.502 114.374 278.845C117.168 280.318 123.88 280.755 124.698 280.81C124.917 283.058 125.157 285.252 125.408 287.293C126.216 293.776 127.121 299.134 127.809 302.889C128.497 306.643 128.988 308.772 128.988 308.772C129.021 308.978 129.096 309.174 129.209 309.349C129.322 309.525 129.47 309.674 129.643 309.789C129.817 309.905 130.013 309.982 130.218 310.018C130.424 310.053 130.634 310.046 130.836 309.996C131.039 309.946 131.228 309.854 131.394 309.727C131.559 309.6 131.696 309.44 131.796 309.257C131.896 309.075 131.957 308.873 131.975 308.666C131.994 308.458 131.969 308.249 131.902 308.051C131.902 308.051 131.334 306.054 130.57 302.354Z" fill="#343434"/>
<path d="M126.903 196.311C126.903 196.311 134.106 194.129 136.606 191.869C138.789 189.97 140.972 186.947 140.655 183.924C140.621 183.213 140.437 182.518 140.116 181.883C139.795 181.248 139.344 180.688 138.792 180.239C138.24 179.79 137.6 179.462 136.913 179.277C136.226 179.092 135.508 179.054 134.805 179.165C130.592 179.951 127.416 187.002 126.936 190.8C126.892 191.127 126.827 196.333 126.903 196.311Z" fill="#343434"/>
</g>
<path d="M361.395 329.585C361.537 363.779 388.746 391.392 388.746 391.392C388.746 391.392 415.726 363.55 415.574 329.356C415.421 295.161 388.277 267.548 388.277 267.548C388.277 267.548 361.243 295.391 361.395 329.585Z" fill="#FFAC2F"/>
<path d="M388.747 391.392L388.223 267.548" stroke="white" stroke-width="0.910297" stroke-miterlimit="10"/>
<path d="M388.408 311.566L373.183 298.392" stroke="white" stroke-width="0.910297" stroke-miterlimit="10"/>
<path d="M388.736 332.03L407.399 304.744" stroke="white" stroke-width="0.910297" stroke-miterlimit="10"/>
<path d="M388.55 343.828L366.067 323.942" stroke="white" stroke-width="0.910297" stroke-miterlimit="10"/>
<path d="M388.856 359.719L410.924 339.877" stroke="white" stroke-width="0.910297" stroke-miterlimit="10"/>
<path d="M388.91 373.438L371.524 359.796" stroke="white" stroke-width="0.910297" stroke-miterlimit="10"/>
<path d="M342.852 382.366C356.069 397.188 378.454 398.738 378.454 398.738C378.454 398.738 379.448 376.287 366.23 361.509C353.013 346.731 330.585 345.225 330.585 345.225C330.585 345.225 329.635 367.632 342.852 382.366Z" fill="#FFAC2F"/>
<path d="M378.498 398.694L330.628 345.181" stroke="white" stroke-width="0.910297" stroke-miterlimit="10"/>
<path d="M347.644 364.194L335.965 364.336" stroke="white" stroke-width="0.910297" stroke-miterlimit="10"/>
<path d="M355.655 372.947L353.253 353.935" stroke="white" stroke-width="0.910297" stroke-miterlimit="10"/>
<path d="M360.107 378.142L342.71 378.164" stroke="white" stroke-width="0.910297" stroke-miterlimit="10"/>
<path d="M366.362 384.909L368.304 367.818" stroke="white" stroke-width="0.910297" stroke-miterlimit="10"/>
<path d="M371.666 390.847L358.874 391.611" stroke="white" stroke-width="0.910297" stroke-miterlimit="10"/>
<path d="M411.787 360.745C398.035 375.032 398.209 397.504 398.209 397.504C398.209 397.504 420.671 396.817 434.423 382.53C448.175 368.243 448 345.771 448 345.771C448 345.771 425.539 346.458 411.787 360.745Z" fill="#FFAC2F"/>
<path d="M398.209 397.504L448 345.771" stroke="white" stroke-width="0.910297" stroke-miterlimit="10"/>
<path d="M430.308 364.161L429.293 352.527" stroke="white" stroke-width="0.910297" stroke-miterlimit="10"/>
<path d="M422.177 372.805L440.96 368.996" stroke="white" stroke-width="0.910297" stroke-miterlimit="10"/>
<path d="M417.331 377.64L416.01 360.287" stroke="white" stroke-width="0.910297" stroke-miterlimit="10"/>
<path d="M411.044 384.375L428.234 385.029" stroke="white" stroke-width="0.910297" stroke-miterlimit="10"/>
<path d="M405.522 390.105L403.797 377.4" stroke="white" stroke-width="0.910297" stroke-miterlimit="10"/>
<g opacity="0.1">
<path d="M361.395 329.585C361.537 363.779 388.746 391.392 388.746 391.392C388.746 391.392 415.726 363.55 415.574 329.356C415.421 295.161 388.277 267.548 388.277 267.548C388.277 267.548 361.243 295.391 361.395 329.585Z" fill="#343434"/>
<path d="M342.852 382.366C356.069 397.188 378.454 398.738 378.454 398.738C378.454 398.738 379.448 376.287 366.23 361.509C353.013 346.731 330.585 345.225 330.585 345.225C330.585 345.225 329.635 367.632 342.852 382.366Z" fill="#343434"/>
<path d="M411.786 360.745C398.034 375.032 398.209 397.504 398.209 397.504C398.209 397.504 420.671 396.817 434.423 382.53C448.174 368.243 448 345.771 448 345.771C448 345.771 425.538 346.458 411.786 360.745Z" fill="#343434"/>
</g>
<path d="M369.145 50.3333H99.9124V396.871H369.145V50.3333Z" fill="white" stroke="#263238" stroke-width="0.987488" stroke-linecap="round" stroke-linejoin="round"/>
<g style="mix-blend-mode:multiply">
<path d="M142.86 50.3333H99.9124V396.871H142.86V50.3333Z" fill="#FFAC2F"/>
</g>
<path d="M309.324 101.532H226.758V111.246H309.324V101.532Z" fill="#FFAC2F" stroke="#263238" stroke-width="0.987488" stroke-linecap="round" stroke-linejoin="round"/>
<path d="M360.118 184.295H133.79V194.008H360.118V184.295Z" fill="#FFAC2F"/>
<path d="M360.118 317.798H133.79V327.511H360.118V317.798Z" fill="#FFAC2F"/>
<path d="M278.797 118.264H226.758V127.977H278.797V118.264Z" fill="#FFAC2F" stroke="#263238" stroke-width="0.987488" stroke-linecap="round" stroke-linejoin="round"/>
<path d="M278.797 134.646H226.758V144.359H278.797V134.646Z" fill="#FFAC2F" stroke="#263238" stroke-width="0.987488" stroke-linecap="round" stroke-linejoin="round"/>
<path d="M219.598 204.704H214.239V210.063H219.598V204.704Z" fill="#FFAC2F" stroke="#263238" stroke-width="0.987488" stroke-linecap="round" stroke-linejoin="round"/>
<path d="M219.598 273.628H214.239V278.987H219.598V273.628Z" fill="#FFAC2F" stroke="#263238" stroke-width="0.987488" stroke-linecap="round" stroke-linejoin="round"/>
<path d="M295.222 204.704H289.864V210.063H295.222V204.704Z" fill="#FFAC2F" stroke="#263238" stroke-width="0.987488" stroke-linecap="round" stroke-linejoin="round"/>
<path d="M295.222 273.628H289.864V278.987H295.222V273.628Z" fill="#FFAC2F" stroke="#263238" stroke-width="0.987488" stroke-linecap="round" stroke-linejoin="round"/>
<path d="M369.145 50.3333H99.9124V67.9598H369.145V50.3333Z" fill="#263238" stroke="#263238" stroke-width="0.987488" stroke-linecap="round" stroke-linejoin="round"/>
<path d="M275.675 208.426H228.286C227.88 208.426 227.492 208.265 227.205 207.978C226.919 207.692 226.758 207.303 226.758 206.898C226.758 206.493 226.919 206.104 227.205 205.817C227.492 205.531 227.88 205.37 228.286 205.37H275.675C276.08 205.37 276.469 205.531 276.756 205.817C277.042 206.104 277.203 206.493 277.203 206.898C277.203 207.303 277.042 207.692 276.756 207.978C276.469 208.265 276.08 208.426 275.675 208.426Z" fill="#263238"/>
<path d="M275.675 216.077H228.286C227.879 216.074 227.491 215.91 227.204 215.622C226.918 215.334 226.758 214.944 226.758 214.538C226.758 214.132 226.919 213.744 227.205 213.457C227.492 213.171 227.88 213.01 228.286 213.01H275.675C276.08 213.01 276.469 213.171 276.756 213.457C277.042 213.744 277.203 214.132 277.203 214.538C277.203 214.944 277.043 215.334 276.756 215.622C276.47 215.91 276.081 216.074 275.675 216.077Z" fill="#263238"/>
<path d="M275.675 223.717H228.286C227.88 223.717 227.492 223.556 227.205 223.269C226.919 222.983 226.758 222.594 226.758 222.189C226.758 221.784 226.919 221.395 227.205 221.109C227.492 220.822 227.88 220.661 228.286 220.661H275.675C276.08 220.661 276.469 220.822 276.756 221.109C277.042 221.395 277.203 221.784 277.203 222.189C277.203 222.594 277.042 222.983 276.756 223.269C276.469 223.556 276.08 223.717 275.675 223.717Z" fill="#263238"/>
<path d="M275.675 231.357H228.286C227.88 231.357 227.492 231.196 227.205 230.909C226.919 230.623 226.758 230.234 226.758 229.829C226.758 229.424 226.919 229.035 227.205 228.748C227.492 228.462 227.88 228.301 228.286 228.301H275.675C276.08 228.301 276.469 228.462 276.756 228.748C277.042 229.035 277.203 229.424 277.203 229.829C277.203 230.234 277.042 230.623 276.756 230.909C276.469 231.196 276.08 231.357 275.675 231.357Z" fill="#263238"/>
<path d="M275.675 238.997H228.286C227.88 238.997 227.492 238.836 227.205 238.549C226.919 238.262 226.758 237.874 226.758 237.469C226.758 237.063 226.919 236.675 227.205 236.388C227.492 236.102 227.88 235.941 228.286 235.941H275.675C276.08 235.941 276.469 236.102 276.756 236.388C277.042 236.675 277.203 237.063 277.203 237.469C277.203 237.874 277.042 238.262 276.756 238.549C276.469 238.836 276.08 238.997 275.675 238.997Z" fill="#263238"/>
<path d="M347.36 208.426H299.97C299.565 208.426 299.176 208.265 298.89 207.978C298.603 207.692 298.442 207.303 298.442 206.898C298.442 206.493 298.603 206.104 298.89 205.817C299.176 205.531 299.565 205.37 299.97 205.37H347.36C347.765 205.37 348.154 205.531 348.44 205.817C348.727 206.104 348.888 206.493 348.888 206.898C348.888 207.303 348.727 207.692 348.44 207.978C348.154 208.265 347.765 208.426 347.36 208.426Z" fill="#263238"/>
<path d="M347.36 216.077H299.97C299.564 216.074 299.175 215.91 298.889 215.622C298.603 215.334 298.442 214.944 298.442 214.538C298.442 214.132 298.603 213.744 298.89 213.457C299.176 213.171 299.565 213.01 299.97 213.01H347.36C347.765 213.01 348.154 213.171 348.44 213.457C348.727 213.744 348.888 214.132 348.888 214.538C348.888 214.944 348.727 215.334 348.441 215.622C348.155 215.91 347.766 216.074 347.36 216.077Z" fill="#263238"/>
<path d="M347.36 223.717H299.97C299.565 223.717 299.176 223.556 298.89 223.269C298.603 222.983 298.442 222.594 298.442 222.189C298.442 221.784 298.603 221.395 298.89 221.109C299.176 220.822 299.565 220.661 299.97 220.661H347.36C347.765 220.661 348.154 220.822 348.44 221.109C348.727 221.395 348.888 221.784 348.888 222.189C348.888 222.594 348.727 222.983 348.44 223.269C348.154 223.556 347.765 223.717 347.36 223.717Z" fill="#263238"/>
<path d="M347.36 231.357H299.97C299.565 231.357 299.176 231.196 298.89 230.909C298.603 230.623 298.442 230.234 298.442 229.829C298.442 229.424 298.603 229.035 298.89 228.748C299.176 228.462 299.565 228.301 299.97 228.301H347.36C347.765 228.301 348.154 228.462 348.44 228.748C348.727 229.035 348.888 229.424 348.888 229.829C348.888 230.234 348.727 230.623 348.44 230.909C348.154 231.196 347.765 231.357 347.36 231.357Z" fill="#263238"/>
<path d="M347.36 238.997H299.97C299.565 238.997 299.176 238.836 298.89 238.549C298.603 238.262 298.442 237.874 298.442 237.469C298.442 237.063 298.603 236.675 298.89 236.388C299.176 236.102 299.565 235.941 299.97 235.941H347.36C347.765 235.941 348.154 236.102 348.44 236.388C348.727 236.675 348.888 237.063 348.888 237.469C348.888 237.874 348.727 238.262 348.44 238.549C348.154 238.836 347.765 238.997 347.36 238.997Z" fill="#263238"/>
<path d="M275.675 276.203H228.286C227.879 276.2 227.491 276.037 227.204 275.749C226.918 275.46 226.758 275.071 226.758 274.664C226.758 274.259 226.919 273.871 227.205 273.584C227.492 273.297 227.88 273.136 228.286 273.136H275.675C276.08 273.136 276.469 273.297 276.756 273.584C277.042 273.871 277.203 274.259 277.203 274.664C277.203 275.071 277.043 275.46 276.756 275.749C276.47 276.037 276.081 276.2 275.675 276.203Z" fill="#263238"/>
<path d="M275.675 283.843H228.286C227.88 283.843 227.492 283.682 227.205 283.396C226.919 283.109 226.758 282.721 226.758 282.315C226.758 281.91 226.919 281.522 227.205 281.235C227.492 280.948 227.88 280.787 228.286 280.787H275.675C276.08 280.787 276.469 280.948 276.756 281.235C277.042 281.522 277.203 281.91 277.203 282.315C277.203 282.721 277.042 283.109 276.756 283.396C276.469 283.682 276.08 283.843 275.675 283.843Z" fill="#263238"/>
<path d="M275.675 291.483H228.286C227.88 291.483 227.492 291.322 227.205 291.036C226.919 290.749 226.758 290.36 226.758 289.955C226.758 289.55 226.919 289.161 227.205 288.875C227.492 288.588 227.88 288.427 228.286 288.427H275.675C276.08 288.427 276.469 288.588 276.756 288.875C277.042 289.161 277.203 289.55 277.203 289.955C277.203 290.36 277.042 290.749 276.756 291.036C276.469 291.322 276.08 291.483 275.675 291.483Z" fill="#263238"/>
<path d="M275.675 299.123H228.286C227.88 299.123 227.492 298.962 227.205 298.676C226.919 298.389 226.758 298.001 226.758 297.595C226.758 297.19 226.919 296.801 227.205 296.515C227.492 296.228 227.88 296.067 228.286 296.067H275.675C276.08 296.067 276.469 296.228 276.756 296.515C277.042 296.801 277.203 297.19 277.203 297.595C277.203 298.001 277.042 298.389 276.756 298.676C276.469 298.962 276.08 299.123 275.675 299.123Z" fill="#263238"/>
<path d="M275.675 306.774H228.286C227.88 306.774 227.492 306.613 227.205 306.327C226.919 306.04 226.758 305.652 226.758 305.246C226.758 304.841 226.919 304.452 227.205 304.166C227.492 303.879 227.88 303.718 228.286 303.718H275.675C276.08 303.718 276.469 303.879 276.756 304.166C277.042 304.452 277.203 304.841 277.203 305.246C277.203 305.652 277.042 306.04 276.756 306.327C276.469 306.613 276.08 306.774 275.675 306.774Z" fill="#263238"/>
<path d="M347.36 276.203H299.97C299.564 276.2 299.175 276.037 298.889 275.749C298.603 275.46 298.442 275.071 298.442 274.664C298.442 274.259 298.603 273.871 298.89 273.584C299.176 273.297 299.565 273.136 299.97 273.136H347.36C347.765 273.136 348.154 273.297 348.44 273.584C348.727 273.871 348.888 274.259 348.888 274.664C348.888 275.071 348.727 275.46 348.441 275.749C348.155 276.037 347.766 276.2 347.36 276.203Z" fill="#263238"/>
<path d="M347.36 283.843H299.97C299.565 283.843 299.176 283.682 298.89 283.396C298.603 283.109 298.442 282.721 298.442 282.315C298.442 281.91 298.603 281.522 298.89 281.235C299.176 280.948 299.565 280.787 299.97 280.787H347.36C347.765 280.787 348.154 280.948 348.44 281.235C348.727 281.522 348.888 281.91 348.888 282.315C348.888 282.721 348.727 283.109 348.44 283.396C348.154 283.682 347.765 283.843 347.36 283.843Z" fill="#263238"/>
<path d="M347.36 291.483H299.97C299.565 291.483 299.176 291.322 298.89 291.036C298.603 290.749 298.442 290.36 298.442 289.955C298.442 289.55 298.603 289.161 298.89 288.875C299.176 288.588 299.565 288.427 299.97 288.427H347.36C347.765 288.427 348.154 288.588 348.44 288.875C348.727 289.161 348.888 289.55 348.888 289.955C348.888 290.36 348.727 290.749 348.44 291.036C348.154 291.322 347.765 291.483 347.36 291.483Z" fill="#263238"/>
<path d="M347.36 299.123H299.97C299.565 299.123 299.176 298.962 298.89 298.676C298.603 298.389 298.442 298.001 298.442 297.595C298.442 297.19 298.603 296.801 298.89 296.515C299.176 296.228 299.565 296.067 299.97 296.067H347.36C347.765 296.067 348.154 296.228 348.44 296.515C348.727 296.801 348.888 297.19 348.888 297.595C348.888 298.001 348.727 298.389 348.44 298.676C348.154 298.962 347.765 299.123 347.36 299.123Z" fill="#263238"/>
<path d="M347.36 306.774H299.97C299.565 306.774 299.176 306.613 298.89 306.327C298.603 306.04 298.442 305.652 298.442 305.246C298.442 304.841 298.603 304.452 298.89 304.166C299.176 303.879 299.565 303.718 299.97 303.718H347.36C347.765 303.718 348.154 303.879 348.44 304.166C348.727 304.452 348.888 304.841 348.888 305.246C348.888 305.652 348.727 306.04 348.44 306.327C348.154 306.613 347.765 306.774 347.36 306.774Z" fill="#263238"/>
<path d="M347.36 341.656H299.97C299.565 341.656 299.176 341.495 298.89 341.209C298.603 340.922 298.442 340.533 298.442 340.128C298.442 339.723 298.603 339.334 298.89 339.048C299.176 338.761 299.565 338.6 299.97 338.6H347.36C347.765 338.6 348.154 338.761 348.44 339.048C348.727 339.334 348.888 339.723 348.888 340.128C348.888 340.533 348.727 340.922 348.44 341.209C348.154 341.495 347.765 341.656 347.36 341.656Z" fill="#263238"/>
<path d="M347.36 349.296H299.97C299.565 349.296 299.176 349.135 298.89 348.848C298.603 348.562 298.442 348.173 298.442 347.768C298.442 347.363 298.603 346.974 298.89 346.688C299.176 346.401 299.565 346.24 299.97 346.24H347.36C347.765 346.24 348.154 346.401 348.44 346.688C348.727 346.974 348.888 347.363 348.888 347.768C348.888 348.173 348.727 348.562 348.44 348.848C348.154 349.135 347.765 349.296 347.36 349.296Z" fill="#263238"/>
<path d="M347.36 356.947H299.97C299.565 356.947 299.176 356.786 298.89 356.499C298.603 356.213 298.442 355.824 298.442 355.419C298.442 355.014 298.603 354.625 298.89 354.338C299.176 354.052 299.565 353.891 299.97 353.891H347.36C347.765 353.891 348.154 354.052 348.44 354.338C348.727 354.625 348.888 355.014 348.888 355.419C348.888 355.824 348.727 356.213 348.44 356.499C348.154 356.786 347.765 356.947 347.36 356.947Z" fill="#263238"/>
<path d="M347.36 361.531H299.97C299.126 361.531 298.442 362.215 298.442 363.059C298.442 363.903 299.126 364.587 299.97 364.587H347.36C348.204 364.587 348.888 363.903 348.888 363.059C348.888 362.215 348.204 361.531 347.36 361.531Z" fill="#263238"/>
<path d="M347.36 372.227H299.97C299.565 372.227 299.176 372.066 298.89 371.779C298.603 371.493 298.442 371.104 298.442 370.699C298.442 370.294 298.603 369.905 298.89 369.618C299.176 369.332 299.565 369.171 299.97 369.171H347.36C347.765 369.171 348.154 369.332 348.44 369.618C348.727 369.905 348.888 370.294 348.888 370.699C348.888 371.104 348.727 371.493 348.44 371.779C348.154 372.066 347.765 372.227 347.36 372.227Z" fill="#263238"/>
<path d="M342.776 252.76C341.331 252.76 339.934 253.273 338.831 254.206C337.728 255.139 336.991 256.432 336.751 257.857H329.439C329.171 256.461 328.426 255.201 327.33 254.296C326.234 253.39 324.857 252.895 323.436 252.895C322.014 252.895 320.637 253.39 319.542 254.296C318.446 255.201 317.7 256.461 317.433 257.857H310.12C309.853 256.461 309.107 255.201 308.012 254.296C306.916 253.39 305.539 252.895 304.118 252.895C302.696 252.895 301.319 253.39 300.224 254.296C299.128 255.201 298.382 256.461 298.115 257.857H290.704C290.449 256.451 289.708 255.179 288.611 254.263C287.514 253.348 286.13 252.846 284.701 252.846C283.272 252.846 281.889 253.348 280.792 254.263C279.695 255.179 278.954 256.451 278.698 257.857H271.375C271.12 256.451 270.379 255.179 269.282 254.263C268.185 253.348 266.801 252.846 265.372 252.846C263.943 252.846 262.56 253.348 261.463 254.263C260.365 255.179 259.625 256.451 259.369 257.857H252.046C251.79 256.451 251.05 255.179 249.953 254.263C248.856 253.348 247.472 252.846 246.043 252.846C244.614 252.846 243.23 253.348 242.133 254.263C241.036 255.179 240.296 256.451 240.04 257.857H232.717C232.461 256.346 231.647 254.986 230.436 254.047C229.225 253.108 227.706 252.658 226.179 252.787C224.652 252.915 223.229 253.612 222.191 254.74C221.154 255.868 220.579 257.345 220.579 258.877C220.579 260.41 221.154 261.886 222.191 263.014C223.229 264.142 224.652 264.839 226.179 264.968C227.706 265.096 229.225 264.646 230.436 263.707C231.647 262.768 232.461 261.409 232.717 259.898H240.04C240.296 261.304 241.036 262.575 242.133 263.491C243.23 264.407 244.614 264.908 246.043 264.908C247.472 264.908 248.856 264.407 249.953 263.491C251.05 262.575 251.79 261.304 252.046 259.898H259.369C259.625 261.304 260.365 262.575 261.463 263.491C262.56 264.407 263.943 264.908 265.372 264.908C266.801 264.908 268.185 264.407 269.282 263.491C270.379 262.575 271.12 261.304 271.375 259.898H278.698C278.954 261.304 279.695 262.575 280.792 263.491C281.889 264.407 283.272 264.908 284.701 264.908C286.13 264.908 287.514 264.407 288.611 263.491C289.708 262.575 290.449 261.304 290.704 259.898H298.028C298.295 261.294 299.041 262.553 300.136 263.459C301.232 264.364 302.609 264.86 304.03 264.86C305.452 264.86 306.829 264.364 307.924 263.459C309.02 262.553 309.766 261.294 310.033 259.898H317.346C317.613 261.294 318.359 262.553 319.454 263.459C320.55 264.364 321.927 264.86 323.349 264.86C324.77 264.86 326.147 264.364 327.243 263.459C328.338 262.553 329.084 261.294 329.351 259.898H336.664C336.859 261.046 337.379 262.115 338.162 262.978C338.944 263.841 339.957 264.462 341.081 264.768C342.205 265.075 343.393 265.054 344.506 264.707C345.618 264.361 346.608 263.704 347.36 262.814C348.111 261.924 348.593 260.837 348.747 259.682C348.902 258.528 348.723 257.353 348.232 256.296C347.741 255.24 346.959 254.346 345.976 253.719C344.994 253.093 343.854 252.76 342.689 252.76H342.776Z" fill="#263238"/>
<path d="M200.214 339.168C198.176 339.165 196.183 339.768 194.487 340.899C192.791 342.029 191.469 343.638 190.688 345.52C189.906 347.403 189.7 349.475 190.097 351.474C190.493 353.473 191.474 355.31 192.914 356.752C194.354 358.194 196.19 359.176 198.189 359.575C200.188 359.973 202.26 359.77 204.143 358.99C206.027 358.211 207.636 356.89 208.769 355.196C209.902 353.501 210.506 351.509 210.506 349.471C210.508 348.118 210.243 346.779 209.726 345.529C209.209 344.279 208.451 343.143 207.496 342.186C206.54 341.229 205.405 340.47 204.155 339.952C202.906 339.434 201.567 339.168 200.214 339.168ZM200.214 354.6C199.196 354.602 198.201 354.303 197.354 353.738C196.507 353.174 195.846 352.372 195.456 351.432C195.066 350.492 194.963 349.458 195.161 348.459C195.359 347.461 195.849 346.544 196.568 345.825C197.288 345.105 198.205 344.615 199.203 344.417C200.201 344.219 201.236 344.322 202.175 344.712C203.115 345.103 203.918 345.763 204.482 346.611C205.046 347.458 205.346 348.453 205.344 349.471C205.341 350.83 204.8 352.133 203.838 353.095C202.877 354.056 201.574 354.597 200.214 354.6Z" fill="#FFAC2F" stroke="#263238" stroke-width="0.987488" stroke-linecap="round" stroke-linejoin="round"/>
<path d="M203.281 353.563L208.192 355.954C209.418 354.447 210.192 352.624 210.425 350.695C210.659 348.767 210.341 346.812 209.51 345.056C208.679 343.301 207.368 341.816 205.729 340.774C204.09 339.732 202.189 339.175 200.247 339.168V344.33C201.319 344.341 202.36 344.688 203.225 345.322C204.09 345.956 204.734 346.844 205.068 347.863C205.401 348.882 205.407 349.98 205.085 351.002C204.762 352.025 204.128 352.92 203.27 353.563H203.281Z" fill="#263238" stroke="#263238" stroke-width="0.987488" stroke-linecap="round" stroke-linejoin="round"/>
<path d="M205.169 372.543H195.346C195.024 372.545 194.705 372.482 194.407 372.36C194.11 372.238 193.839 372.058 193.611 371.831C193.382 371.604 193.201 371.334 193.078 371.036C192.954 370.739 192.891 370.42 192.891 370.098C192.891 369.447 193.149 368.822 193.61 368.362C194.07 367.901 194.695 367.643 195.346 367.643H205.169C205.82 367.643 206.445 367.901 206.906 368.362C207.366 368.822 207.625 369.447 207.625 370.098C207.625 370.42 207.561 370.739 207.438 371.036C207.314 371.334 207.133 371.604 206.905 371.831C206.677 372.058 206.406 372.238 206.108 372.36C205.81 372.482 205.491 372.545 205.169 372.543Z" fill="#FFAC2F" stroke="#263238" stroke-width="0.987488" stroke-linecap="round" stroke-linejoin="round"/>
<path d="M230.916 339.168C228.878 339.168 226.886 339.772 225.192 340.904C223.497 342.036 222.177 343.645 221.397 345.528C220.617 347.41 220.413 349.482 220.811 351.481C221.208 353.479 222.19 355.315 223.63 356.756C225.071 358.197 226.907 359.178 228.906 359.576C230.904 359.973 232.976 359.769 234.859 358.989C236.741 358.21 238.35 356.889 239.482 355.195C240.615 353.5 241.219 351.508 241.219 349.471C241.22 348.117 240.955 346.777 240.438 345.526C239.92 344.275 239.161 343.139 238.204 342.182C237.247 341.225 236.111 340.466 234.86 339.949C233.61 339.432 232.269 339.166 230.916 339.168ZM230.916 354.6C229.899 354.6 228.904 354.299 228.059 353.733C227.213 353.168 226.554 352.364 226.165 351.424C225.777 350.484 225.676 349.45 225.875 348.453C226.074 347.455 226.565 346.539 227.285 345.821C228.005 345.102 228.922 344.614 229.92 344.417C230.918 344.219 231.952 344.323 232.891 344.714C233.83 345.104 234.632 345.765 235.195 346.612C235.759 347.458 236.059 348.453 236.056 349.471C236.056 350.145 235.923 350.813 235.665 351.436C235.406 352.059 235.028 352.625 234.55 353.102C234.073 353.578 233.506 353.956 232.882 354.213C232.259 354.47 231.59 354.602 230.916 354.6Z" fill="#FFAC2F" stroke="#263238" stroke-width="0.987488" stroke-linecap="round" stroke-linejoin="round"/>
<path d="M241.164 348.39C240.894 345.869 239.705 343.536 237.825 341.836C235.945 340.135 233.505 339.185 230.97 339.168V344.33C232.324 344.344 233.618 344.892 234.57 345.855C235.522 346.817 236.057 348.117 236.056 349.471C236.045 349.668 236.024 349.865 235.991 350.06L241.164 348.39Z" fill="#263238" stroke="#263238" stroke-width="0.987488" stroke-linecap="round" stroke-linejoin="round"/>
<path d="M235.827 372.543H226.005C225.683 372.545 225.363 372.482 225.066 372.36C224.768 372.238 224.497 372.058 224.269 371.831C224.041 371.604 223.859 371.334 223.736 371.036C223.612 370.739 223.549 370.42 223.549 370.098C223.549 369.447 223.808 368.822 224.268 368.362C224.729 367.901 225.353 367.643 226.005 367.643H235.827C236.479 367.643 237.103 367.901 237.564 368.362C238.024 368.822 238.283 369.447 238.283 370.098C238.283 370.42 238.219 370.739 238.096 371.036C237.972 371.334 237.791 371.604 237.563 371.831C237.335 372.058 237.064 372.238 236.766 372.36C236.468 372.482 236.149 372.545 235.827 372.543Z" fill="#FFAC2F" stroke="#263238" stroke-width="0.987488" stroke-linecap="round" stroke-linejoin="round"/>
<path d="M261.803 339.168C259.765 339.168 257.773 339.772 256.079 340.904C254.385 342.036 253.064 343.645 252.284 345.528C251.504 347.41 251.3 349.482 251.698 351.481C252.096 353.479 253.077 355.315 254.518 356.756C255.959 358.197 257.794 359.178 259.793 359.576C261.792 359.973 263.863 359.769 265.746 358.989C267.628 358.21 269.238 356.889 270.37 355.195C271.502 353.5 272.106 351.508 272.106 349.471C272.108 348.117 271.842 346.777 271.325 345.526C270.807 344.275 270.049 343.139 269.092 342.182C268.135 341.225 266.998 340.466 265.748 339.949C264.497 339.432 263.156 339.166 261.803 339.168ZM261.803 354.6C260.786 354.6 259.792 354.299 258.946 353.733C258.1 353.168 257.441 352.364 257.053 351.424C256.664 350.484 256.563 349.45 256.762 348.453C256.961 347.455 257.452 346.539 258.172 345.821C258.892 345.102 259.809 344.614 260.807 344.417C261.805 344.219 262.839 344.323 263.778 344.714C264.717 345.104 265.519 345.765 266.083 346.612C266.646 347.458 266.946 348.453 266.944 349.471C266.944 350.145 266.811 350.813 266.552 351.436C266.294 352.059 265.915 352.625 265.437 353.102C264.96 353.578 264.393 353.956 263.769 354.213C263.146 354.47 262.478 354.602 261.803 354.6Z" fill="#FFAC2F" stroke="#263238" stroke-width="0.987488" stroke-linecap="round" stroke-linejoin="round"/>
<path d="M261.858 339.168V344.33C262.723 344.331 263.574 344.551 264.331 344.969C265.089 345.386 265.729 345.988 266.192 346.719C266.655 347.45 266.926 348.285 266.98 349.149C267.034 350.012 266.87 350.875 266.502 351.658C266.134 352.441 265.574 353.118 264.875 353.627C264.175 354.136 263.358 354.46 262.5 354.57C261.642 354.679 260.77 354.57 259.965 354.253C259.161 353.936 258.449 353.421 257.896 352.756L253.814 355.943C254.907 357.291 256.324 358.34 257.932 358.994C259.54 359.648 261.287 359.884 263.011 359.681C264.734 359.478 266.379 358.843 267.791 357.834C269.203 356.824 270.337 355.475 271.088 353.91C271.838 352.344 272.181 350.615 272.083 348.882C271.986 347.149 271.452 345.469 270.531 343.998C269.61 342.527 268.332 341.312 266.815 340.468C265.299 339.623 263.593 339.176 261.858 339.168Z" fill="#263238" stroke="#263238" stroke-width="0.987488" stroke-linecap="round" stroke-linejoin="round"/>
<path d="M266.715 372.543H256.892C256.57 372.545 256.251 372.482 255.953 372.36C255.655 372.238 255.384 372.058 255.156 371.831C254.928 371.604 254.747 371.334 254.623 371.037C254.5 370.739 254.436 370.42 254.436 370.098C254.435 369.776 254.497 369.456 254.62 369.157C254.743 368.858 254.924 368.587 255.152 368.359C255.38 368.13 255.652 367.95 255.95 367.827C256.249 367.704 256.569 367.641 256.892 367.643H266.715C267.366 367.643 267.99 367.901 268.451 368.362C268.912 368.822 269.17 369.447 269.17 370.098C269.17 370.42 269.107 370.739 268.983 371.037C268.86 371.334 268.679 371.604 268.45 371.831C268.222 372.058 267.951 372.238 267.654 372.36C267.356 372.482 267.037 372.545 266.715 372.543Z" fill="#FFAC2F" stroke="#263238" stroke-width="0.987488" stroke-linecap="round" stroke-linejoin="round"/>
<path d="M156.022 180.366C181.484 180.366 202.124 159.725 202.124 134.264C202.124 108.803 181.484 88.1622 156.022 88.1622C130.561 88.1622 109.921 108.803 109.921 134.264C109.921 159.725 130.561 180.366 156.022 180.366Z" fill="white"/>
<path d="M169.992 390.748C169.992 390.748 176.65 400.757 175.733 404.718C174.817 408.68 168.967 407.458 166.194 403.19C163.422 398.923 156.371 392.549 157.648 389.81C158.925 387.07 167.504 388.314 169.992 390.748Z" fill="white" stroke="#263238" stroke-width="1.02307" stroke-linecap="round" stroke-linejoin="round"/>
<path d="M141.387 390.192C141.387 390.192 133.343 402.132 134.631 405.395C135.918 408.659 140.088 407.687 143.275 404.741C146.462 401.794 152.825 393.521 152.825 393.521C152.825 393.521 147.477 386.929 141.387 390.192Z" fill="white" stroke="#263238" stroke-width="1.02307" stroke-linecap="round" stroke-linejoin="round"/>
<path d="M134.63 405.395C136.812 405.696 139.031 405.262 140.939 404.162C144.606 402.307 151.002 393.936 151.002 393.936" stroke="#263238" stroke-width="0.767303" stroke-linecap="round" stroke-linejoin="round"/>
<path d="M159.886 391.807C159.886 391.807 163.368 398.356 167.286 402.066C171.204 405.777 173.125 406.836 175.701 404.719" stroke="#263238" stroke-width="0.767303" stroke-linecap="round" stroke-linejoin="round"/>
<path d="M130.09 241.191C130.09 241.191 123.051 255.554 123.367 261.426C123.684 267.298 124.971 297.006 126.892 306.796C128.813 316.586 130.701 340.969 132.011 350.715C133.321 360.462 141.714 383.294 141.714 383.294C141.714 383.294 140.426 388.522 141.386 390.148C142.347 391.775 152.508 394.459 152.825 393.477C153.141 392.495 154.745 389.559 155.007 386.623C155.269 383.687 150.533 352.352 152.453 345.498C154.374 338.644 154.745 292.564 155.007 287.816C155.269 283.069 154.931 274.719 154.931 274.719C155.502 274.895 156.112 274.897 156.684 274.723C157.255 274.55 157.762 274.211 158.14 273.748C159.417 272.111 163.651 316.477 164.939 326.922C166.227 337.367 163.335 340.303 162.375 346.83C161.414 353.356 159.177 374.563 159.177 377.182C159.177 379.802 156.295 388.271 157.572 389.908C158.849 391.545 161.567 391.272 162.68 391.578C166.02 392.506 168.628 391.054 169.905 390.727C171.182 390.399 172.263 385.673 172.263 385.673C172.263 385.673 182.544 356.62 184.465 344.538C186.386 332.456 189.584 310.038 188.951 296.33C188.318 282.621 184.465 254.856 184.465 254.856L183.504 246.692L130.09 241.191Z" fill="#263238" stroke="#263238" stroke-width="1.02307" stroke-linecap="round" stroke-linejoin="round"/>
<path d="M125.593 257.802C125.593 257.802 124.971 265.857 130.243 271.118" stroke="white" stroke-width="0.506629" stroke-linecap="round" stroke-linejoin="round"/>
<path d="M125.899 269.262C125.899 269.262 128.999 274.534 132.72 275.145" stroke="white" stroke-width="0.506629" stroke-linecap="round" stroke-linejoin="round"/>
<path d="M150.674 357.406C150.674 357.406 146.309 367.818 145.719 373.504C145.13 379.19 150.674 376.975 151.919 380.762C153.163 384.549 144.486 384.244 146.036 385.182C147.586 386.121 152.224 386.765 152.224 386.765" stroke="white" stroke-width="0.511535" stroke-linecap="round" stroke-linejoin="round"/>
<path d="M159.078 383.294C160.006 382.978 170.538 381.111 169.294 375.403C168.05 369.695 161.861 369.4 162.746 362.775C163.63 356.15 173.267 341.613 173.267 337.509C173.267 333.405 166.456 318.114 165.834 308.641" stroke="white" stroke-width="0.511535" stroke-linecap="round" stroke-linejoin="round"/>
<path d="M174.216 257.191C174.216 257.191 167.089 267.406 166.162 268.956C165.234 270.506 174.522 262.146 174.522 262.146" stroke="white" stroke-width="0.506629" stroke-linecap="round" stroke-linejoin="round"/>
<path d="M155.575 253.578C155.575 253.578 156.35 261.044 156.35 262.582V271.085" stroke="white" stroke-width="0.506629" stroke-linecap="round" stroke-linejoin="round"/>
<path d="M156.35 266.457C156.35 266.457 159.701 265.944 160.465 263.368C161.229 260.793 160.988 255.641 160.988 255.641" stroke="white" stroke-width="0.506629" stroke-linecap="round" stroke-linejoin="round"/>
<path d="M221.017 164.998C217.175 153.789 216.531 147.71 216.214 144.512C215.898 141.315 212.373 142.264 212.373 142.264C212.373 142.264 204.733 146.75 204.733 147.721C204.733 148.693 208.258 172.376 208.891 176.535C209.275 178.973 209.49 181.434 209.535 183.902C209.535 183.902 196.088 169.495 192.563 165.97C189.878 163.274 187.75 160.971 185.469 159.596C184.236 158.504 182.096 158.101 178.8 157.009C173.038 155.088 166.958 150.603 159.908 150.919C155.279 151.237 150.735 152.321 146.461 154.128C146.461 154.128 136.224 158.93 129.173 162.128C128.352 162.495 127.573 162.948 126.849 163.481C125.692 163.339 123.28 163.962 120.529 170.128C116.698 178.772 99.4102 201.506 96.518 209.507C93.6257 217.507 99.7158 225.518 106.439 231.914C111.29 236.683 115.884 241.707 120.202 246.964L127.842 237.556C128.058 239.65 128.423 241.725 128.933 243.766C129.894 246.964 133.092 250.49 145.905 251.406C158.718 252.323 187.499 254.091 186.56 247.565C185.24 238.287 185.916 208.503 185.283 200.502C185.096 195.371 185.202 190.233 185.6 185.113C187.073 186.98 189.966 190.439 191.985 191.804C194.866 193.725 207.046 202.718 211.849 204.661C216.651 206.603 223.374 203.384 226.255 197.021C229.137 190.658 224.858 176.207 221.017 164.998ZM116.655 218.14C115.367 213.021 114.734 211.1 114.734 211.1C114.734 211.1 122.941 202.26 126.892 197.545C127.427 210.194 127.765 224.033 127.394 226.064C127.103 229.467 127.18 232.892 127.624 236.279C125.484 233.343 117.746 222.549 116.655 218.14Z" fill="#FFAC2F" stroke="#263238" stroke-width="1.01326" stroke-linecap="round" stroke-linejoin="round"/>
<path opacity="0.1" d="M221.017 164.998C217.175 153.789 216.531 147.71 216.214 144.512C215.898 141.315 212.373 142.264 212.373 142.264C212.373 142.264 204.733 146.75 204.733 147.721C204.733 148.693 208.258 172.376 208.891 176.535C209.275 178.973 209.49 181.434 209.535 183.902C209.535 183.902 196.088 169.495 192.563 165.97C189.878 163.274 187.75 160.971 185.469 159.596C184.236 158.504 182.096 158.101 178.8 157.009C173.038 155.088 166.958 150.603 159.908 150.919C155.279 151.237 150.735 152.321 146.461 154.128C146.461 154.128 136.224 158.93 129.173 162.128C128.352 162.495 127.573 162.948 126.849 163.481C125.692 163.339 123.28 163.962 120.529 170.128C116.698 178.772 99.4102 201.506 96.518 209.507C93.6257 217.507 99.7158 225.518 106.439 231.914C111.29 236.683 115.884 241.707 120.202 246.964L127.842 237.556C128.058 239.65 128.423 241.725 128.933 243.766C129.894 246.964 133.092 250.49 145.905 251.406C158.718 252.323 187.499 254.091 186.56 247.565C185.24 238.287 185.916 208.503 185.283 200.502C185.096 195.371 185.202 190.233 185.6 185.113C187.073 186.98 189.966 190.439 191.985 191.804C194.866 193.725 207.046 202.718 211.849 204.661C216.651 206.603 223.374 203.384 226.255 197.021C229.137 190.658 224.858 176.207 221.017 164.998ZM116.655 218.14C115.367 213.021 114.734 211.1 114.734 211.1C114.734 211.1 122.941 202.26 126.892 197.545C127.427 210.194 127.765 224.033 127.394 226.064C127.103 229.467 127.18 232.892 127.624 236.279C125.484 233.343 117.746 222.549 116.655 218.14Z" fill="#343434"/>
<path d="M130.854 196.169C132.881 193.127 134.644 189.918 136.126 186.576" stroke="#263238" stroke-width="0.759943" stroke-linecap="round" stroke-linejoin="round"/>
<path d="M138.909 187.504C138.168 189.048 137.112 190.419 135.809 191.531" stroke="#263238" stroke-width="0.759943" stroke-linecap="round" stroke-linejoin="round"/>
<path d="M209.491 183.891C209.534 185.736 209.942 187.553 210.691 189.239C211.441 190.925 212.517 192.446 213.857 193.714" stroke="#263238" stroke-width="1.01326" stroke-linecap="round" stroke-linejoin="round"/>
<path d="M210.757 189.053C210.497 191.966 211.149 194.888 212.624 197.414" stroke="#263238" stroke-width="1.01326" stroke-linecap="round" stroke-linejoin="round"/>
<path d="M114.734 211.1C114.734 211.1 112.376 208.863 106.559 209.834" stroke="#263238" stroke-width="0.759943" stroke-linecap="round" stroke-linejoin="round"/>
<path d="M103.339 208.546C103.339 208.546 104.955 205.96 111.078 207.891" stroke="#263238" stroke-width="0.759943" stroke-linecap="round" stroke-linejoin="round"/>
<path d="M192.41 175.301C191.122 175.618 185.633 184.982 185.633 184.982L198.872 181.435" stroke="#263238" stroke-width="0.759943" stroke-linecap="round" stroke-linejoin="round"/>
<path d="M154.396 168.917C154.396 168.917 156.874 172.322 162.451 170.783C168.028 169.244 169.883 163.351 168.999 159.629C168.115 155.907 149.441 159.007 154.396 168.917Z" fill="white" stroke="#263238" stroke-width="1.01326" stroke-linecap="round" stroke-linejoin="round"/>
<path d="M149.092 147.71C149.092 147.71 145.348 150.199 144.857 152.447C144.366 154.695 145.599 161.91 146.592 164.398C147.586 166.887 150.838 172.617 150.838 172.617C150.838 172.617 162.047 166.144 162.844 165.642C163.64 165.14 171.575 169.626 173.31 168.917C175.046 168.207 169.076 152.971 166.336 149.74C163.597 146.51 153.075 144.709 149.092 147.71Z" fill="white" stroke="#263238" stroke-width="1.01326" stroke-linecap="round" stroke-linejoin="round"/>
<path d="M147.073 139.481C147.073 139.481 147.324 143.465 147.826 149.446C148.328 155.427 150.347 160.153 153.621 162.892C156.896 165.632 161.589 167.127 162.833 165.632C164.077 164.136 165.572 157.915 165.016 154.172C164.459 150.428 163.772 142.472 163.772 142.472L147.073 139.481Z" fill="white" stroke="#263238" stroke-width="1.01326" stroke-linecap="round" stroke-linejoin="round"/>
<g style="mix-blend-mode:multiply" opacity="0.5">
<path d="M164.536 149.511C164.164 146.03 163.826 142.472 163.826 142.472L147.073 139.481C147.073 139.481 147.324 143.465 147.826 149.446C148.016 152.212 148.653 154.928 149.714 157.49L164.536 149.511Z" fill="#FFAC2F"/>
</g>
<path d="M141.615 133.522C141.615 133.522 137.883 129.789 137.13 133.02C136.377 136.25 139.378 141.249 143.613 139.994V137.014L141.615 133.522Z" fill="white" stroke="#263238" stroke-width="1.01326" stroke-linecap="round" stroke-linejoin="round"/>
<path opacity="0.5" d="M141.615 133.522C141.615 133.522 137.883 129.789 137.13 133.02C136.377 136.25 139.378 141.249 143.613 139.994V137.014L141.615 133.522Z" fill="#FFAC2F" stroke="#263238" stroke-width="1.01326" stroke-linecap="round" stroke-linejoin="round"/>
<path d="M138.341 126.777C138.341 126.777 144.573 143.465 150.052 146.706C155.531 149.948 166.489 152.927 169.479 141.249C172.47 129.571 164.503 112.599 161.763 107.611C159.024 102.624 148.808 101.139 142.336 106.116C135.864 111.093 134.39 115.808 138.341 126.777Z" fill="white" stroke="#263238" stroke-width="1.01326" stroke-linecap="round" stroke-linejoin="round"/>
<g style="mix-blend-mode:multiply" opacity="0.5">
<path d="M145.25 112.643C147.895 111.42 150.763 110.751 153.676 110.678L159.886 105.451C155.804 102.307 147.782 101.925 142.369 106.094C135.886 111.082 134.39 115.808 138.374 126.777C138.374 126.777 144.606 143.465 150.085 146.706C152.028 147.849 154.133 148.691 156.328 149.206C153.687 145.8 149.627 140.387 148.339 137.626C146.374 133.413 145.534 124.714 143.002 119.661C140.47 114.608 141.321 114.608 145.25 112.643Z" fill="#FFAC2F"/>
</g>
<path d="M158.303 121.789C158.303 121.789 160.792 126.275 159.799 127.246C159.462 127.537 159.056 127.736 158.62 127.824C158.184 127.911 157.733 127.886 157.31 127.748" stroke="#263238" stroke-width="1.01326" stroke-linecap="round" stroke-linejoin="round"/>
<path d="M146.844 121.047C146.844 121.047 147.346 118.056 151.078 118.056" stroke="#263238" stroke-width="2.02651" stroke-linecap="round" stroke-linejoin="round"/>
<path d="M149.092 124.038C149.092 124.038 151.831 125.282 152.824 122.542" stroke="#263238" stroke-width="1.01326" stroke-linecap="round" stroke-linejoin="round"/>
<path d="M161.043 122.04C161.043 122.04 163.782 123.284 164.787 120.545" stroke="#263238" stroke-width="1.01326" stroke-linecap="round" stroke-linejoin="round"/>
<path d="M158.773 116.321C159.438 115.643 160.337 115.244 161.286 115.206C162.235 115.167 163.163 115.492 163.881 116.114" stroke="#263238" stroke-width="2.02651" stroke-linecap="round" stroke-linejoin="round"/>
<path d="M169.992 131.656C167.089 130.39 160.17 127.596 157.856 128.763C154.865 130.259 147.138 135.497 147.138 139.481C147.138 139.481 142.161 132.758 142.161 130.259C142.161 127.759 144.147 126.984 142.412 123.786C140.677 120.589 138.167 120.294 138.92 116.561C139.607 113.101 146.494 109.434 149.834 108.921C151.92 110.687 154.577 111.633 157.31 111.584C162.767 111.584 167.275 108.081 167.275 103.737C167.275 99.3932 162.811 95.9006 157.31 95.9006C156.086 95.895 154.868 96.0753 153.697 96.4354C148.48 96.0534 147.487 99.917 143.875 102.034C140.262 104.152 137.992 110.395 137.992 110.395H138.145C135.503 114.258 135.514 118.919 138.385 126.766C138.385 126.766 144.617 143.454 150.096 146.695C155.575 149.937 166.533 152.917 169.523 141.238C170.25 138.098 170.409 134.852 169.992 131.656Z" fill="#263238" stroke="#263238" stroke-width="1.01326" stroke-linecap="round" stroke-linejoin="round"/>
<path d="M164.044 131.404C164.044 131.404 160.312 136.632 156.077 133.151" stroke="white" stroke-width="1.01326" stroke-linecap="round" stroke-linejoin="round"/>
<path d="M128.169 237.032C129.649 237.966 130.95 239.156 132.011 240.547C133.312 242.327 134.703 244.04 136.18 245.677C136.18 245.677 139.695 245.993 139.378 247.597C139.062 249.202 138.418 250.151 136.813 250.151C135.209 250.151 131.695 246.953 131.695 246.953L126.576 254.954C126.576 254.954 121.774 251.439 120.169 246.953L128.169 237.032Z" fill="white" stroke="#263238" stroke-width="1.01326" stroke-linecap="round" stroke-linejoin="round"/>
<path d="M156.022 180.366C181.484 180.366 202.124 159.725 202.124 134.264C202.124 108.803 181.484 88.1622 156.022 88.1622C130.561 88.1622 109.921 108.803 109.921 134.264C109.921 159.725 130.561 180.366 156.022 180.366Z" stroke="#263238" stroke-width="2.02651" stroke-linecap="round" stroke-linejoin="round"/>
<path d="M197.649 125.303C197.649 125.303 194.44 124.976 193.807 126.897C193.174 128.817 192.203 130.738 192.203 132.026C192.203 133.314 192.519 134.264 194.124 134.58C195.728 134.897 196.689 132.659 196.689 132.659L197.649 125.303Z" fill="white" stroke="#263238" stroke-width="1.01326" stroke-linecap="round" stroke-linejoin="round"/>
<path d="M198.282 123.055C198.282 123.055 196.689 131.699 196.689 134.264C196.759 136.236 197.429 138.14 198.61 139.721C199.193 140.383 199.98 140.832 200.847 140.998L202.451 139.077C202.451 139.077 200.531 141.642 203.084 144.84C205.638 148.038 207.57 147.721 209.808 146.761C212.045 145.8 212.689 144.523 211.729 140.998C210.768 137.473 210.135 131.71 209.491 128.196C208.847 124.681 206.61 123.393 205.333 123.393C204.056 123.393 200.552 122.095 198.282 123.055Z" fill="white" stroke="#263238" stroke-width="1.01326" stroke-linecap="round" stroke-linejoin="round"/>
<path d="M197.115 136.065C197.115 136.065 196.547 134.078 198.959 133.795C201.371 133.511 205.355 133.085 205.355 133.085" stroke="#263238" stroke-width="0.506629" stroke-linecap="round" stroke-linejoin="round"/>
<path d="M197.398 130.957C197.398 130.957 202.932 129.527 204.929 129.811" stroke="#263238" stroke-width="0.506629" stroke-linecap="round" stroke-linejoin="round"/>
<path d="M197.824 126.973C199.888 126.606 201.981 126.416 204.078 126.406" stroke="#263238" stroke-width="0.506629" stroke-linecap="round" stroke-linejoin="round"/>
<path d="M199.668 137.626C200.106 138.02 200.632 138.303 201.201 138.453C201.771 138.603 202.368 138.615 202.943 138.488" stroke="#263238" stroke-width="0.506629" stroke-linecap="round" stroke-linejoin="round"/>
</svg>
