<svg width="168" height="169" viewBox="0 0 168 169" fill="none" xmlns="http://www.w3.org/2000/svg">
<g filter="url(#filter0_d_191_922)">
<rect x="4" y="0.792969" width="160" height="160" rx="20" fill="#FFE3BA" shape-rendering="crispEdges"/>
<rect x="9" y="5.79297" width="150" height="150" rx="15" stroke="#FFCD83" stroke-width="10" shape-rendering="crispEdges"/>
<path d="M99.0036 38.1859C99.0036 36.3024 96.8948 36.3024 95.9575 36.5378C97.2696 35.5019 98.8084 35.7531 99.355 36.067L112.027 42.2803C113.234 42.8723 114 44.1041 114 45.4541V86.3284C114 87.6964 113.214 88.9414 111.982 89.5238L100.058 95.1619C99.2378 95.5149 97.4571 96.3861 95.9575 95.1617C97.8321 95.5151 98.8474 94.1809 99.0036 93.2783V38.1859Z" fill="url(#paint0_linear_191_922)"/>
<path d="M96.11 36.5039C97.1047 36.3074 99.0042 36.3985 99.0042 38.186V52.2554L60.5863 81.3187C59.9148 81.8268 58.9697 81.7423 58.3978 81.1235L54.4383 76.839C53.818 76.1679 53.8614 75.1172 54.5349 74.5001L95.9579 36.5379L96.11 36.5039Z" fill="url(#paint1_linear_191_922)"/>
<path d="M99.0042 79.4449L60.5863 50.3815C59.9148 49.8735 58.9697 49.9578 58.3978 50.5767L54.4383 54.8612C53.818 55.5323 53.8614 56.583 54.5349 57.2003L95.9579 95.1624C97.8325 95.5155 98.848 94.1814 99.0042 93.2788V79.4449Z" fill="url(#paint2_linear_191_922)"/>
<path d="M61.749 108.869L56.493 121.793H54.774L49.518 108.869H51.048C51.216 108.869 51.351 108.911 51.453 108.995C51.561 109.079 51.642 109.187 51.696 109.319L55.188 118.103C55.272 118.319 55.353 118.556 55.431 118.814C55.515 119.072 55.59 119.342 55.656 119.624C55.716 119.342 55.782 119.072 55.854 118.814C55.926 118.556 56.004 118.319 56.088 118.103L59.571 109.319C59.613 109.199 59.688 109.094 59.796 109.004C59.91 108.914 60.048 108.869 60.21 108.869H61.749ZM69.7507 110.975C69.6907 111.077 69.6277 111.152 69.5617 111.2C69.4957 111.248 69.4117 111.272 69.3097 111.272C69.2017 111.272 69.0787 111.224 68.9407 111.128C68.8027 111.026 68.6287 110.915 68.4187 110.795C68.2147 110.669 67.9687 110.558 67.6807 110.462C67.3927 110.36 67.0477 110.309 66.6457 110.309C66.2677 110.309 65.9347 110.36 65.6467 110.462C65.3647 110.558 65.1277 110.693 64.9357 110.867C64.7437 111.035 64.5967 111.236 64.4947 111.47C64.3987 111.698 64.3507 111.947 64.3507 112.217C64.3507 112.565 64.4377 112.853 64.6117 113.081C64.7917 113.309 65.0257 113.504 65.3137 113.666C65.6017 113.828 65.9287 113.969 66.2947 114.089C66.6607 114.209 67.0357 114.335 67.4197 114.467C67.8037 114.593 68.1787 114.74 68.5447 114.908C68.9107 115.076 69.2377 115.289 69.5257 115.547C69.8137 115.799 70.0447 116.111 70.2187 116.483C70.3987 116.849 70.4887 117.299 70.4887 117.833C70.4887 118.403 70.3897 118.937 70.1917 119.435C69.9997 119.933 69.7177 120.368 69.3457 120.74C68.9737 121.112 68.5147 121.406 67.9687 121.622C67.4287 121.832 66.8137 121.937 66.1237 121.937C65.7097 121.937 65.3077 121.895 64.9177 121.811C64.5277 121.733 64.1587 121.622 63.8107 121.478C63.4627 121.328 63.1357 121.151 62.8297 120.947C62.5297 120.737 62.2597 120.503 62.0197 120.245L62.5687 119.327C62.6227 119.255 62.6857 119.195 62.7577 119.147C62.8357 119.099 62.9227 119.075 63.0187 119.075C63.1447 119.075 63.2887 119.141 63.4507 119.273C63.6187 119.405 63.8227 119.552 64.0627 119.714C64.3087 119.87 64.5997 120.014 64.9357 120.146C65.2777 120.278 65.6917 120.344 66.1777 120.344C66.5737 120.344 66.9277 120.293 67.2397 120.191C67.5517 120.083 67.8127 119.933 68.0227 119.741C68.2387 119.543 68.4037 119.306 68.5177 119.03C68.6317 118.754 68.6887 118.448 68.6887 118.112C68.6887 117.734 68.6017 117.425 68.4277 117.185C68.2537 116.945 68.0227 116.744 67.7347 116.582C67.4467 116.42 67.1197 116.282 66.7537 116.168C66.3877 116.054 66.0127 115.937 65.6287 115.817C65.2447 115.691 64.8697 115.547 64.5037 115.385C64.1377 115.223 63.8107 115.013 63.5227 114.755C63.2347 114.491 63.0037 114.164 62.8297 113.774C62.6557 113.378 62.5687 112.892 62.5687 112.316C62.5687 111.854 62.6587 111.407 62.8387 110.975C63.0187 110.543 63.2797 110.162 63.6217 109.832C63.9697 109.496 64.3957 109.229 64.8997 109.031C65.4037 108.827 65.9797 108.725 66.6277 108.725C67.3537 108.725 68.0197 108.842 68.6257 109.076C69.2377 109.304 69.7687 109.634 70.2187 110.066L69.7507 110.975ZM86.4345 119.021C86.5425 119.021 86.6355 119.063 86.7135 119.147L87.4695 119.975C86.9415 120.599 86.2965 121.082 85.5345 121.424C84.7785 121.766 83.8665 121.937 82.7985 121.937C81.8625 121.937 81.0135 121.775 80.2515 121.451C79.4955 121.127 78.8475 120.674 78.3075 120.092C77.7735 119.51 77.3595 118.814 77.0655 118.004C76.7715 117.194 76.6245 116.303 76.6245 115.331C76.6245 114.359 76.7775 113.468 77.0835 112.658C77.3955 111.848 77.8305 111.152 78.3885 110.57C78.9465 109.988 79.6125 109.535 80.3865 109.211C81.1665 108.887 82.0275 108.725 82.9695 108.725C83.8875 108.725 84.7035 108.875 85.4175 109.175C86.1315 109.475 86.7525 109.874 87.2805 110.372L86.6505 111.263C86.6085 111.329 86.5545 111.383 86.4885 111.425C86.4285 111.467 86.3475 111.488 86.2455 111.488C86.1315 111.488 85.9965 111.431 85.8405 111.317C85.6905 111.203 85.4895 111.077 85.2375 110.939C84.9915 110.795 84.6855 110.666 84.3195 110.552C83.9535 110.438 83.4975 110.381 82.9515 110.381C82.3095 110.381 81.7215 110.495 81.1875 110.723C80.6535 110.945 80.1915 111.269 79.8015 111.695C79.4175 112.115 79.1175 112.634 78.9015 113.252C78.6915 113.864 78.5865 114.557 78.5865 115.331C78.5865 116.117 78.6975 116.816 78.9195 117.428C79.1415 118.04 79.4475 118.559 79.8375 118.985C80.2275 119.411 80.6865 119.735 81.2145 119.957C81.7425 120.179 82.3125 120.29 82.9245 120.29C83.2965 120.29 83.6295 120.269 83.9235 120.227C84.2235 120.179 84.4965 120.11 84.7425 120.02C84.9945 119.93 85.2315 119.816 85.4535 119.678C85.6755 119.534 85.8945 119.363 86.1105 119.165C86.1585 119.123 86.2095 119.09 86.2635 119.066C86.3175 119.036 86.3745 119.021 86.4345 119.021ZM92.757 112.505C93.429 112.505 94.035 112.616 94.575 112.838C95.121 113.054 95.583 113.369 95.961 113.783C96.345 114.191 96.639 114.686 96.843 115.268C97.047 115.844 97.149 116.492 97.149 117.212C97.149 117.932 97.047 118.583 96.843 119.165C96.639 119.747 96.345 120.242 95.961 120.65C95.583 121.058 95.121 121.373 94.575 121.595C94.035 121.811 93.429 121.919 92.757 121.919C92.079 121.919 91.467 121.811 90.921 121.595C90.381 121.373 89.919 121.058 89.535 120.65C89.151 120.242 88.854 119.747 88.644 119.165C88.44 118.583 88.338 117.932 88.338 117.212C88.338 116.492 88.44 115.844 88.644 115.268C88.854 114.686 89.151 114.191 89.535 113.783C89.919 113.369 90.381 113.054 90.921 112.838C91.467 112.616 92.079 112.505 92.757 112.505ZM92.757 120.551C93.621 120.551 94.266 120.26 94.692 119.678C95.118 119.096 95.331 118.277 95.331 117.221C95.331 116.165 95.118 115.346 94.692 114.764C94.266 114.176 93.621 113.882 92.757 113.882C91.881 113.882 91.227 114.176 90.795 114.764C90.369 115.346 90.156 116.165 90.156 117.221C90.156 118.277 90.369 119.096 90.795 119.678C91.227 120.26 91.881 120.551 92.757 120.551ZM105.003 114.863C104.715 114.485 104.403 114.221 104.067 114.071C103.737 113.921 103.365 113.846 102.951 113.846C102.147 113.846 101.523 114.137 101.079 114.719C100.641 115.295 100.422 116.138 100.422 117.248C100.422 117.83 100.47 118.328 100.566 118.742C100.668 119.15 100.812 119.486 100.998 119.75C101.19 120.008 101.424 120.2 101.7 120.326C101.976 120.446 102.288 120.506 102.636 120.506C103.146 120.506 103.587 120.392 103.959 120.164C104.331 119.936 104.679 119.615 105.003 119.201V114.863ZM106.767 108.509V121.793H105.705C105.459 121.793 105.306 121.676 105.246 121.442L105.093 120.389C104.703 120.851 104.259 121.223 103.761 121.505C103.269 121.781 102.699 121.919 102.051 121.919C101.529 121.919 101.055 121.817 100.629 121.613C100.209 121.409 99.849 121.112 99.549 120.722C99.249 120.326 99.018 119.837 98.856 119.255C98.694 118.673 98.613 118.004 98.613 117.248C98.613 116.57 98.703 115.94 98.883 115.358C99.063 114.776 99.324 114.272 99.666 113.846C100.008 113.42 100.422 113.087 100.908 112.847C101.394 112.601 101.943 112.478 102.555 112.478C103.107 112.478 103.575 112.568 103.959 112.748C104.349 112.928 104.697 113.183 105.003 113.513V108.509H106.767ZM115.272 116.204C115.272 115.856 115.221 115.535 115.119 115.241C115.023 114.947 114.879 114.692 114.687 114.476C114.495 114.26 114.261 114.092 113.985 113.972C113.709 113.852 113.391 113.792 113.031 113.792C112.293 113.792 111.711 114.005 111.285 114.431C110.865 114.857 110.598 115.448 110.484 116.204H115.272ZM116.721 120.488C116.505 120.74 116.256 120.959 115.974 121.145C115.692 121.325 115.392 121.472 115.074 121.586C114.756 121.7 114.426 121.784 114.084 121.838C113.748 121.892 113.415 121.919 113.085 121.919C112.455 121.919 111.87 121.814 111.33 121.604C110.796 121.388 110.331 121.076 109.935 120.668C109.545 120.254 109.239 119.744 109.017 119.138C108.801 118.526 108.693 117.824 108.693 117.032C108.693 116.396 108.792 115.805 108.99 115.259C109.188 114.707 109.47 114.227 109.836 113.819C110.208 113.411 110.661 113.09 111.195 112.856C111.729 112.622 112.329 112.505 112.995 112.505C113.553 112.505 114.066 112.598 114.534 112.784C115.008 112.964 115.416 113.228 115.758 113.576C116.1 113.924 116.367 114.353 116.559 114.863C116.757 115.373 116.856 115.955 116.856 116.609C116.856 116.879 116.826 117.062 116.766 117.158C116.706 117.248 116.595 117.293 116.433 117.293H110.439C110.457 117.839 110.535 118.316 110.673 118.724C110.811 119.126 111 119.462 111.24 119.732C111.486 120.002 111.777 120.203 112.113 120.335C112.449 120.467 112.824 120.533 113.238 120.533C113.628 120.533 113.964 120.488 114.246 120.398C114.534 120.308 114.78 120.212 114.984 120.11C115.194 120.002 115.368 119.903 115.506 119.813C115.65 119.723 115.776 119.678 115.884 119.678C116.028 119.678 116.139 119.732 116.217 119.84L116.721 120.488Z" fill="#343434"/>
</g>
<defs>
<filter id="filter0_d_191_922" x="0" y="0.792969" width="168" height="168" filterUnits="userSpaceOnUse" color-interpolation-filters="sRGB">
<feFlood flood-opacity="0" result="BackgroundImageFix"/>
<feColorMatrix in="SourceAlpha" type="matrix" values="0 0 0 0 0 0 0 0 0 0 0 0 0 0 0 0 0 0 127 0" result="hardAlpha"/>
<feOffset dy="4"/>
<feGaussianBlur stdDeviation="2"/>
<feComposite in2="hardAlpha" operator="out"/>
<feColorMatrix type="matrix" values="0 0 0 0 0 0 0 0 0 0 0 0 0 0 0 0 0 0 0.25 0"/>
<feBlend mode="normal" in2="BackgroundImageFix" result="effect1_dropShadow_191_922"/>
<feBlend mode="normal" in="SourceGraphic" in2="effect1_dropShadow_191_922" result="shape"/>
</filter>
<linearGradient id="paint0_linear_191_922" x1="104.979" y1="35.7928" x2="104.979" y2="95.7932" gradientUnits="userSpaceOnUse">
<stop stop-color="#32B5F1"/>
<stop offset="1" stop-color="#2B9FED"/>
</linearGradient>
<linearGradient id="paint1_linear_191_922" x1="99.0042" y1="43.3656" x2="56.1894" y2="79.304" gradientUnits="userSpaceOnUse">
<stop stop-color="#0F6FB3"/>
<stop offset="0.270551" stop-color="#1279B7"/>
<stop offset="0.421376" stop-color="#1176B5"/>
<stop offset="0.618197" stop-color="#0E69AC"/>
<stop offset="0.855344" stop-color="#0F70AF"/>
<stop offset="1" stop-color="#0F6DAD"/>
</linearGradient>
<linearGradient id="paint2_linear_191_922" x1="56.4755" y1="52.9013" x2="99.1698" y2="88.2521" gradientUnits="userSpaceOnUse">
<stop stop-color="#1791D2"/>
<stop offset="1" stop-color="#1173C5"/>
</linearGradient>
</defs>
</svg>
