<svg width="168" height="169" viewBox="0 0 168 169" fill="none" xmlns="http://www.w3.org/2000/svg">
<g filter="url(#filter0_d_191_902)">
<rect x="4" y="0.792969" width="160" height="160" rx="20" fill="#FFE3BA" shape-rendering="crispEdges"/>
<rect x="9" y="5.79297" width="150" height="150" rx="15" stroke="#FFCD83" stroke-width="10" shape-rendering="crispEdges"/>
<path d="M99.9375 35.793H68.0625C60.296 35.793 54 42.089 54 49.8555V81.7305C54 89.497 60.296 95.793 68.0625 95.793H99.9375C107.704 95.793 114 89.497 114 81.7305V49.8555C114 42.089 107.704 35.793 99.9375 35.793Z" fill="#470137"/>
<path d="M85.4623 54.5934L78.4311 66.1949L85.9311 78.4996C85.9779 78.5934 86.0014 78.6871 85.9779 78.7809C85.9545 78.8746 85.8608 78.8043 85.7201 78.8278H80.3529C79.9779 78.8278 79.7201 78.8043 79.5561 78.5699C79.0639 77.5856 78.5483 76.6246 78.0561 75.6402C77.5639 74.6793 77.0248 73.6949 76.4623 72.6871C75.8998 71.6793 75.3373 70.6715 74.7748 69.6402H74.7279C74.2358 70.6481 73.6967 71.6559 73.1576 72.6637C72.6186 73.6715 72.0795 74.6793 71.5639 75.6637C71.0248 76.6481 70.4858 77.6559 69.9467 78.6168C69.8529 78.8512 69.6654 78.8746 69.4076 78.8746H64.2514C64.1576 78.8746 64.0873 78.9215 64.0873 78.8043C64.0639 78.7106 64.0873 78.6168 64.1342 78.5465L71.4233 66.5934L64.3217 54.5699C64.2514 54.4762 64.2279 54.3824 64.2748 54.3356C64.3217 54.2652 64.4154 54.2418 64.5092 54.2418H69.8295C69.9467 54.2418 70.0639 54.2652 70.1576 54.2887C70.2514 54.3356 70.3217 54.4059 70.392 54.4996C70.8373 55.5074 71.3529 56.5152 71.892 57.5231C72.4545 58.5309 72.9936 59.5152 73.5795 60.4996C74.142 61.484 74.6576 62.4684 75.1498 63.4762H75.1967C75.6889 62.4449 76.2045 61.4371 76.7201 60.4527C77.2358 59.4684 77.7748 58.484 78.3139 57.4996C78.8529 56.5152 79.3686 55.5074 79.8842 54.5465C79.9076 54.4527 79.9545 54.359 80.0248 54.3121C80.1186 54.2652 80.2123 54.2418 80.3295 54.2652H85.2748C85.392 54.2418 85.5092 54.3121 85.5326 54.4293C85.5561 54.4527 85.5092 54.5465 85.4623 54.5934ZM96.2904 79.3202C94.5561 79.3436 92.8217 78.992 91.2514 78.2655C89.7748 77.5858 88.5561 76.4608 87.7123 75.078C86.8451 73.6483 86.4233 71.867 86.4233 69.7342C86.3998 67.9999 86.8451 66.2889 87.7123 64.7889C88.6029 63.2655 89.892 61.9999 91.4389 61.1561C93.0795 60.242 95.0483 59.7967 97.3686 59.7967C97.4858 59.7967 97.6498 59.7967 97.8608 59.8202C98.0717 59.8436 98.3061 59.8436 98.5873 59.867V52.4608C98.5873 52.2967 98.6576 52.203 98.8217 52.203H103.58C103.697 52.1795 103.79 52.2733 103.814 52.367V74.7264C103.814 75.1483 103.837 75.617 103.861 76.1327C103.908 76.6249 103.931 77.0936 103.955 77.492C103.955 77.6561 103.884 77.7967 103.72 77.867C102.501 78.3827 101.212 78.7577 99.8998 78.992C98.7045 79.203 97.5092 79.3202 96.2904 79.3202ZM98.5873 74.6327V64.3202C98.3764 64.2733 98.1654 64.2264 97.9545 64.203C97.6967 64.1795 97.4389 64.1561 97.1811 64.1561C96.267 64.1561 95.3529 64.3436 94.5326 64.7655C93.7358 65.1639 93.0561 65.7499 92.5404 66.4999C92.0248 67.2499 91.767 68.2577 91.767 69.4764C91.7436 70.2967 91.8842 71.117 92.1654 71.8905C92.3998 72.5233 92.7514 73.0858 93.2201 73.5545C93.6654 73.9764 94.2045 74.3045 94.8139 74.492C95.4467 74.703 96.1029 74.7967 96.7592 74.7967C97.1108 74.7967 97.4389 74.7733 97.7436 74.7499C98.0483 74.7733 98.3061 74.7264 98.5873 74.6327Z" fill="#FF61F6"/>
<path d="M82.619 121.793H80.72C80.582 121.793 80.471 121.757 80.387 121.685C80.303 121.607 80.237 121.526 80.189 121.442L76.85 116.123C76.802 116.273 76.745 116.402 76.679 116.51L73.43 121.442C73.37 121.526 73.301 121.607 73.223 121.685C73.145 121.757 73.046 121.793 72.926 121.793H71.135L75.554 115.142L71.324 108.869H73.223C73.361 108.869 73.463 108.89 73.529 108.932C73.595 108.974 73.652 109.037 73.7 109.121L76.967 114.188C77.015 114.032 77.081 113.888 77.165 113.756L80.225 109.157C80.279 109.061 80.339 108.989 80.405 108.941C80.471 108.893 80.555 108.869 80.657 108.869H82.484L78.227 115.061L82.619 121.793ZM95.6473 115.331C95.6473 116.297 95.4913 117.176 95.1793 117.968C94.8733 118.76 94.4383 119.441 93.8743 120.011C93.3103 120.575 92.6353 121.013 91.8493 121.325C91.0633 121.637 90.1903 121.793 89.2303 121.793H84.3703V108.869H89.2303C90.1903 108.869 91.0633 109.025 91.8493 109.337C92.6353 109.649 93.3103 110.09 93.8743 110.66C94.4383 111.224 94.8733 111.905 95.1793 112.703C95.4913 113.495 95.6473 114.371 95.6473 115.331ZM93.6853 115.331C93.6853 114.563 93.5803 113.876 93.3703 113.27C93.1603 112.658 92.8603 112.142 92.4703 111.722C92.0863 111.296 91.6183 110.972 91.0663 110.75C90.5203 110.528 89.9083 110.417 89.2303 110.417H86.2963V120.245H89.2303C89.9083 120.245 90.5203 120.134 91.0663 119.912C91.6183 119.69 92.0863 119.369 92.4703 118.949C92.8603 118.523 93.1603 118.007 93.3703 117.401C93.5803 116.795 93.6853 116.105 93.6853 115.331Z" fill="#343434"/>
</g>
<defs>
<filter id="filter0_d_191_902" x="0" y="0.792969" width="168" height="168" filterUnits="userSpaceOnUse" color-interpolation-filters="sRGB">
<feFlood flood-opacity="0" result="BackgroundImageFix"/>
<feColorMatrix in="SourceAlpha" type="matrix" values="0 0 0 0 0 0 0 0 0 0 0 0 0 0 0 0 0 0 127 0" result="hardAlpha"/>
<feOffset dy="4"/>
<feGaussianBlur stdDeviation="2"/>
<feComposite in2="hardAlpha" operator="out"/>
<feColorMatrix type="matrix" values="0 0 0 0 0 0 0 0 0 0 0 0 0 0 0 0 0 0 0.25 0"/>
<feBlend mode="normal" in2="BackgroundImageFix" result="effect1_dropShadow_191_902"/>
<feBlend mode="normal" in="SourceGraphic" in2="effect1_dropShadow_191_902" result="shape"/>
</filter>
</defs>
</svg>
